<mxfile host="Electron" modified="2024-03-27T03:00:30.601Z" agent="Mozilla/5.0 (Windows NT 10.0; Win64; x64) AppleWebKit/537.36 (KHTML, like Gecko) draw.io/23.0.2 Chrome/120.0.6099.109 Electron/28.1.0 Safari/537.36" etag="049l0ifEvw_-VzApyJJ1" version="23.0.2" type="device">
  <diagram id="C5RBs43oDa-KdzZeNtuy" name="Page-1">
    <mxGraphModel dx="4261" dy="3858" grid="1" gridSize="10" guides="1" tooltips="1" connect="1" arrows="1" fold="1" page="1" pageScale="1" pageWidth="827" pageHeight="1169" math="0" shadow="0">
      <root>
        <mxCell id="WIyWlLk6GJQsqaUBKTNV-0" />
        <mxCell id="WIyWlLk6GJQsqaUBKTNV-1" parent="WIyWlLk6GJQsqaUBKTNV-0" />
        <mxCell id="6U9F9vJyRZBFyjSzrLCs-0" value="Note" style="swimlane;fontStyle=0;childLayout=stackLayout;horizontal=1;startSize=26;fillColor=none;horizontalStack=0;resizeParent=1;resizeParentMax=0;resizeLast=0;collapsible=1;marginBottom=0;whiteSpace=wrap;html=1;" parent="WIyWlLk6GJQsqaUBKTNV-1" vertex="1">
          <mxGeometry x="2790" y="-94" width="150" height="194" as="geometry" />
        </mxCell>
        <mxCell id="6U9F9vJyRZBFyjSzrLCs-1" value="+ NoteId: int" style="text;strokeColor=none;fillColor=none;align=left;verticalAlign=top;spacingLeft=4;spacingRight=4;overflow=hidden;rotatable=0;points=[[0,0.5],[1,0.5]];portConstraint=eastwest;whiteSpace=wrap;html=1;" parent="6U9F9vJyRZBFyjSzrLCs-0" vertex="1">
          <mxGeometry y="26" width="150" height="26" as="geometry" />
        </mxCell>
        <mxCell id="6U9F9vJyRZBFyjSzrLCs-2" value="+ SourceId: int" style="text;strokeColor=none;fillColor=none;align=left;verticalAlign=top;spacingLeft=4;spacingRight=4;overflow=hidden;rotatable=0;points=[[0,0.5],[1,0.5]];portConstraint=eastwest;whiteSpace=wrap;html=1;" parent="6U9F9vJyRZBFyjSzrLCs-0" vertex="1">
          <mxGeometry y="52" width="150" height="26" as="geometry" />
        </mxCell>
        <mxCell id="6U9F9vJyRZBFyjSzrLCs-3" value="+ Content: string?" style="text;strokeColor=none;fillColor=none;align=left;verticalAlign=top;spacingLeft=4;spacingRight=4;overflow=hidden;rotatable=0;points=[[0,0.5],[1,0.5]];portConstraint=eastwest;whiteSpace=wrap;html=1;" parent="6U9F9vJyRZBFyjSzrLCs-0" vertex="1">
          <mxGeometry y="78" width="150" height="26" as="geometry" />
        </mxCell>
        <mxCell id="6U9F9vJyRZBFyjSzrLCs-4" value="+ Username: string" style="text;strokeColor=none;fillColor=none;align=left;verticalAlign=top;spacingLeft=4;spacingRight=4;overflow=hidden;rotatable=0;points=[[0,0.5],[1,0.5]];portConstraint=eastwest;whiteSpace=wrap;html=1;" parent="6U9F9vJyRZBFyjSzrLCs-0" vertex="1">
          <mxGeometry y="104" width="150" height="26" as="geometry" />
        </mxCell>
        <mxCell id="6U9F9vJyRZBFyjSzrLCs-24" value="" style="line;strokeWidth=1;fillColor=none;align=left;verticalAlign=middle;spacingTop=-1;spacingLeft=3;spacingRight=3;rotatable=0;labelPosition=right;points=[];portConstraint=eastwest;strokeColor=inherit;" parent="6U9F9vJyRZBFyjSzrLCs-0" vertex="1">
          <mxGeometry y="130" width="150" height="8" as="geometry" />
        </mxCell>
        <mxCell id="6U9F9vJyRZBFyjSzrLCs-28" value="+ Equals(object?): bool" style="text;strokeColor=none;fillColor=none;align=left;verticalAlign=top;spacingLeft=4;spacingRight=4;overflow=hidden;rotatable=0;points=[[0,0.5],[1,0.5]];portConstraint=eastwest;whiteSpace=wrap;html=1;" parent="6U9F9vJyRZBFyjSzrLCs-0" vertex="1">
          <mxGeometry y="138" width="150" height="30" as="geometry" />
        </mxCell>
        <mxCell id="6U9F9vJyRZBFyjSzrLCs-32" value="+ GetHashCode(): int" style="text;strokeColor=none;fillColor=none;align=left;verticalAlign=top;spacingLeft=4;spacingRight=4;overflow=hidden;rotatable=0;points=[[0,0.5],[1,0.5]];portConstraint=eastwest;whiteSpace=wrap;html=1;" parent="6U9F9vJyRZBFyjSzrLCs-0" vertex="1">
          <mxGeometry y="168" width="150" height="26" as="geometry" />
        </mxCell>
        <mxCell id="6U9F9vJyRZBFyjSzrLCs-5" value="Source" style="swimlane;fontStyle=0;childLayout=stackLayout;horizontal=1;startSize=26;fillColor=none;horizontalStack=0;resizeParent=1;resizeParentMax=0;resizeLast=0;collapsible=1;marginBottom=0;whiteSpace=wrap;html=1;" parent="WIyWlLk6GJQsqaUBKTNV-1" vertex="1">
          <mxGeometry x="1580" y="670" width="150" height="298" as="geometry">
            <mxRectangle x="1580" y="670" width="80" height="30" as="alternateBounds" />
          </mxGeometry>
        </mxCell>
        <mxCell id="6U9F9vJyRZBFyjSzrLCs-36" value="+ GetHashCode(): int" style="text;strokeColor=none;fillColor=none;align=left;verticalAlign=top;spacingLeft=4;spacingRight=4;overflow=hidden;rotatable=0;points=[[0,0.5],[1,0.5]];portConstraint=eastwest;whiteSpace=wrap;html=1;" parent="6U9F9vJyRZBFyjSzrLCs-5" vertex="1">
          <mxGeometry y="26" width="150" height="26" as="geometry" />
        </mxCell>
        <mxCell id="6U9F9vJyRZBFyjSzrLCs-33" value="+ Equals(object?): bool" style="text;strokeColor=none;fillColor=none;align=left;verticalAlign=top;spacingLeft=4;spacingRight=4;overflow=hidden;rotatable=0;points=[[0,0.5],[1,0.5]];portConstraint=eastwest;whiteSpace=wrap;html=1;" parent="6U9F9vJyRZBFyjSzrLCs-5" vertex="1">
          <mxGeometry y="52" width="150" height="30" as="geometry" />
        </mxCell>
        <mxCell id="6U9F9vJyRZBFyjSzrLCs-25" value="" style="line;strokeWidth=1;fillColor=none;align=left;verticalAlign=middle;spacingTop=-1;spacingLeft=3;spacingRight=3;rotatable=0;labelPosition=right;points=[];portConstraint=eastwest;strokeColor=inherit;" parent="6U9F9vJyRZBFyjSzrLCs-5" vertex="1">
          <mxGeometry y="82" width="150" height="8" as="geometry" />
        </mxCell>
        <mxCell id="6U9F9vJyRZBFyjSzrLCs-10" value="+ CreatedBy: string" style="text;strokeColor=none;fillColor=none;align=left;verticalAlign=top;spacingLeft=4;spacingRight=4;overflow=hidden;rotatable=0;points=[[0,0.5],[1,0.5]];portConstraint=eastwest;whiteSpace=wrap;html=1;" parent="6U9F9vJyRZBFyjSzrLCs-5" vertex="1">
          <mxGeometry y="90" width="150" height="26" as="geometry" />
        </mxCell>
        <mxCell id="6U9F9vJyRZBFyjSzrLCs-11" value="+ SourceTypeId: int" style="text;strokeColor=none;fillColor=none;align=left;verticalAlign=top;spacingLeft=4;spacingRight=4;overflow=hidden;rotatable=0;points=[[0,0.5],[1,0.5]];portConstraint=eastwest;whiteSpace=wrap;html=1;" parent="6U9F9vJyRZBFyjSzrLCs-5" vertex="1">
          <mxGeometry y="116" width="150" height="26" as="geometry" />
        </mxCell>
        <mxCell id="6U9F9vJyRZBFyjSzrLCs-12" value="+ Tags: string" style="text;strokeColor=none;fillColor=none;align=left;verticalAlign=top;spacingLeft=4;spacingRight=4;overflow=hidden;rotatable=0;points=[[0,0.5],[1,0.5]];portConstraint=eastwest;whiteSpace=wrap;html=1;" parent="6U9F9vJyRZBFyjSzrLCs-5" vertex="1">
          <mxGeometry y="142" width="150" height="26" as="geometry" />
        </mxCell>
        <mxCell id="6U9F9vJyRZBFyjSzrLCs-13" value="+ MetaData: string" style="text;strokeColor=none;fillColor=none;align=left;verticalAlign=top;spacingLeft=4;spacingRight=4;overflow=hidden;rotatable=0;points=[[0,0.5],[1,0.5]];portConstraint=eastwest;whiteSpace=wrap;html=1;" parent="6U9F9vJyRZBFyjSzrLCs-5" vertex="1">
          <mxGeometry y="168" width="150" height="26" as="geometry" />
        </mxCell>
        <mxCell id="6U9F9vJyRZBFyjSzrLCs-8" value="+ Content:string" style="text;strokeColor=none;fillColor=none;align=left;verticalAlign=top;spacingLeft=4;spacingRight=4;overflow=hidden;rotatable=0;points=[[0,0.5],[1,0.5]];portConstraint=eastwest;whiteSpace=wrap;html=1;" parent="6U9F9vJyRZBFyjSzrLCs-5" vertex="1">
          <mxGeometry y="194" width="150" height="26" as="geometry" />
        </mxCell>
        <mxCell id="6U9F9vJyRZBFyjSzrLCs-9" value="+ Description: string" style="text;strokeColor=none;fillColor=none;align=left;verticalAlign=top;spacingLeft=4;spacingRight=4;overflow=hidden;rotatable=0;points=[[0,0.5],[1,0.5]];portConstraint=eastwest;whiteSpace=wrap;html=1;" parent="6U9F9vJyRZBFyjSzrLCs-5" vertex="1">
          <mxGeometry y="220" width="150" height="26" as="geometry" />
        </mxCell>
        <mxCell id="6U9F9vJyRZBFyjSzrLCs-7" value="+ Name: string" style="text;strokeColor=none;fillColor=none;align=left;verticalAlign=top;spacingLeft=4;spacingRight=4;overflow=hidden;rotatable=0;points=[[0,0.5],[1,0.5]];portConstraint=eastwest;whiteSpace=wrap;html=1;" parent="6U9F9vJyRZBFyjSzrLCs-5" vertex="1">
          <mxGeometry y="246" width="150" height="26" as="geometry" />
        </mxCell>
        <mxCell id="6U9F9vJyRZBFyjSzrLCs-6" value="+ SourceId: int" style="text;strokeColor=none;fillColor=none;align=left;verticalAlign=top;spacingLeft=4;spacingRight=4;overflow=hidden;rotatable=0;points=[[0,0.5],[1,0.5]];portConstraint=eastwest;whiteSpace=wrap;html=1;" parent="6U9F9vJyRZBFyjSzrLCs-5" vertex="1">
          <mxGeometry y="272" width="150" height="26" as="geometry" />
        </mxCell>
        <mxCell id="6U9F9vJyRZBFyjSzrLCs-14" value="User" style="swimlane;fontStyle=0;childLayout=stackLayout;horizontal=1;startSize=26;fillColor=none;horizontalStack=0;resizeParent=1;resizeParentMax=0;resizeLast=0;collapsible=1;marginBottom=0;whiteSpace=wrap;html=1;" parent="WIyWlLk6GJQsqaUBKTNV-1" vertex="1">
          <mxGeometry x="740" y="-166" width="140" height="246" as="geometry" />
        </mxCell>
        <mxCell id="6U9F9vJyRZBFyjSzrLCs-15" value="+ Username: string" style="text;strokeColor=none;fillColor=none;align=left;verticalAlign=top;spacingLeft=4;spacingRight=4;overflow=hidden;rotatable=0;points=[[0,0.5],[1,0.5]];portConstraint=eastwest;whiteSpace=wrap;html=1;" parent="6U9F9vJyRZBFyjSzrLCs-14" vertex="1">
          <mxGeometry y="26" width="140" height="26" as="geometry" />
        </mxCell>
        <mxCell id="6U9F9vJyRZBFyjSzrLCs-16" value="+ Email: string?" style="text;strokeColor=none;fillColor=none;align=left;verticalAlign=top;spacingLeft=4;spacingRight=4;overflow=hidden;rotatable=0;points=[[0,0.5],[1,0.5]];portConstraint=eastwest;whiteSpace=wrap;html=1;" parent="6U9F9vJyRZBFyjSzrLCs-14" vertex="1">
          <mxGeometry y="52" width="140" height="26" as="geometry" />
        </mxCell>
        <mxCell id="6U9F9vJyRZBFyjSzrLCs-18" value="+ Firstname: string?" style="text;strokeColor=none;fillColor=none;align=left;verticalAlign=top;spacingLeft=4;spacingRight=4;overflow=hidden;rotatable=0;points=[[0,0.5],[1,0.5]];portConstraint=eastwest;whiteSpace=wrap;html=1;" parent="6U9F9vJyRZBFyjSzrLCs-14" vertex="1">
          <mxGeometry y="78" width="140" height="26" as="geometry" />
        </mxCell>
        <mxCell id="6U9F9vJyRZBFyjSzrLCs-19" value="+ Lastname: string?" style="text;strokeColor=none;fillColor=none;align=left;verticalAlign=top;spacingLeft=4;spacingRight=4;overflow=hidden;rotatable=0;points=[[0,0.5],[1,0.5]];portConstraint=eastwest;whiteSpace=wrap;html=1;" parent="6U9F9vJyRZBFyjSzrLCs-14" vertex="1">
          <mxGeometry y="104" width="140" height="26" as="geometry" />
        </mxCell>
        <mxCell id="6U9F9vJyRZBFyjSzrLCs-17" value="+ Phone: string?" style="text;strokeColor=none;fillColor=none;align=left;verticalAlign=top;spacingLeft=4;spacingRight=4;overflow=hidden;rotatable=0;points=[[0,0.5],[1,0.5]];portConstraint=eastwest;whiteSpace=wrap;html=1;" parent="6U9F9vJyRZBFyjSzrLCs-14" vertex="1">
          <mxGeometry y="130" width="140" height="26" as="geometry" />
        </mxCell>
        <mxCell id="8kD_bNBt5iVXrSrV0JrJ-9" value="+ Password: string" style="text;strokeColor=none;fillColor=none;align=left;verticalAlign=top;spacingLeft=4;spacingRight=4;overflow=hidden;rotatable=0;points=[[0,0.5],[1,0.5]];portConstraint=eastwest;whiteSpace=wrap;html=1;" parent="6U9F9vJyRZBFyjSzrLCs-14" vertex="1">
          <mxGeometry y="156" width="140" height="26" as="geometry" />
        </mxCell>
        <mxCell id="6U9F9vJyRZBFyjSzrLCs-26" value="" style="line;strokeWidth=1;fillColor=none;align=left;verticalAlign=middle;spacingTop=-1;spacingLeft=3;spacingRight=3;rotatable=0;labelPosition=right;points=[];portConstraint=eastwest;strokeColor=inherit;" parent="6U9F9vJyRZBFyjSzrLCs-14" vertex="1">
          <mxGeometry y="182" width="140" height="8" as="geometry" />
        </mxCell>
        <mxCell id="6U9F9vJyRZBFyjSzrLCs-34" value="+ Equals(object?): bool" style="text;strokeColor=none;fillColor=none;align=left;verticalAlign=top;spacingLeft=4;spacingRight=4;overflow=hidden;rotatable=0;points=[[0,0.5],[1,0.5]];portConstraint=eastwest;whiteSpace=wrap;html=1;" parent="6U9F9vJyRZBFyjSzrLCs-14" vertex="1">
          <mxGeometry y="190" width="140" height="30" as="geometry" />
        </mxCell>
        <mxCell id="6U9F9vJyRZBFyjSzrLCs-37" value="+ GetHashCode(): int" style="text;strokeColor=none;fillColor=none;align=left;verticalAlign=top;spacingLeft=4;spacingRight=4;overflow=hidden;rotatable=0;points=[[0,0.5],[1,0.5]];portConstraint=eastwest;whiteSpace=wrap;html=1;" parent="6U9F9vJyRZBFyjSzrLCs-14" vertex="1">
          <mxGeometry y="220" width="140" height="26" as="geometry" />
        </mxCell>
        <mxCell id="6U9F9vJyRZBFyjSzrLCs-20" value="UserLogin" style="swimlane;fontStyle=0;childLayout=stackLayout;horizontal=1;startSize=26;fillColor=none;horizontalStack=0;resizeParent=1;resizeParentMax=0;resizeLast=0;collapsible=1;marginBottom=0;whiteSpace=wrap;html=1;" parent="WIyWlLk6GJQsqaUBKTNV-1" vertex="1">
          <mxGeometry x="740" y="100" width="140" height="168" as="geometry" />
        </mxCell>
        <mxCell id="6U9F9vJyRZBFyjSzrLCs-21" value="+ UserId: int?" style="text;strokeColor=none;fillColor=none;align=left;verticalAlign=top;spacingLeft=4;spacingRight=4;overflow=hidden;rotatable=0;points=[[0,0.5],[1,0.5]];portConstraint=eastwest;whiteSpace=wrap;html=1;" parent="6U9F9vJyRZBFyjSzrLCs-20" vertex="1">
          <mxGeometry y="26" width="140" height="26" as="geometry" />
        </mxCell>
        <mxCell id="6U9F9vJyRZBFyjSzrLCs-22" value="+ Username: string" style="text;strokeColor=none;fillColor=none;align=left;verticalAlign=top;spacingLeft=4;spacingRight=4;overflow=hidden;rotatable=0;points=[[0,0.5],[1,0.5]];portConstraint=eastwest;whiteSpace=wrap;html=1;" parent="6U9F9vJyRZBFyjSzrLCs-20" vertex="1">
          <mxGeometry y="52" width="140" height="26" as="geometry" />
        </mxCell>
        <mxCell id="6U9F9vJyRZBFyjSzrLCs-23" value="+ Password: string" style="text;strokeColor=none;fillColor=none;align=left;verticalAlign=top;spacingLeft=4;spacingRight=4;overflow=hidden;rotatable=0;points=[[0,0.5],[1,0.5]];portConstraint=eastwest;whiteSpace=wrap;html=1;" parent="6U9F9vJyRZBFyjSzrLCs-20" vertex="1">
          <mxGeometry y="78" width="140" height="26" as="geometry" />
        </mxCell>
        <mxCell id="6U9F9vJyRZBFyjSzrLCs-27" value="" style="line;strokeWidth=1;fillColor=none;align=left;verticalAlign=middle;spacingTop=-1;spacingLeft=3;spacingRight=3;rotatable=0;labelPosition=right;points=[];portConstraint=eastwest;strokeColor=inherit;" parent="6U9F9vJyRZBFyjSzrLCs-20" vertex="1">
          <mxGeometry y="104" width="140" height="8" as="geometry" />
        </mxCell>
        <mxCell id="6U9F9vJyRZBFyjSzrLCs-35" value="+ Equals(object?): bool" style="text;strokeColor=none;fillColor=none;align=left;verticalAlign=top;spacingLeft=4;spacingRight=4;overflow=hidden;rotatable=0;points=[[0,0.5],[1,0.5]];portConstraint=eastwest;whiteSpace=wrap;html=1;" parent="6U9F9vJyRZBFyjSzrLCs-20" vertex="1">
          <mxGeometry y="112" width="140" height="30" as="geometry" />
        </mxCell>
        <mxCell id="6U9F9vJyRZBFyjSzrLCs-38" value="+ GetHashCode(): int" style="text;strokeColor=none;fillColor=none;align=left;verticalAlign=top;spacingLeft=4;spacingRight=4;overflow=hidden;rotatable=0;points=[[0,0.5],[1,0.5]];portConstraint=eastwest;whiteSpace=wrap;html=1;" parent="6U9F9vJyRZBFyjSzrLCs-20" vertex="1">
          <mxGeometry y="142" width="140" height="26" as="geometry" />
        </mxCell>
        <mxCell id="6U9F9vJyRZBFyjSzrLCs-41" value="&amp;lt;interface&amp;gt;&lt;br&gt;IUserService" style="swimlane;fontStyle=0;childLayout=stackLayout;horizontal=1;startSize=26;fillColor=none;horizontalStack=0;resizeParent=1;resizeParentMax=0;resizeLast=0;collapsible=1;marginBottom=0;whiteSpace=wrap;html=1;" parent="WIyWlLk6GJQsqaUBKTNV-1" vertex="1">
          <mxGeometry x="-190" y="-460" width="270" height="50" as="geometry" />
        </mxCell>
        <mxCell id="6U9F9vJyRZBFyjSzrLCs-42" value="+ GetUserByUserName(User user): Task&amp;lt;User&amp;gt;" style="text;strokeColor=none;fillColor=none;align=left;verticalAlign=top;spacingLeft=4;spacingRight=4;overflow=hidden;rotatable=0;points=[[0,0.5],[1,0.5]];portConstraint=eastwest;whiteSpace=wrap;html=1;" parent="6U9F9vJyRZBFyjSzrLCs-41" vertex="1">
          <mxGeometry y="26" width="270" height="24" as="geometry" />
        </mxCell>
        <mxCell id="6U9F9vJyRZBFyjSzrLCs-45" value="&amp;lt;interface&amp;gt;&lt;br&gt;ILoginService" style="swimlane;fontStyle=0;childLayout=stackLayout;horizontal=1;startSize=26;fillColor=none;horizontalStack=0;resizeParent=1;resizeParentMax=0;resizeLast=0;collapsible=1;marginBottom=0;whiteSpace=wrap;html=1;" parent="WIyWlLk6GJQsqaUBKTNV-1" vertex="1">
          <mxGeometry x="-240" y="520" width="260" height="76" as="geometry" />
        </mxCell>
        <mxCell id="6U9F9vJyRZBFyjSzrLCs-46" value="+ GetUserLogin(UserLogin): Task&amp;lt;UserLogin&amp;gt;" style="text;strokeColor=none;fillColor=none;align=left;verticalAlign=top;spacingLeft=4;spacingRight=4;overflow=hidden;rotatable=0;points=[[0,0.5],[1,0.5]];portConstraint=eastwest;whiteSpace=wrap;html=1;" parent="6U9F9vJyRZBFyjSzrLCs-45" vertex="1">
          <mxGeometry y="26" width="260" height="24" as="geometry" />
        </mxCell>
        <mxCell id="6U9F9vJyRZBFyjSzrLCs-51" value="+ CreateAccount(UserLogin): Task" style="text;strokeColor=none;fillColor=none;align=left;verticalAlign=top;spacingLeft=4;spacingRight=4;overflow=hidden;rotatable=0;points=[[0,0.5],[1,0.5]];portConstraint=eastwest;whiteSpace=wrap;html=1;" parent="6U9F9vJyRZBFyjSzrLCs-45" vertex="1">
          <mxGeometry y="50" width="260" height="26" as="geometry" />
        </mxCell>
        <mxCell id="6U9F9vJyRZBFyjSzrLCs-47" value="&amp;lt;interface&amp;gt;&lt;br&gt;INoteService" style="swimlane;fontStyle=0;childLayout=stackLayout;horizontal=1;startSize=26;fillColor=none;horizontalStack=0;resizeParent=1;resizeParentMax=0;resizeLast=0;collapsible=1;marginBottom=0;whiteSpace=wrap;html=1;" parent="WIyWlLk6GJQsqaUBKTNV-1" vertex="1">
          <mxGeometry x="3440" y="420" width="420" height="132" as="geometry" />
        </mxCell>
        <mxCell id="6U9F9vJyRZBFyjSzrLCs-48" value="+ Create(Note): Task" style="text;strokeColor=none;fillColor=none;align=left;verticalAlign=top;spacingLeft=4;spacingRight=4;overflow=hidden;rotatable=0;points=[[0,0.5],[1,0.5]];portConstraint=eastwest;whiteSpace=wrap;html=1;" parent="6U9F9vJyRZBFyjSzrLCs-47" vertex="1">
          <mxGeometry y="26" width="420" height="24" as="geometry" />
        </mxCell>
        <mxCell id="6U9F9vJyRZBFyjSzrLCs-52" value="+ GetNotesBySources(int): Task&amp;lt;IEnumerable&amp;lt;Note&amp;gt;&amp;gt;" style="text;strokeColor=none;fillColor=none;align=left;verticalAlign=top;spacingLeft=4;spacingRight=4;overflow=hidden;rotatable=0;points=[[0,0.5],[1,0.5]];portConstraint=eastwest;whiteSpace=wrap;html=1;" parent="6U9F9vJyRZBFyjSzrLCs-47" vertex="1">
          <mxGeometry y="50" width="420" height="30" as="geometry" />
        </mxCell>
        <mxCell id="6U9F9vJyRZBFyjSzrLCs-53" value="+ Delete(int): Task" style="text;strokeColor=none;fillColor=none;align=left;verticalAlign=top;spacingLeft=4;spacingRight=4;overflow=hidden;rotatable=0;points=[[0,0.5],[1,0.5]];portConstraint=eastwest;whiteSpace=wrap;html=1;" parent="6U9F9vJyRZBFyjSzrLCs-47" vertex="1">
          <mxGeometry y="80" width="420" height="26" as="geometry" />
        </mxCell>
        <mxCell id="yEtD45bgeHQn0VMYSDIb-28" value="+ GetNotesByUsername(string username): Task&amp;lt;IEnumerable&amp;lt;Note&amp;gt;&amp;gt;" style="text;strokeColor=none;fillColor=none;align=left;verticalAlign=top;spacingLeft=4;spacingRight=4;overflow=hidden;rotatable=0;points=[[0,0.5],[1,0.5]];portConstraint=eastwest;whiteSpace=wrap;html=1;" parent="6U9F9vJyRZBFyjSzrLCs-47" vertex="1">
          <mxGeometry y="106" width="420" height="26" as="geometry" />
        </mxCell>
        <mxCell id="6U9F9vJyRZBFyjSzrLCs-49" value="&amp;lt;interface&amp;gt;&lt;br&gt;ISourceService" style="swimlane;fontStyle=0;childLayout=stackLayout;horizontal=1;startSize=26;fillColor=none;horizontalStack=0;resizeParent=1;resizeParentMax=0;resizeLast=0;collapsible=1;marginBottom=0;whiteSpace=wrap;html=1;" parent="WIyWlLk6GJQsqaUBKTNV-1" vertex="1">
          <mxGeometry x="2450" y="1230" width="400" height="232" as="geometry" />
        </mxCell>
        <mxCell id="6U9F9vJyRZBFyjSzrLCs-50" value="+ GetSourcesByUsername(string): Task&amp;lt;IEnumerable&amp;lt;Source&amp;gt;&amp;gt;" style="text;strokeColor=none;fillColor=none;align=left;verticalAlign=top;spacingLeft=4;spacingRight=4;overflow=hidden;rotatable=0;points=[[0,0.5],[1,0.5]];portConstraint=eastwest;whiteSpace=wrap;html=1;" parent="6U9F9vJyRZBFyjSzrLCs-49" vertex="1">
          <mxGeometry y="26" width="400" height="24" as="geometry" />
        </mxCell>
        <mxCell id="6U9F9vJyRZBFyjSzrLCs-54" value="+ Create(Source source): Task" style="text;strokeColor=none;fillColor=none;align=left;verticalAlign=top;spacingLeft=4;spacingRight=4;overflow=hidden;rotatable=0;points=[[0,0.5],[1,0.5]];portConstraint=eastwest;whiteSpace=wrap;html=1;" parent="6U9F9vJyRZBFyjSzrLCs-49" vertex="1">
          <mxGeometry y="50" width="400" height="26" as="geometry" />
        </mxCell>
        <mxCell id="6U9F9vJyRZBFyjSzrLCs-55" value="+ GetById(int): Task&amp;lt;Source&amp;gt;" style="text;strokeColor=none;fillColor=none;align=left;verticalAlign=top;spacingLeft=4;spacingRight=4;overflow=hidden;rotatable=0;points=[[0,0.5],[1,0.5]];portConstraint=eastwest;whiteSpace=wrap;html=1;" parent="6U9F9vJyRZBFyjSzrLCs-49" vertex="1">
          <mxGeometry y="76" width="400" height="26" as="geometry" />
        </mxCell>
        <mxCell id="6U9F9vJyRZBFyjSzrLCs-56" value="+ Delete(int): Task" style="text;strokeColor=none;fillColor=none;align=left;verticalAlign=top;spacingLeft=4;spacingRight=4;overflow=hidden;rotatable=0;points=[[0,0.5],[1,0.5]];portConstraint=eastwest;whiteSpace=wrap;html=1;" parent="6U9F9vJyRZBFyjSzrLCs-49" vertex="1">
          <mxGeometry y="102" width="400" height="26" as="geometry" />
        </mxCell>
        <mxCell id="ZgPF7rxRNCcD46Vk-L9j-91" value="+ GetAllNotInProject(int): Task&amp;lt;IEnumerable&amp;lt;Source&amp;gt;&amp;gt;" style="text;strokeColor=none;fillColor=none;align=left;verticalAlign=top;spacingLeft=4;spacingRight=4;overflow=hidden;rotatable=0;points=[[0,0.5],[1,0.5]];portConstraint=eastwest;whiteSpace=wrap;html=1;" vertex="1" parent="6U9F9vJyRZBFyjSzrLCs-49">
          <mxGeometry y="128" width="400" height="26" as="geometry" />
        </mxCell>
        <mxCell id="ZgPF7rxRNCcD46Vk-L9j-92" value="+ GetAllSourcesInProject(int): Task&amp;lt;IEnumerable&amp;lt;Source&amp;gt;&amp;gt;" style="text;strokeColor=none;fillColor=none;align=left;verticalAlign=top;spacingLeft=4;spacingRight=4;overflow=hidden;rotatable=0;points=[[0,0.5],[1,0.5]];portConstraint=eastwest;whiteSpace=wrap;html=1;" vertex="1" parent="6U9F9vJyRZBFyjSzrLCs-49">
          <mxGeometry y="154" width="400" height="26" as="geometry" />
        </mxCell>
        <mxCell id="ZgPF7rxRNCcD46Vk-L9j-94" value="+ DeleteSourceFromProject(ProjectAndSources): Task" style="text;strokeColor=none;fillColor=none;align=left;verticalAlign=top;spacingLeft=4;spacingRight=4;overflow=hidden;rotatable=0;points=[[0,0.5],[1,0.5]];portConstraint=eastwest;whiteSpace=wrap;html=1;" vertex="1" parent="6U9F9vJyRZBFyjSzrLCs-49">
          <mxGeometry y="180" width="400" height="26" as="geometry" />
        </mxCell>
        <mxCell id="ZgPF7rxRNCcD46Vk-L9j-93" value="+ AddSourcesToProject(ProjectAndSources): Task" style="text;strokeColor=none;fillColor=none;align=left;verticalAlign=top;spacingLeft=4;spacingRight=4;overflow=hidden;rotatable=0;points=[[0,0.5],[1,0.5]];portConstraint=eastwest;whiteSpace=wrap;html=1;" vertex="1" parent="6U9F9vJyRZBFyjSzrLCs-49">
          <mxGeometry y="206" width="400" height="26" as="geometry" />
        </mxCell>
        <mxCell id="6U9F9vJyRZBFyjSzrLCs-57" value="UserService" style="swimlane;fontStyle=0;childLayout=stackLayout;horizontal=1;startSize=26;fillColor=none;horizontalStack=0;resizeParent=1;resizeParentMax=0;resizeLast=0;collapsible=1;marginBottom=0;whiteSpace=wrap;html=1;" parent="WIyWlLk6GJQsqaUBKTNV-1" vertex="1">
          <mxGeometry x="-190" y="-322" width="270" height="120" as="geometry" />
        </mxCell>
        <mxCell id="6U9F9vJyRZBFyjSzrLCs-59" value="+ UserService(IUserRepository)" style="text;strokeColor=none;fillColor=none;align=left;verticalAlign=top;spacingLeft=4;spacingRight=4;overflow=hidden;rotatable=0;points=[[0,0.5],[1,0.5]];portConstraint=eastwest;whiteSpace=wrap;html=1;" parent="6U9F9vJyRZBFyjSzrLCs-57" vertex="1">
          <mxGeometry y="26" width="270" height="26" as="geometry" />
        </mxCell>
        <mxCell id="6U9F9vJyRZBFyjSzrLCs-63" value="" style="line;strokeWidth=1;fillColor=none;align=left;verticalAlign=middle;spacingTop=-1;spacingLeft=3;spacingRight=3;rotatable=0;labelPosition=right;points=[];portConstraint=eastwest;strokeColor=inherit;" parent="6U9F9vJyRZBFyjSzrLCs-57" vertex="1">
          <mxGeometry y="52" width="270" height="8" as="geometry" />
        </mxCell>
        <mxCell id="6U9F9vJyRZBFyjSzrLCs-58" value="+ repository: IUserRepository" style="text;strokeColor=none;fillColor=none;align=left;verticalAlign=top;spacingLeft=4;spacingRight=4;overflow=hidden;rotatable=0;points=[[0,0.5],[1,0.5]];portConstraint=eastwest;whiteSpace=wrap;html=1;" parent="6U9F9vJyRZBFyjSzrLCs-57" vertex="1">
          <mxGeometry y="60" width="270" height="26" as="geometry" />
        </mxCell>
        <mxCell id="6U9F9vJyRZBFyjSzrLCs-64" value="+ GetUserByUserName(User user): Task&amp;lt;User&amp;gt;" style="text;strokeColor=none;fillColor=none;align=left;verticalAlign=top;spacingLeft=4;spacingRight=4;overflow=hidden;rotatable=0;points=[[0,0.5],[1,0.5]];portConstraint=eastwest;whiteSpace=wrap;html=1;" parent="6U9F9vJyRZBFyjSzrLCs-57" vertex="1">
          <mxGeometry y="86" width="270" height="34" as="geometry" />
        </mxCell>
        <mxCell id="6U9F9vJyRZBFyjSzrLCs-65" value="LoginService" style="swimlane;fontStyle=0;childLayout=stackLayout;horizontal=1;startSize=26;fillColor=none;horizontalStack=0;resizeParent=1;resizeParentMax=0;resizeLast=0;collapsible=1;marginBottom=0;whiteSpace=wrap;html=1;" parent="WIyWlLk6GJQsqaUBKTNV-1" vertex="1">
          <mxGeometry x="-240" y="240" width="305" height="164" as="geometry" />
        </mxCell>
        <mxCell id="6U9F9vJyRZBFyjSzrLCs-66" value="+ repository: ILoginRepository" style="text;strokeColor=none;fillColor=none;align=left;verticalAlign=top;spacingLeft=4;spacingRight=4;overflow=hidden;rotatable=0;points=[[0,0.5],[1,0.5]];portConstraint=eastwest;whiteSpace=wrap;html=1;" parent="6U9F9vJyRZBFyjSzrLCs-65" vertex="1">
          <mxGeometry y="26" width="305" height="26" as="geometry" />
        </mxCell>
        <mxCell id="6U9F9vJyRZBFyjSzrLCs-67" value="+ userRepository: IUserRepository" style="text;strokeColor=none;fillColor=none;align=left;verticalAlign=top;spacingLeft=4;spacingRight=4;overflow=hidden;rotatable=0;points=[[0,0.5],[1,0.5]];portConstraint=eastwest;whiteSpace=wrap;html=1;" parent="6U9F9vJyRZBFyjSzrLCs-65" vertex="1">
          <mxGeometry y="52" width="305" height="26" as="geometry" />
        </mxCell>
        <mxCell id="6U9F9vJyRZBFyjSzrLCs-69" value="" style="line;strokeWidth=1;fillColor=none;align=left;verticalAlign=middle;spacingTop=-1;spacingLeft=3;spacingRight=3;rotatable=0;labelPosition=right;points=[];portConstraint=eastwest;strokeColor=inherit;" parent="6U9F9vJyRZBFyjSzrLCs-65" vertex="1">
          <mxGeometry y="78" width="305" height="8" as="geometry" />
        </mxCell>
        <mxCell id="6U9F9vJyRZBFyjSzrLCs-68" value="+ LoginService(ILoginRepository,IUserRepository)" style="text;strokeColor=none;fillColor=none;align=left;verticalAlign=top;spacingLeft=4;spacingRight=4;overflow=hidden;rotatable=0;points=[[0,0.5],[1,0.5]];portConstraint=eastwest;whiteSpace=wrap;html=1;" parent="6U9F9vJyRZBFyjSzrLCs-65" vertex="1">
          <mxGeometry y="86" width="305" height="26" as="geometry" />
        </mxCell>
        <mxCell id="6U9F9vJyRZBFyjSzrLCs-70" value="+ GetUserLogin(UserLogin): Task&amp;lt;UserLogin&amp;gt;" style="text;strokeColor=none;fillColor=none;align=left;verticalAlign=top;spacingLeft=4;spacingRight=4;overflow=hidden;rotatable=0;points=[[0,0.5],[1,0.5]];portConstraint=eastwest;whiteSpace=wrap;html=1;" parent="6U9F9vJyRZBFyjSzrLCs-65" vertex="1">
          <mxGeometry y="112" width="305" height="26" as="geometry" />
        </mxCell>
        <mxCell id="6U9F9vJyRZBFyjSzrLCs-71" value="+ CreateAccount(UserLogin): Task" style="text;strokeColor=none;fillColor=none;align=left;verticalAlign=top;spacingLeft=4;spacingRight=4;overflow=hidden;rotatable=0;points=[[0,0.5],[1,0.5]];portConstraint=eastwest;whiteSpace=wrap;html=1;" parent="6U9F9vJyRZBFyjSzrLCs-65" vertex="1">
          <mxGeometry y="138" width="305" height="26" as="geometry" />
        </mxCell>
        <mxCell id="6U9F9vJyRZBFyjSzrLCs-73" value="NoteService" style="swimlane;fontStyle=0;childLayout=stackLayout;horizontal=1;startSize=26;fillColor=none;horizontalStack=0;resizeParent=1;resizeParentMax=0;resizeLast=0;collapsible=1;marginBottom=0;whiteSpace=wrap;html=1;" parent="WIyWlLk6GJQsqaUBKTNV-1" vertex="1">
          <mxGeometry x="3460" y="741" width="410" height="218" as="geometry" />
        </mxCell>
        <mxCell id="9L9Go_cO9j4hxyI1K6ot-36" value="+ tagRepository: ITagRespository" style="text;strokeColor=none;fillColor=none;align=left;verticalAlign=top;spacingLeft=4;spacingRight=4;overflow=hidden;rotatable=0;points=[[0,0.5],[1,0.5]];portConstraint=eastwest;whiteSpace=wrap;html=1;" parent="6U9F9vJyRZBFyjSzrLCs-73" vertex="1">
          <mxGeometry y="26" width="410" height="26" as="geometry" />
        </mxCell>
        <mxCell id="6U9F9vJyRZBFyjSzrLCs-74" value="+ repository: INoteRepository" style="text;strokeColor=none;fillColor=none;align=left;verticalAlign=top;spacingLeft=4;spacingRight=4;overflow=hidden;rotatable=0;points=[[0,0.5],[1,0.5]];portConstraint=eastwest;whiteSpace=wrap;html=1;" parent="6U9F9vJyRZBFyjSzrLCs-73" vertex="1">
          <mxGeometry y="52" width="410" height="26" as="geometry" />
        </mxCell>
        <mxCell id="6U9F9vJyRZBFyjSzrLCs-77" value="" style="line;strokeWidth=1;fillColor=none;align=left;verticalAlign=middle;spacingTop=-1;spacingLeft=3;spacingRight=3;rotatable=0;labelPosition=right;points=[];portConstraint=eastwest;strokeColor=inherit;" parent="6U9F9vJyRZBFyjSzrLCs-73" vertex="1">
          <mxGeometry y="78" width="410" height="8" as="geometry" />
        </mxCell>
        <mxCell id="6U9F9vJyRZBFyjSzrLCs-75" value="+ NoteService(INoteRepository)" style="text;strokeColor=none;fillColor=none;align=left;verticalAlign=top;spacingLeft=4;spacingRight=4;overflow=hidden;rotatable=0;points=[[0,0.5],[1,0.5]];portConstraint=eastwest;whiteSpace=wrap;html=1;" parent="6U9F9vJyRZBFyjSzrLCs-73" vertex="1">
          <mxGeometry y="86" width="410" height="26" as="geometry" />
        </mxCell>
        <mxCell id="6U9F9vJyRZBFyjSzrLCs-78" value="+ Create(Note): Task" style="text;strokeColor=none;fillColor=none;align=left;verticalAlign=top;spacingLeft=4;spacingRight=4;overflow=hidden;rotatable=0;points=[[0,0.5],[1,0.5]];portConstraint=eastwest;whiteSpace=wrap;html=1;" parent="6U9F9vJyRZBFyjSzrLCs-73" vertex="1">
          <mxGeometry y="112" width="410" height="24" as="geometry" />
        </mxCell>
        <mxCell id="6U9F9vJyRZBFyjSzrLCs-79" value="+ GetNotesBySources(int): Task&amp;lt;IEnumerable&amp;lt;Note&amp;gt;&amp;gt;" style="text;strokeColor=none;fillColor=none;align=left;verticalAlign=top;spacingLeft=4;spacingRight=4;overflow=hidden;rotatable=0;points=[[0,0.5],[1,0.5]];portConstraint=eastwest;whiteSpace=wrap;html=1;" parent="6U9F9vJyRZBFyjSzrLCs-73" vertex="1">
          <mxGeometry y="136" width="410" height="30" as="geometry" />
        </mxCell>
        <mxCell id="yEtD45bgeHQn0VMYSDIb-27" value="+ Delete(int): Task" style="text;strokeColor=none;fillColor=none;align=left;verticalAlign=top;spacingLeft=4;spacingRight=4;overflow=hidden;rotatable=0;points=[[0,0.5],[1,0.5]];portConstraint=eastwest;whiteSpace=wrap;html=1;" parent="6U9F9vJyRZBFyjSzrLCs-73" vertex="1">
          <mxGeometry y="166" width="410" height="26" as="geometry" />
        </mxCell>
        <mxCell id="6U9F9vJyRZBFyjSzrLCs-80" value="+ GetNotesByUsername(string username): Task&amp;lt;IEnumerable&amp;lt;Note&amp;gt;&amp;gt;" style="text;strokeColor=none;fillColor=none;align=left;verticalAlign=top;spacingLeft=4;spacingRight=4;overflow=hidden;rotatable=0;points=[[0,0.5],[1,0.5]];portConstraint=eastwest;whiteSpace=wrap;html=1;" parent="6U9F9vJyRZBFyjSzrLCs-73" vertex="1">
          <mxGeometry y="192" width="410" height="26" as="geometry" />
        </mxCell>
        <mxCell id="6U9F9vJyRZBFyjSzrLCs-82" value="SourceService" style="swimlane;fontStyle=0;childLayout=stackLayout;horizontal=1;startSize=26;fillColor=none;horizontalStack=0;resizeParent=1;resizeParentMax=0;resizeLast=0;collapsible=1;marginBottom=0;whiteSpace=wrap;html=1;" parent="WIyWlLk6GJQsqaUBKTNV-1" vertex="1">
          <mxGeometry x="2050" y="1210" width="320" height="292" as="geometry" />
        </mxCell>
        <mxCell id="6U9F9vJyRZBFyjSzrLCs-83" value="+ repository: ISourceRepository" style="text;strokeColor=none;fillColor=none;align=left;verticalAlign=top;spacingLeft=4;spacingRight=4;overflow=hidden;rotatable=0;points=[[0,0.5],[1,0.5]];portConstraint=eastwest;whiteSpace=wrap;html=1;" parent="6U9F9vJyRZBFyjSzrLCs-82" vertex="1">
          <mxGeometry y="26" width="320" height="26" as="geometry" />
        </mxCell>
        <mxCell id="6U9F9vJyRZBFyjSzrLCs-86" value="" style="line;strokeWidth=1;fillColor=none;align=left;verticalAlign=middle;spacingTop=-1;spacingLeft=3;spacingRight=3;rotatable=0;labelPosition=right;points=[];portConstraint=eastwest;strokeColor=inherit;" parent="6U9F9vJyRZBFyjSzrLCs-82" vertex="1">
          <mxGeometry y="52" width="320" height="8" as="geometry" />
        </mxCell>
        <mxCell id="6U9F9vJyRZBFyjSzrLCs-84" value="+ SourceService(ISourceRepository)" style="text;strokeColor=none;fillColor=none;align=left;verticalAlign=top;spacingLeft=4;spacingRight=4;overflow=hidden;rotatable=0;points=[[0,0.5],[1,0.5]];portConstraint=eastwest;whiteSpace=wrap;html=1;" parent="6U9F9vJyRZBFyjSzrLCs-82" vertex="1">
          <mxGeometry y="60" width="320" height="26" as="geometry" />
        </mxCell>
        <mxCell id="6U9F9vJyRZBFyjSzrLCs-87" value="+ GetSourceByUsername(string): Task&amp;lt;User&amp;gt;" style="text;strokeColor=none;fillColor=none;align=left;verticalAlign=top;spacingLeft=4;spacingRight=4;overflow=hidden;rotatable=0;points=[[0,0.5],[1,0.5]];portConstraint=eastwest;whiteSpace=wrap;html=1;" parent="6U9F9vJyRZBFyjSzrLCs-82" vertex="1">
          <mxGeometry y="86" width="320" height="24" as="geometry" />
        </mxCell>
        <mxCell id="6U9F9vJyRZBFyjSzrLCs-88" value="+ Create(Source source): Task" style="text;strokeColor=none;fillColor=none;align=left;verticalAlign=top;spacingLeft=4;spacingRight=4;overflow=hidden;rotatable=0;points=[[0,0.5],[1,0.5]];portConstraint=eastwest;whiteSpace=wrap;html=1;" parent="6U9F9vJyRZBFyjSzrLCs-82" vertex="1">
          <mxGeometry y="110" width="320" height="26" as="geometry" />
        </mxCell>
        <mxCell id="6U9F9vJyRZBFyjSzrLCs-89" value="+ GetById(int): Task&amp;lt;Source&amp;gt;" style="text;strokeColor=none;fillColor=none;align=left;verticalAlign=top;spacingLeft=4;spacingRight=4;overflow=hidden;rotatable=0;points=[[0,0.5],[1,0.5]];portConstraint=eastwest;whiteSpace=wrap;html=1;" parent="6U9F9vJyRZBFyjSzrLCs-82" vertex="1">
          <mxGeometry y="136" width="320" height="26" as="geometry" />
        </mxCell>
        <mxCell id="6U9F9vJyRZBFyjSzrLCs-90" value="+ Delete(int): Task" style="text;strokeColor=none;fillColor=none;align=left;verticalAlign=top;spacingLeft=4;spacingRight=4;overflow=hidden;rotatable=0;points=[[0,0.5],[1,0.5]];portConstraint=eastwest;whiteSpace=wrap;html=1;" parent="6U9F9vJyRZBFyjSzrLCs-82" vertex="1">
          <mxGeometry y="162" width="320" height="26" as="geometry" />
        </mxCell>
        <mxCell id="ZgPF7rxRNCcD46Vk-L9j-96" value="+ GetAllNotInProject(int): Task&amp;lt;IEnumerable&amp;lt;Source&amp;gt;&amp;gt;" style="text;strokeColor=none;fillColor=none;align=left;verticalAlign=top;spacingLeft=4;spacingRight=4;overflow=hidden;rotatable=0;points=[[0,0.5],[1,0.5]];portConstraint=eastwest;whiteSpace=wrap;html=1;" vertex="1" parent="6U9F9vJyRZBFyjSzrLCs-82">
          <mxGeometry y="188" width="320" height="26" as="geometry" />
        </mxCell>
        <mxCell id="ZgPF7rxRNCcD46Vk-L9j-97" value="+ GetAllSourcesInProject(int): Task&amp;lt;IEnumerable&amp;lt;Source&amp;gt;&amp;gt;" style="text;strokeColor=none;fillColor=none;align=left;verticalAlign=top;spacingLeft=4;spacingRight=4;overflow=hidden;rotatable=0;points=[[0,0.5],[1,0.5]];portConstraint=eastwest;whiteSpace=wrap;html=1;" vertex="1" parent="6U9F9vJyRZBFyjSzrLCs-82">
          <mxGeometry y="214" width="320" height="26" as="geometry" />
        </mxCell>
        <mxCell id="ZgPF7rxRNCcD46Vk-L9j-98" value="+ DeleteSourceFromProject(ProjectAndSources): Task" style="text;strokeColor=none;fillColor=none;align=left;verticalAlign=top;spacingLeft=4;spacingRight=4;overflow=hidden;rotatable=0;points=[[0,0.5],[1,0.5]];portConstraint=eastwest;whiteSpace=wrap;html=1;" vertex="1" parent="6U9F9vJyRZBFyjSzrLCs-82">
          <mxGeometry y="240" width="320" height="26" as="geometry" />
        </mxCell>
        <mxCell id="ZgPF7rxRNCcD46Vk-L9j-99" value="+ AddSourcesToProject(ProjectAndSources): Task" style="text;strokeColor=none;fillColor=none;align=left;verticalAlign=top;spacingLeft=4;spacingRight=4;overflow=hidden;rotatable=0;points=[[0,0.5],[1,0.5]];portConstraint=eastwest;whiteSpace=wrap;html=1;" vertex="1" parent="6U9F9vJyRZBFyjSzrLCs-82">
          <mxGeometry y="266" width="320" height="26" as="geometry" />
        </mxCell>
        <mxCell id="6U9F9vJyRZBFyjSzrLCs-92" value="&amp;lt;interface&amp;gt;&lt;br&gt;ILoginRepository" style="swimlane;fontStyle=1;align=center;verticalAlign=top;childLayout=stackLayout;horizontal=1;startSize=40;horizontalStack=0;resizeParent=1;resizeParentMax=0;resizeLast=0;collapsible=1;marginBottom=0;whiteSpace=wrap;html=1;" parent="WIyWlLk6GJQsqaUBKTNV-1" vertex="1">
          <mxGeometry x="-670" y="506" width="300" height="90" as="geometry" />
        </mxCell>
        <mxCell id="6U9F9vJyRZBFyjSzrLCs-98" value="+ GetUserLogin(UserLogin): Task&amp;lt;UserLogin&amp;gt;" style="text;strokeColor=none;fillColor=none;align=left;verticalAlign=top;spacingLeft=4;spacingRight=4;overflow=hidden;rotatable=0;points=[[0,0.5],[1,0.5]];portConstraint=eastwest;whiteSpace=wrap;html=1;" parent="6U9F9vJyRZBFyjSzrLCs-92" vertex="1">
          <mxGeometry y="40" width="300" height="24" as="geometry" />
        </mxCell>
        <mxCell id="6U9F9vJyRZBFyjSzrLCs-97" value="+ CreateAccount(UserLogin): Task" style="text;strokeColor=none;fillColor=none;align=left;verticalAlign=top;spacingLeft=4;spacingRight=4;overflow=hidden;rotatable=0;points=[[0,0.5],[1,0.5]];portConstraint=eastwest;whiteSpace=wrap;html=1;" parent="6U9F9vJyRZBFyjSzrLCs-92" vertex="1">
          <mxGeometry y="64" width="300" height="26" as="geometry" />
        </mxCell>
        <mxCell id="6U9F9vJyRZBFyjSzrLCs-99" value="&amp;lt;interface&amp;gt; &lt;br&gt;IUserRepository" style="swimlane;fontStyle=1;align=center;verticalAlign=top;childLayout=stackLayout;horizontal=1;startSize=40;horizontalStack=0;resizeParent=1;resizeParentMax=0;resizeLast=0;collapsible=1;marginBottom=0;whiteSpace=wrap;html=1;" parent="WIyWlLk6GJQsqaUBKTNV-1" vertex="1">
          <mxGeometry x="-690" y="-480" width="380" height="90" as="geometry">
            <mxRectangle x="670" y="1290" width="130" height="40" as="alternateBounds" />
          </mxGeometry>
        </mxCell>
        <mxCell id="6U9F9vJyRZBFyjSzrLCs-100" value="+ GetUserLogin(UserLogin): Task&amp;lt;UserLogin&amp;gt;" style="text;strokeColor=none;fillColor=none;align=left;verticalAlign=top;spacingLeft=4;spacingRight=4;overflow=hidden;rotatable=0;points=[[0,0.5],[1,0.5]];portConstraint=eastwest;whiteSpace=wrap;html=1;" parent="6U9F9vJyRZBFyjSzrLCs-99" vertex="1">
          <mxGeometry y="40" width="380" height="24" as="geometry" />
        </mxCell>
        <mxCell id="6U9F9vJyRZBFyjSzrLCs-101" value="+ CreateAccount(UserLogin): Task" style="text;strokeColor=none;fillColor=none;align=left;verticalAlign=top;spacingLeft=4;spacingRight=4;overflow=hidden;rotatable=0;points=[[0,0.5],[1,0.5]];portConstraint=eastwest;whiteSpace=wrap;html=1;" parent="6U9F9vJyRZBFyjSzrLCs-99" vertex="1">
          <mxGeometry y="64" width="380" height="26" as="geometry" />
        </mxCell>
        <mxCell id="6U9F9vJyRZBFyjSzrLCs-102" value="&amp;lt;interface&amp;gt;&lt;br&gt;INoteRepository" style="swimlane;fontStyle=1;align=center;verticalAlign=top;childLayout=stackLayout;horizontal=1;startSize=40;horizontalStack=0;resizeParent=1;resizeParentMax=0;resizeLast=0;collapsible=1;marginBottom=0;whiteSpace=wrap;html=1;" parent="WIyWlLk6GJQsqaUBKTNV-1" vertex="1">
          <mxGeometry x="3430" y="-10" width="391" height="146" as="geometry" />
        </mxCell>
        <mxCell id="6U9F9vJyRZBFyjSzrLCs-106" value="+ Create(Note): Task" style="text;strokeColor=none;fillColor=none;align=left;verticalAlign=top;spacingLeft=4;spacingRight=4;overflow=hidden;rotatable=0;points=[[0,0.5],[1,0.5]];portConstraint=eastwest;whiteSpace=wrap;html=1;" parent="6U9F9vJyRZBFyjSzrLCs-102" vertex="1">
          <mxGeometry y="40" width="391" height="24" as="geometry" />
        </mxCell>
        <mxCell id="6U9F9vJyRZBFyjSzrLCs-107" value="+ Delete(int): Task" style="text;strokeColor=none;fillColor=none;align=left;verticalAlign=top;spacingLeft=4;spacingRight=4;overflow=hidden;rotatable=0;points=[[0,0.5],[1,0.5]];portConstraint=eastwest;whiteSpace=wrap;html=1;" parent="6U9F9vJyRZBFyjSzrLCs-102" vertex="1">
          <mxGeometry y="64" width="391" height="26" as="geometry" />
        </mxCell>
        <mxCell id="yEtD45bgeHQn0VMYSDIb-30" value="+ GetNotesByUsername(string username): Task&amp;lt;IEnumerable&amp;lt;Note&amp;gt;&amp;gt;" style="text;strokeColor=none;fillColor=none;align=left;verticalAlign=top;spacingLeft=4;spacingRight=4;overflow=hidden;rotatable=0;points=[[0,0.5],[1,0.5]];portConstraint=eastwest;whiteSpace=wrap;html=1;" parent="6U9F9vJyRZBFyjSzrLCs-102" vertex="1">
          <mxGeometry y="90" width="391" height="26" as="geometry" />
        </mxCell>
        <mxCell id="6U9F9vJyRZBFyjSzrLCs-105" value="+ GetNotesBySources(int): Task&amp;lt;IEnumerable&amp;lt;Note&amp;gt;&amp;gt;" style="text;strokeColor=none;fillColor=none;align=left;verticalAlign=top;spacingLeft=4;spacingRight=4;overflow=hidden;rotatable=0;points=[[0,0.5],[1,0.5]];portConstraint=eastwest;whiteSpace=wrap;html=1;" parent="6U9F9vJyRZBFyjSzrLCs-102" vertex="1">
          <mxGeometry y="116" width="391" height="30" as="geometry" />
        </mxCell>
        <mxCell id="6U9F9vJyRZBFyjSzrLCs-108" value="&amp;lt;interface&amp;gt;&lt;br&gt;ISourceRepository" style="swimlane;fontStyle=1;align=center;verticalAlign=top;childLayout=stackLayout;horizontal=1;startSize=40;horizontalStack=0;resizeParent=1;resizeParentMax=0;resizeLast=0;collapsible=1;marginBottom=0;whiteSpace=wrap;html=1;" parent="WIyWlLk6GJQsqaUBKTNV-1" vertex="1">
          <mxGeometry x="740" y="1210" width="470" height="246" as="geometry" />
        </mxCell>
        <mxCell id="6U9F9vJyRZBFyjSzrLCs-112" value="+ GetSourcesByUsername(string): Task&amp;lt;IEnumerable&amp;lt;Source&amp;gt;&amp;gt;" style="text;strokeColor=none;fillColor=none;align=left;verticalAlign=top;spacingLeft=4;spacingRight=4;overflow=hidden;rotatable=0;points=[[0,0.5],[1,0.5]];portConstraint=eastwest;whiteSpace=wrap;html=1;" parent="6U9F9vJyRZBFyjSzrLCs-108" vertex="1">
          <mxGeometry y="40" width="470" height="24" as="geometry" />
        </mxCell>
        <mxCell id="6U9F9vJyRZBFyjSzrLCs-113" value="+ Create(Source source): Task" style="text;strokeColor=none;fillColor=none;align=left;verticalAlign=top;spacingLeft=4;spacingRight=4;overflow=hidden;rotatable=0;points=[[0,0.5],[1,0.5]];portConstraint=eastwest;whiteSpace=wrap;html=1;" parent="6U9F9vJyRZBFyjSzrLCs-108" vertex="1">
          <mxGeometry y="64" width="470" height="26" as="geometry" />
        </mxCell>
        <mxCell id="6U9F9vJyRZBFyjSzrLCs-114" value="+ GetById(int): Task&amp;lt;Source&amp;gt;" style="text;strokeColor=none;fillColor=none;align=left;verticalAlign=top;spacingLeft=4;spacingRight=4;overflow=hidden;rotatable=0;points=[[0,0.5],[1,0.5]];portConstraint=eastwest;whiteSpace=wrap;html=1;" parent="6U9F9vJyRZBFyjSzrLCs-108" vertex="1">
          <mxGeometry y="90" width="470" height="26" as="geometry" />
        </mxCell>
        <mxCell id="6U9F9vJyRZBFyjSzrLCs-115" value="+ Delete(int): Task" style="text;strokeColor=none;fillColor=none;align=left;verticalAlign=top;spacingLeft=4;spacingRight=4;overflow=hidden;rotatable=0;points=[[0,0.5],[1,0.5]];portConstraint=eastwest;whiteSpace=wrap;html=1;" parent="6U9F9vJyRZBFyjSzrLCs-108" vertex="1">
          <mxGeometry y="116" width="470" height="26" as="geometry" />
        </mxCell>
        <mxCell id="ZgPF7rxRNCcD46Vk-L9j-100" value="+ GetAllNotInProject(int): Task&amp;lt;IEnumerable&amp;lt;Source&amp;gt;&amp;gt;" style="text;strokeColor=none;fillColor=none;align=left;verticalAlign=top;spacingLeft=4;spacingRight=4;overflow=hidden;rotatable=0;points=[[0,0.5],[1,0.5]];portConstraint=eastwest;whiteSpace=wrap;html=1;" vertex="1" parent="6U9F9vJyRZBFyjSzrLCs-108">
          <mxGeometry y="142" width="470" height="26" as="geometry" />
        </mxCell>
        <mxCell id="ZgPF7rxRNCcD46Vk-L9j-101" value="+ GetAllSourcesInProject(int): Task&amp;lt;IEnumerable&amp;lt;Source&amp;gt;&amp;gt;" style="text;strokeColor=none;fillColor=none;align=left;verticalAlign=top;spacingLeft=4;spacingRight=4;overflow=hidden;rotatable=0;points=[[0,0.5],[1,0.5]];portConstraint=eastwest;whiteSpace=wrap;html=1;" vertex="1" parent="6U9F9vJyRZBFyjSzrLCs-108">
          <mxGeometry y="168" width="470" height="26" as="geometry" />
        </mxCell>
        <mxCell id="ZgPF7rxRNCcD46Vk-L9j-102" value="+ DeleteSourceFromProject(int sourceId,int projectId ): Task" style="text;strokeColor=none;fillColor=none;align=left;verticalAlign=top;spacingLeft=4;spacingRight=4;overflow=hidden;rotatable=0;points=[[0,0.5],[1,0.5]];portConstraint=eastwest;whiteSpace=wrap;html=1;" vertex="1" parent="6U9F9vJyRZBFyjSzrLCs-108">
          <mxGeometry y="194" width="470" height="26" as="geometry" />
        </mxCell>
        <mxCell id="ZgPF7rxRNCcD46Vk-L9j-103" value="+ AddSourcesToProject(int sourceId,int projectId): Task" style="text;strokeColor=none;fillColor=none;align=left;verticalAlign=top;spacingLeft=4;spacingRight=4;overflow=hidden;rotatable=0;points=[[0,0.5],[1,0.5]];portConstraint=eastwest;whiteSpace=wrap;html=1;" vertex="1" parent="6U9F9vJyRZBFyjSzrLCs-108">
          <mxGeometry y="220" width="470" height="26" as="geometry" />
        </mxCell>
        <mxCell id="6U9F9vJyRZBFyjSzrLCs-116" value="SourceRepository" style="swimlane;fontStyle=0;childLayout=stackLayout;horizontal=1;startSize=26;fillColor=none;horizontalStack=0;resizeParent=1;resizeParentMax=0;resizeLast=0;collapsible=1;marginBottom=0;whiteSpace=wrap;html=1;" parent="WIyWlLk6GJQsqaUBKTNV-1" vertex="1">
          <mxGeometry x="1380" y="1200" width="360" height="188" as="geometry" />
        </mxCell>
        <mxCell id="6U9F9vJyRZBFyjSzrLCs-117" value="+ context: DBContext" style="text;strokeColor=none;fillColor=none;align=left;verticalAlign=top;spacingLeft=4;spacingRight=4;overflow=hidden;rotatable=0;points=[[0,0.5],[1,0.5]];portConstraint=eastwest;whiteSpace=wrap;html=1;" parent="6U9F9vJyRZBFyjSzrLCs-116" vertex="1">
          <mxGeometry y="26" width="360" height="26" as="geometry" />
        </mxCell>
        <mxCell id="6U9F9vJyRZBFyjSzrLCs-118" value="" style="line;strokeWidth=1;fillColor=none;align=left;verticalAlign=middle;spacingTop=-1;spacingLeft=3;spacingRight=3;rotatable=0;labelPosition=right;points=[];portConstraint=eastwest;strokeColor=inherit;" parent="6U9F9vJyRZBFyjSzrLCs-116" vertex="1">
          <mxGeometry y="52" width="360" height="8" as="geometry" />
        </mxCell>
        <mxCell id="6U9F9vJyRZBFyjSzrLCs-119" value="+ SourceRepository(DBContext)" style="text;strokeColor=none;fillColor=none;align=left;verticalAlign=top;spacingLeft=4;spacingRight=4;overflow=hidden;rotatable=0;points=[[0,0.5],[1,0.5]];portConstraint=eastwest;whiteSpace=wrap;html=1;" parent="6U9F9vJyRZBFyjSzrLCs-116" vertex="1">
          <mxGeometry y="60" width="360" height="26" as="geometry" />
        </mxCell>
        <mxCell id="6U9F9vJyRZBFyjSzrLCs-120" value="+ GetSourcesByUsername(string): Task&amp;lt;IEnumerable&amp;lt;Source&amp;gt;&amp;gt;" style="text;strokeColor=none;fillColor=none;align=left;verticalAlign=top;spacingLeft=4;spacingRight=4;overflow=hidden;rotatable=0;points=[[0,0.5],[1,0.5]];portConstraint=eastwest;whiteSpace=wrap;html=1;" parent="6U9F9vJyRZBFyjSzrLCs-116" vertex="1">
          <mxGeometry y="86" width="360" height="24" as="geometry" />
        </mxCell>
        <mxCell id="6U9F9vJyRZBFyjSzrLCs-121" value="+ Create(Source source): Task" style="text;strokeColor=none;fillColor=none;align=left;verticalAlign=top;spacingLeft=4;spacingRight=4;overflow=hidden;rotatable=0;points=[[0,0.5],[1,0.5]];portConstraint=eastwest;whiteSpace=wrap;html=1;" parent="6U9F9vJyRZBFyjSzrLCs-116" vertex="1">
          <mxGeometry y="110" width="360" height="26" as="geometry" />
        </mxCell>
        <mxCell id="6U9F9vJyRZBFyjSzrLCs-122" value="+ GetById(int): Task&amp;lt;Source&amp;gt;" style="text;strokeColor=none;fillColor=none;align=left;verticalAlign=top;spacingLeft=4;spacingRight=4;overflow=hidden;rotatable=0;points=[[0,0.5],[1,0.5]];portConstraint=eastwest;whiteSpace=wrap;html=1;" parent="6U9F9vJyRZBFyjSzrLCs-116" vertex="1">
          <mxGeometry y="136" width="360" height="26" as="geometry" />
        </mxCell>
        <mxCell id="6U9F9vJyRZBFyjSzrLCs-123" value="+ Delete(int): Task" style="text;strokeColor=none;fillColor=none;align=left;verticalAlign=top;spacingLeft=4;spacingRight=4;overflow=hidden;rotatable=0;points=[[0,0.5],[1,0.5]];portConstraint=eastwest;whiteSpace=wrap;html=1;" parent="6U9F9vJyRZBFyjSzrLCs-116" vertex="1">
          <mxGeometry y="162" width="360" height="26" as="geometry" />
        </mxCell>
        <mxCell id="6U9F9vJyRZBFyjSzrLCs-125" value="NoteRepository" style="swimlane;fontStyle=0;childLayout=stackLayout;horizontal=1;startSize=26;fillColor=none;horizontalStack=0;resizeParent=1;resizeParentMax=0;resizeLast=0;collapsible=1;marginBottom=0;whiteSpace=wrap;html=1;" parent="WIyWlLk6GJQsqaUBKTNV-1" vertex="1">
          <mxGeometry x="3431" y="-368" width="390" height="166" as="geometry" />
        </mxCell>
        <mxCell id="6U9F9vJyRZBFyjSzrLCs-126" value="+ context: DBContext" style="text;strokeColor=none;fillColor=none;align=left;verticalAlign=top;spacingLeft=4;spacingRight=4;overflow=hidden;rotatable=0;points=[[0,0.5],[1,0.5]];portConstraint=eastwest;whiteSpace=wrap;html=1;" parent="6U9F9vJyRZBFyjSzrLCs-125" vertex="1">
          <mxGeometry y="26" width="390" height="26" as="geometry" />
        </mxCell>
        <mxCell id="6U9F9vJyRZBFyjSzrLCs-127" value="" style="line;strokeWidth=1;fillColor=none;align=left;verticalAlign=middle;spacingTop=-1;spacingLeft=3;spacingRight=3;rotatable=0;labelPosition=right;points=[];portConstraint=eastwest;strokeColor=inherit;" parent="6U9F9vJyRZBFyjSzrLCs-125" vertex="1">
          <mxGeometry y="52" width="390" height="8" as="geometry" />
        </mxCell>
        <mxCell id="6U9F9vJyRZBFyjSzrLCs-133" value="+ Delete(int): Task" style="text;strokeColor=none;fillColor=none;align=left;verticalAlign=top;spacingLeft=4;spacingRight=4;overflow=hidden;rotatable=0;points=[[0,0.5],[1,0.5]];portConstraint=eastwest;whiteSpace=wrap;html=1;" parent="6U9F9vJyRZBFyjSzrLCs-125" vertex="1">
          <mxGeometry y="60" width="390" height="26" as="geometry" />
        </mxCell>
        <mxCell id="6U9F9vJyRZBFyjSzrLCs-134" value="+ Create(Note): Task" style="text;strokeColor=none;fillColor=none;align=left;verticalAlign=top;spacingLeft=4;spacingRight=4;overflow=hidden;rotatable=0;points=[[0,0.5],[1,0.5]];portConstraint=eastwest;whiteSpace=wrap;html=1;" parent="6U9F9vJyRZBFyjSzrLCs-125" vertex="1">
          <mxGeometry y="86" width="390" height="24" as="geometry" />
        </mxCell>
        <mxCell id="6U9F9vJyRZBFyjSzrLCs-135" value="+ GetNotesBySources(int): Task&amp;lt;IEnumerable&amp;lt;Note&amp;gt;&amp;gt;" style="text;strokeColor=none;fillColor=none;align=left;verticalAlign=top;spacingLeft=4;spacingRight=4;overflow=hidden;rotatable=0;points=[[0,0.5],[1,0.5]];portConstraint=eastwest;whiteSpace=wrap;html=1;" parent="6U9F9vJyRZBFyjSzrLCs-125" vertex="1">
          <mxGeometry y="110" width="390" height="30" as="geometry" />
        </mxCell>
        <mxCell id="yEtD45bgeHQn0VMYSDIb-72" value="+ GetNotesByUsername(string username): Task&amp;lt;IEnumerable&amp;lt;Note&amp;gt;&amp;gt;" style="text;strokeColor=none;fillColor=none;align=left;verticalAlign=top;spacingLeft=4;spacingRight=4;overflow=hidden;rotatable=0;points=[[0,0.5],[1,0.5]];portConstraint=eastwest;whiteSpace=wrap;html=1;" parent="6U9F9vJyRZBFyjSzrLCs-125" vertex="1">
          <mxGeometry y="140" width="390" height="26" as="geometry" />
        </mxCell>
        <mxCell id="6U9F9vJyRZBFyjSzrLCs-137" value="LoginRepository" style="swimlane;fontStyle=0;childLayout=stackLayout;horizontal=1;startSize=26;fillColor=none;horizontalStack=0;resizeParent=1;resizeParentMax=0;resizeLast=0;collapsible=1;marginBottom=0;whiteSpace=wrap;html=1;" parent="WIyWlLk6GJQsqaUBKTNV-1" vertex="1">
          <mxGeometry x="-710" y="240" width="360" height="110" as="geometry" />
        </mxCell>
        <mxCell id="6U9F9vJyRZBFyjSzrLCs-138" value="+ context: DBContext" style="text;strokeColor=none;fillColor=none;align=left;verticalAlign=top;spacingLeft=4;spacingRight=4;overflow=hidden;rotatable=0;points=[[0,0.5],[1,0.5]];portConstraint=eastwest;whiteSpace=wrap;html=1;" parent="6U9F9vJyRZBFyjSzrLCs-137" vertex="1">
          <mxGeometry y="26" width="360" height="26" as="geometry" />
        </mxCell>
        <mxCell id="6U9F9vJyRZBFyjSzrLCs-139" value="" style="line;strokeWidth=1;fillColor=none;align=left;verticalAlign=middle;spacingTop=-1;spacingLeft=3;spacingRight=3;rotatable=0;labelPosition=right;points=[];portConstraint=eastwest;strokeColor=inherit;" parent="6U9F9vJyRZBFyjSzrLCs-137" vertex="1">
          <mxGeometry y="52" width="360" height="8" as="geometry" />
        </mxCell>
        <mxCell id="6U9F9vJyRZBFyjSzrLCs-143" value="+ GetUserLogin(UserLogin): Task&amp;lt;UserLogin&amp;gt;" style="text;strokeColor=none;fillColor=none;align=left;verticalAlign=top;spacingLeft=4;spacingRight=4;overflow=hidden;rotatable=0;points=[[0,0.5],[1,0.5]];portConstraint=eastwest;whiteSpace=wrap;html=1;" parent="6U9F9vJyRZBFyjSzrLCs-137" vertex="1">
          <mxGeometry y="60" width="360" height="24" as="geometry" />
        </mxCell>
        <mxCell id="6U9F9vJyRZBFyjSzrLCs-144" value="+ CreateAccount(UserLogin): Task" style="text;strokeColor=none;fillColor=none;align=left;verticalAlign=top;spacingLeft=4;spacingRight=4;overflow=hidden;rotatable=0;points=[[0,0.5],[1,0.5]];portConstraint=eastwest;whiteSpace=wrap;html=1;" parent="6U9F9vJyRZBFyjSzrLCs-137" vertex="1">
          <mxGeometry y="84" width="360" height="26" as="geometry" />
        </mxCell>
        <mxCell id="6U9F9vJyRZBFyjSzrLCs-146" value="UserRepository" style="swimlane;fontStyle=0;childLayout=stackLayout;horizontal=1;startSize=26;fillColor=none;horizontalStack=0;resizeParent=1;resizeParentMax=0;resizeLast=0;collapsible=1;marginBottom=0;whiteSpace=wrap;html=1;" parent="WIyWlLk6GJQsqaUBKTNV-1" vertex="1">
          <mxGeometry x="-690" y="-317" width="360" height="110" as="geometry" />
        </mxCell>
        <mxCell id="6U9F9vJyRZBFyjSzrLCs-147" value="+ context: DBContext" style="text;strokeColor=none;fillColor=none;align=left;verticalAlign=top;spacingLeft=4;spacingRight=4;overflow=hidden;rotatable=0;points=[[0,0.5],[1,0.5]];portConstraint=eastwest;whiteSpace=wrap;html=1;" parent="6U9F9vJyRZBFyjSzrLCs-146" vertex="1">
          <mxGeometry y="26" width="360" height="26" as="geometry" />
        </mxCell>
        <mxCell id="6U9F9vJyRZBFyjSzrLCs-148" value="" style="line;strokeWidth=1;fillColor=none;align=left;verticalAlign=middle;spacingTop=-1;spacingLeft=3;spacingRight=3;rotatable=0;labelPosition=right;points=[];portConstraint=eastwest;strokeColor=inherit;" parent="6U9F9vJyRZBFyjSzrLCs-146" vertex="1">
          <mxGeometry y="52" width="360" height="8" as="geometry" />
        </mxCell>
        <mxCell id="6U9F9vJyRZBFyjSzrLCs-151" value="+ GetUserLogin(UserLogin): Task&amp;lt;UserLogin&amp;gt;" style="text;strokeColor=none;fillColor=none;align=left;verticalAlign=top;spacingLeft=4;spacingRight=4;overflow=hidden;rotatable=0;points=[[0,0.5],[1,0.5]];portConstraint=eastwest;whiteSpace=wrap;html=1;" parent="6U9F9vJyRZBFyjSzrLCs-146" vertex="1">
          <mxGeometry y="60" width="360" height="24" as="geometry" />
        </mxCell>
        <mxCell id="6U9F9vJyRZBFyjSzrLCs-152" value="+ CreateAccount(UserLogin): Task" style="text;strokeColor=none;fillColor=none;align=left;verticalAlign=top;spacingLeft=4;spacingRight=4;overflow=hidden;rotatable=0;points=[[0,0.5],[1,0.5]];portConstraint=eastwest;whiteSpace=wrap;html=1;" parent="6U9F9vJyRZBFyjSzrLCs-146" vertex="1">
          <mxGeometry y="84" width="360" height="26" as="geometry" />
        </mxCell>
        <mxCell id="6U9F9vJyRZBFyjSzrLCs-154" value="SourcesController" style="swimlane;fontStyle=0;childLayout=stackLayout;horizontal=1;startSize=26;fillColor=none;horizontalStack=0;resizeParent=1;resizeParentMax=0;resizeLast=0;collapsible=1;marginBottom=0;whiteSpace=wrap;html=1;" parent="WIyWlLk6GJQsqaUBKTNV-1" vertex="1">
          <mxGeometry x="1830" y="700" width="580" height="320" as="geometry" />
        </mxCell>
        <mxCell id="6U9F9vJyRZBFyjSzrLCs-155" value="+ _config: IConfiguration" style="text;strokeColor=none;fillColor=none;align=left;verticalAlign=top;spacingLeft=4;spacingRight=4;overflow=hidden;rotatable=0;points=[[0,0.5],[1,0.5]];portConstraint=eastwest;whiteSpace=wrap;html=1;" parent="6U9F9vJyRZBFyjSzrLCs-154" vertex="1">
          <mxGeometry y="26" width="580" height="26" as="geometry" />
        </mxCell>
        <mxCell id="6U9F9vJyRZBFyjSzrLCs-156" value="+ sourceService: ISourceService" style="text;strokeColor=none;fillColor=none;align=left;verticalAlign=top;spacingLeft=4;spacingRight=4;overflow=hidden;rotatable=0;points=[[0,0.5],[1,0.5]];portConstraint=eastwest;whiteSpace=wrap;html=1;" parent="6U9F9vJyRZBFyjSzrLCs-154" vertex="1">
          <mxGeometry y="52" width="580" height="26" as="geometry" />
        </mxCell>
        <mxCell id="6U9F9vJyRZBFyjSzrLCs-158" value="" style="line;strokeWidth=1;fillColor=none;align=left;verticalAlign=middle;spacingTop=-1;spacingLeft=3;spacingRight=3;rotatable=0;labelPosition=right;points=[];portConstraint=eastwest;strokeColor=inherit;" parent="6U9F9vJyRZBFyjSzrLCs-154" vertex="1">
          <mxGeometry y="78" width="580" height="8" as="geometry" />
        </mxCell>
        <mxCell id="6U9F9vJyRZBFyjSzrLCs-157" value="+ SourcesController(IConfiguration,ISourceService)&lt;br&gt;" style="text;strokeColor=none;fillColor=none;align=left;verticalAlign=top;spacingLeft=4;spacingRight=4;overflow=hidden;rotatable=0;points=[[0,0.5],[1,0.5]];portConstraint=eastwest;whiteSpace=wrap;html=1;" parent="6U9F9vJyRZBFyjSzrLCs-154" vertex="1">
          <mxGeometry y="86" width="580" height="26" as="geometry" />
        </mxCell>
        <mxCell id="6U9F9vJyRZBFyjSzrLCs-159" value="+ CreateSource(Source): Task&amp;lt;IActionResult&amp;gt;" style="text;strokeColor=none;fillColor=none;align=left;verticalAlign=top;spacingLeft=4;spacingRight=4;overflow=hidden;rotatable=0;points=[[0,0.5],[1,0.5]];portConstraint=eastwest;whiteSpace=wrap;html=1;" parent="6U9F9vJyRZBFyjSzrLCs-154" vertex="1">
          <mxGeometry y="112" width="580" height="26" as="geometry" />
        </mxCell>
        <mxCell id="6U9F9vJyRZBFyjSzrLCs-160" value="+ GetBySourceByUsername(string): &amp;nbsp;Task&amp;lt;IEnumerable&amp;lt;Source&amp;gt;&amp;gt;" style="text;strokeColor=none;fillColor=none;align=left;verticalAlign=top;spacingLeft=4;spacingRight=4;overflow=hidden;rotatable=0;points=[[0,0.5],[1,0.5]];portConstraint=eastwest;whiteSpace=wrap;html=1;" parent="6U9F9vJyRZBFyjSzrLCs-154" vertex="1">
          <mxGeometry y="138" width="580" height="26" as="geometry" />
        </mxCell>
        <mxCell id="6U9F9vJyRZBFyjSzrLCs-161" value="+ GetSourceById(id): Task&amp;lt;Source&amp;gt;" style="text;strokeColor=none;fillColor=none;align=left;verticalAlign=top;spacingLeft=4;spacingRight=4;overflow=hidden;rotatable=0;points=[[0,0.5],[1,0.5]];portConstraint=eastwest;whiteSpace=wrap;html=1;" parent="6U9F9vJyRZBFyjSzrLCs-154" vertex="1">
          <mxGeometry y="164" width="580" height="26" as="geometry" />
        </mxCell>
        <mxCell id="6U9F9vJyRZBFyjSzrLCs-162" value="+ DeleteById(id): Task" style="text;strokeColor=none;fillColor=none;align=left;verticalAlign=top;spacingLeft=4;spacingRight=4;overflow=hidden;rotatable=0;points=[[0,0.5],[1,0.5]];portConstraint=eastwest;whiteSpace=wrap;html=1;" parent="6U9F9vJyRZBFyjSzrLCs-154" vertex="1">
          <mxGeometry y="190" width="580" height="26" as="geometry" />
        </mxCell>
        <mxCell id="ZgPF7rxRNCcD46Vk-L9j-73" value="+ GetAllNotInProject(int): Task&amp;lt;IEnumerable&amp;lt;Source&amp;gt;&amp;gt;" style="text;strokeColor=none;fillColor=none;align=left;verticalAlign=top;spacingLeft=4;spacingRight=4;overflow=hidden;rotatable=0;points=[[0,0.5],[1,0.5]];portConstraint=eastwest;whiteSpace=wrap;html=1;" vertex="1" parent="6U9F9vJyRZBFyjSzrLCs-154">
          <mxGeometry y="216" width="580" height="26" as="geometry" />
        </mxCell>
        <mxCell id="ZgPF7rxRNCcD46Vk-L9j-74" value="+ GetAllSourcesInProject(int): Task&amp;lt;IEnumerable&amp;lt;Source&amp;gt;&amp;gt;" style="text;strokeColor=none;fillColor=none;align=left;verticalAlign=top;spacingLeft=4;spacingRight=4;overflow=hidden;rotatable=0;points=[[0,0.5],[1,0.5]];portConstraint=eastwest;whiteSpace=wrap;html=1;" vertex="1" parent="6U9F9vJyRZBFyjSzrLCs-154">
          <mxGeometry y="242" width="580" height="26" as="geometry" />
        </mxCell>
        <mxCell id="ZgPF7rxRNCcD46Vk-L9j-86" value="+ AddSourcesToProject(ProjectAndSources): Task&amp;lt;IActionResult&amp;gt;" style="text;strokeColor=none;fillColor=none;align=left;verticalAlign=top;spacingLeft=4;spacingRight=4;overflow=hidden;rotatable=0;points=[[0,0.5],[1,0.5]];portConstraint=eastwest;whiteSpace=wrap;html=1;" vertex="1" parent="6U9F9vJyRZBFyjSzrLCs-154">
          <mxGeometry y="268" width="580" height="26" as="geometry" />
        </mxCell>
        <mxCell id="ZgPF7rxRNCcD46Vk-L9j-87" value="+ DeleteSourceFromProject(ProjectAndSources): Task&amp;lt;IActionResult&amp;gt;" style="text;strokeColor=none;fillColor=none;align=left;verticalAlign=top;spacingLeft=4;spacingRight=4;overflow=hidden;rotatable=0;points=[[0,0.5],[1,0.5]];portConstraint=eastwest;whiteSpace=wrap;html=1;" vertex="1" parent="6U9F9vJyRZBFyjSzrLCs-154">
          <mxGeometry y="294" width="580" height="26" as="geometry" />
        </mxCell>
        <mxCell id="6U9F9vJyRZBFyjSzrLCs-163" value="NoteController" style="swimlane;fontStyle=0;childLayout=stackLayout;horizontal=1;startSize=26;fillColor=none;horizontalStack=0;resizeParent=1;resizeParentMax=0;resizeLast=0;collapsible=1;marginBottom=0;whiteSpace=wrap;html=1;" parent="WIyWlLk6GJQsqaUBKTNV-1" vertex="1">
          <mxGeometry x="2670" y="277" width="390" height="216" as="geometry" />
        </mxCell>
        <mxCell id="6U9F9vJyRZBFyjSzrLCs-168" value="+ _config: IConfiguration" style="text;strokeColor=none;fillColor=none;align=left;verticalAlign=top;spacingLeft=4;spacingRight=4;overflow=hidden;rotatable=0;points=[[0,0.5],[1,0.5]];portConstraint=eastwest;whiteSpace=wrap;html=1;" parent="6U9F9vJyRZBFyjSzrLCs-163" vertex="1">
          <mxGeometry y="26" width="390" height="26" as="geometry" />
        </mxCell>
        <mxCell id="6U9F9vJyRZBFyjSzrLCs-167" value="+ noteService: INotesService" style="text;strokeColor=none;fillColor=none;align=left;verticalAlign=top;spacingLeft=4;spacingRight=4;overflow=hidden;rotatable=0;points=[[0,0.5],[1,0.5]];portConstraint=eastwest;whiteSpace=wrap;html=1;" parent="6U9F9vJyRZBFyjSzrLCs-163" vertex="1">
          <mxGeometry y="52" width="390" height="26" as="geometry" />
        </mxCell>
        <mxCell id="6U9F9vJyRZBFyjSzrLCs-169" value="" style="line;strokeWidth=1;fillColor=none;align=left;verticalAlign=middle;spacingTop=-1;spacingLeft=3;spacingRight=3;rotatable=0;labelPosition=right;points=[];portConstraint=eastwest;strokeColor=inherit;" parent="6U9F9vJyRZBFyjSzrLCs-163" vertex="1">
          <mxGeometry y="78" width="390" height="8" as="geometry" />
        </mxCell>
        <mxCell id="6U9F9vJyRZBFyjSzrLCs-170" value="+&amp;nbsp;NoteController(INotesService,IConfiguration)" style="text;strokeColor=none;fillColor=none;align=left;verticalAlign=top;spacingLeft=4;spacingRight=4;overflow=hidden;rotatable=0;points=[[0,0.5],[1,0.5]];portConstraint=eastwest;whiteSpace=wrap;html=1;" parent="6U9F9vJyRZBFyjSzrLCs-163" vertex="1">
          <mxGeometry y="86" width="390" height="26" as="geometry" />
        </mxCell>
        <mxCell id="6U9F9vJyRZBFyjSzrLCs-171" value="+ CreateNote(Note): Task&amp;lt;IActionResult&amp;gt;" style="text;strokeColor=none;fillColor=none;align=left;verticalAlign=top;spacingLeft=4;spacingRight=4;overflow=hidden;rotatable=0;points=[[0,0.5],[1,0.5]];portConstraint=eastwest;whiteSpace=wrap;html=1;" parent="6U9F9vJyRZBFyjSzrLCs-163" vertex="1">
          <mxGeometry y="112" width="390" height="26" as="geometry" />
        </mxCell>
        <mxCell id="6U9F9vJyRZBFyjSzrLCs-172" value="+ GetBySourceId(int): Task&amp;lt;IEnumerable&amp;lt;Note&amp;gt;&amp;gt;" style="text;strokeColor=none;fillColor=none;align=left;verticalAlign=top;spacingLeft=4;spacingRight=4;overflow=hidden;rotatable=0;points=[[0,0.5],[1,0.5]];portConstraint=eastwest;whiteSpace=wrap;html=1;" parent="6U9F9vJyRZBFyjSzrLCs-163" vertex="1">
          <mxGeometry y="138" width="390" height="26" as="geometry" />
        </mxCell>
        <mxCell id="6U9F9vJyRZBFyjSzrLCs-173" value="+ Delete(int): Task" style="text;strokeColor=none;fillColor=none;align=left;verticalAlign=top;spacingLeft=4;spacingRight=4;overflow=hidden;rotatable=0;points=[[0,0.5],[1,0.5]];portConstraint=eastwest;whiteSpace=wrap;html=1;" parent="6U9F9vJyRZBFyjSzrLCs-163" vertex="1">
          <mxGeometry y="164" width="390" height="26" as="geometry" />
        </mxCell>
        <mxCell id="yEtD45bgeHQn0VMYSDIb-29" value="+ GetNotesByUsername(string username): Task&amp;lt;IEnumerable&amp;lt;Note&amp;gt;&amp;gt;" style="text;strokeColor=none;fillColor=none;align=left;verticalAlign=top;spacingLeft=4;spacingRight=4;overflow=hidden;rotatable=0;points=[[0,0.5],[1,0.5]];portConstraint=eastwest;whiteSpace=wrap;html=1;" parent="6U9F9vJyRZBFyjSzrLCs-163" vertex="1">
          <mxGeometry y="190" width="390" height="26" as="geometry" />
        </mxCell>
        <mxCell id="6U9F9vJyRZBFyjSzrLCs-174" value="LoginController" style="swimlane;fontStyle=0;childLayout=stackLayout;horizontal=1;startSize=26;fillColor=none;horizontalStack=0;resizeParent=1;resizeParentMax=0;resizeLast=0;collapsible=1;marginBottom=0;whiteSpace=wrap;html=1;" parent="WIyWlLk6GJQsqaUBKTNV-1" vertex="1">
          <mxGeometry x="218" y="290" width="390" height="190" as="geometry" />
        </mxCell>
        <mxCell id="6U9F9vJyRZBFyjSzrLCs-175" value="+ _config: IConfiguration" style="text;strokeColor=none;fillColor=none;align=left;verticalAlign=top;spacingLeft=4;spacingRight=4;overflow=hidden;rotatable=0;points=[[0,0.5],[1,0.5]];portConstraint=eastwest;whiteSpace=wrap;html=1;" parent="6U9F9vJyRZBFyjSzrLCs-174" vertex="1">
          <mxGeometry y="26" width="390" height="26" as="geometry" />
        </mxCell>
        <mxCell id="6U9F9vJyRZBFyjSzrLCs-176" value="+ loginService: ILoginService" style="text;strokeColor=none;fillColor=none;align=left;verticalAlign=top;spacingLeft=4;spacingRight=4;overflow=hidden;rotatable=0;points=[[0,0.5],[1,0.5]];portConstraint=eastwest;whiteSpace=wrap;html=1;" parent="6U9F9vJyRZBFyjSzrLCs-174" vertex="1">
          <mxGeometry y="52" width="390" height="26" as="geometry" />
        </mxCell>
        <mxCell id="6U9F9vJyRZBFyjSzrLCs-177" value="" style="line;strokeWidth=1;fillColor=none;align=left;verticalAlign=middle;spacingTop=-1;spacingLeft=3;spacingRight=3;rotatable=0;labelPosition=right;points=[];portConstraint=eastwest;strokeColor=inherit;" parent="6U9F9vJyRZBFyjSzrLCs-174" vertex="1">
          <mxGeometry y="78" width="390" height="8" as="geometry" />
        </mxCell>
        <mxCell id="6U9F9vJyRZBFyjSzrLCs-178" value="+&amp;nbsp;LoginController(ILoginService,IConfiguration)" style="text;strokeColor=none;fillColor=none;align=left;verticalAlign=top;spacingLeft=4;spacingRight=4;overflow=hidden;rotatable=0;points=[[0,0.5],[1,0.5]];portConstraint=eastwest;whiteSpace=wrap;html=1;" parent="6U9F9vJyRZBFyjSzrLCs-174" vertex="1">
          <mxGeometry y="86" width="390" height="26" as="geometry" />
        </mxCell>
        <mxCell id="6U9F9vJyRZBFyjSzrLCs-179" value="+ Login(UserLogin): Task&amp;lt;IActionResult&amp;gt;" style="text;strokeColor=none;fillColor=none;align=left;verticalAlign=top;spacingLeft=4;spacingRight=4;overflow=hidden;rotatable=0;points=[[0,0.5],[1,0.5]];portConstraint=eastwest;whiteSpace=wrap;html=1;" parent="6U9F9vJyRZBFyjSzrLCs-174" vertex="1">
          <mxGeometry y="112" width="390" height="26" as="geometry" />
        </mxCell>
        <mxCell id="6U9F9vJyRZBFyjSzrLCs-180" value="+ Register(User): Task&amp;lt;IEnumerable&amp;lt;Note&amp;gt;&amp;gt;" style="text;strokeColor=none;fillColor=none;align=left;verticalAlign=top;spacingLeft=4;spacingRight=4;overflow=hidden;rotatable=0;points=[[0,0.5],[1,0.5]];portConstraint=eastwest;whiteSpace=wrap;html=1;" parent="6U9F9vJyRZBFyjSzrLCs-174" vertex="1">
          <mxGeometry y="138" width="390" height="26" as="geometry" />
        </mxCell>
        <mxCell id="6U9F9vJyRZBFyjSzrLCs-181" value="- GenerateToken(UserLogin): string" style="text;strokeColor=none;fillColor=none;align=left;verticalAlign=top;spacingLeft=4;spacingRight=4;overflow=hidden;rotatable=0;points=[[0,0.5],[1,0.5]];portConstraint=eastwest;whiteSpace=wrap;html=1;" parent="6U9F9vJyRZBFyjSzrLCs-174" vertex="1">
          <mxGeometry y="164" width="390" height="26" as="geometry" />
        </mxCell>
        <mxCell id="6U9F9vJyRZBFyjSzrLCs-182" value="UserController" style="swimlane;fontStyle=0;childLayout=stackLayout;horizontal=1;startSize=26;fillColor=none;horizontalStack=0;resizeParent=1;resizeParentMax=0;resizeLast=0;collapsible=1;marginBottom=0;whiteSpace=wrap;html=1;" parent="WIyWlLk6GJQsqaUBKTNV-1" vertex="1">
          <mxGeometry x="230" y="-340" width="390" height="138" as="geometry" />
        </mxCell>
        <mxCell id="6U9F9vJyRZBFyjSzrLCs-183" value="+ _config: IConfiguration" style="text;strokeColor=none;fillColor=none;align=left;verticalAlign=top;spacingLeft=4;spacingRight=4;overflow=hidden;rotatable=0;points=[[0,0.5],[1,0.5]];portConstraint=eastwest;whiteSpace=wrap;html=1;" parent="6U9F9vJyRZBFyjSzrLCs-182" vertex="1">
          <mxGeometry y="26" width="390" height="26" as="geometry" />
        </mxCell>
        <mxCell id="6U9F9vJyRZBFyjSzrLCs-184" value="+ userService: IUserService" style="text;strokeColor=none;fillColor=none;align=left;verticalAlign=top;spacingLeft=4;spacingRight=4;overflow=hidden;rotatable=0;points=[[0,0.5],[1,0.5]];portConstraint=eastwest;whiteSpace=wrap;html=1;" parent="6U9F9vJyRZBFyjSzrLCs-182" vertex="1">
          <mxGeometry y="52" width="390" height="26" as="geometry" />
        </mxCell>
        <mxCell id="6U9F9vJyRZBFyjSzrLCs-185" value="" style="line;strokeWidth=1;fillColor=none;align=left;verticalAlign=middle;spacingTop=-1;spacingLeft=3;spacingRight=3;rotatable=0;labelPosition=right;points=[];portConstraint=eastwest;strokeColor=inherit;" parent="6U9F9vJyRZBFyjSzrLCs-182" vertex="1">
          <mxGeometry y="78" width="390" height="8" as="geometry" />
        </mxCell>
        <mxCell id="6U9F9vJyRZBFyjSzrLCs-186" value="+&amp;nbsp;UserController(IUserService,IConfiguration)" style="text;strokeColor=none;fillColor=none;align=left;verticalAlign=top;spacingLeft=4;spacingRight=4;overflow=hidden;rotatable=0;points=[[0,0.5],[1,0.5]];portConstraint=eastwest;whiteSpace=wrap;html=1;" parent="6U9F9vJyRZBFyjSzrLCs-182" vertex="1">
          <mxGeometry y="86" width="390" height="26" as="geometry" />
        </mxCell>
        <mxCell id="6U9F9vJyRZBFyjSzrLCs-187" value="+ GetUserByUsername(User): Task&amp;lt;IActionResult&amp;gt;" style="text;strokeColor=none;fillColor=none;align=left;verticalAlign=top;spacingLeft=4;spacingRight=4;overflow=hidden;rotatable=0;points=[[0,0.5],[1,0.5]];portConstraint=eastwest;whiteSpace=wrap;html=1;" parent="6U9F9vJyRZBFyjSzrLCs-182" vertex="1">
          <mxGeometry y="112" width="390" height="26" as="geometry" />
        </mxCell>
        <mxCell id="6U9F9vJyRZBFyjSzrLCs-190" value="ControllerBase" style="swimlane;fontStyle=0;childLayout=stackLayout;horizontal=1;startSize=26;fillColor=none;horizontalStack=0;resizeParent=1;resizeParentMax=0;resizeLast=0;collapsible=1;marginBottom=0;whiteSpace=wrap;html=1;" parent="WIyWlLk6GJQsqaUBKTNV-1" vertex="1">
          <mxGeometry x="1910" y="420" width="140" height="52" as="geometry" />
        </mxCell>
        <mxCell id="6U9F9vJyRZBFyjSzrLCs-205" value="DBContext" style="swimlane;fontStyle=0;childLayout=stackLayout;horizontal=1;startSize=26;fillColor=none;horizontalStack=0;resizeParent=1;resizeParentMax=0;resizeLast=0;collapsible=1;marginBottom=0;whiteSpace=wrap;html=1;" parent="WIyWlLk6GJQsqaUBKTNV-1" vertex="1">
          <mxGeometry x="1630" y="90" width="310" height="164" as="geometry" />
        </mxCell>
        <mxCell id="8kD_bNBt5iVXrSrV0JrJ-6" value="# DataSource: NpgsqlDataSource" style="text;strokeColor=none;fillColor=none;align=left;verticalAlign=top;spacingLeft=4;spacingRight=4;overflow=hidden;rotatable=0;points=[[0,0.5],[1,0.5]];portConstraint=eastwest;whiteSpace=wrap;html=1;" parent="6U9F9vJyRZBFyjSzrLCs-205" vertex="1">
          <mxGeometry y="26" width="310" height="26" as="geometry" />
        </mxCell>
        <mxCell id="8kD_bNBt5iVXrSrV0JrJ-5" value="# Configuration: IConfiguration" style="text;strokeColor=none;fillColor=none;align=left;verticalAlign=top;spacingLeft=4;spacingRight=4;overflow=hidden;rotatable=0;points=[[0,0.5],[1,0.5]];portConstraint=eastwest;whiteSpace=wrap;html=1;" parent="6U9F9vJyRZBFyjSzrLCs-205" vertex="1">
          <mxGeometry y="52" width="310" height="26" as="geometry" />
        </mxCell>
        <mxCell id="6U9F9vJyRZBFyjSzrLCs-209" value="" style="line;strokeWidth=1;fillColor=none;align=left;verticalAlign=middle;spacingTop=-1;spacingLeft=3;spacingRight=3;rotatable=0;labelPosition=right;points=[];portConstraint=eastwest;strokeColor=inherit;" parent="6U9F9vJyRZBFyjSzrLCs-205" vertex="1">
          <mxGeometry y="78" width="310" height="8" as="geometry" />
        </mxCell>
        <mxCell id="6U9F9vJyRZBFyjSzrLCs-208" value="+&amp;nbsp;DBContext(IConfiguration configuration)" style="text;strokeColor=none;fillColor=none;align=left;verticalAlign=top;spacingLeft=4;spacingRight=4;overflow=hidden;rotatable=0;points=[[0,0.5],[1,0.5]];portConstraint=eastwest;whiteSpace=wrap;html=1;" parent="6U9F9vJyRZBFyjSzrLCs-205" vertex="1">
          <mxGeometry y="86" width="310" height="26" as="geometry" />
        </mxCell>
        <mxCell id="6U9F9vJyRZBFyjSzrLCs-206" value="+ CreateConnection: Task&amp;lt;IDbConnectionWrapper&amp;gt;" style="text;strokeColor=none;fillColor=none;align=left;verticalAlign=top;spacingLeft=4;spacingRight=4;overflow=hidden;rotatable=0;points=[[0,0.5],[1,0.5]];portConstraint=eastwest;whiteSpace=wrap;html=1;" parent="6U9F9vJyRZBFyjSzrLCs-205" vertex="1">
          <mxGeometry y="112" width="310" height="26" as="geometry" />
        </mxCell>
        <mxCell id="8kD_bNBt5iVXrSrV0JrJ-2" value="+ Init: void" style="text;strokeColor=none;fillColor=none;align=left;verticalAlign=top;spacingLeft=4;spacingRight=4;overflow=hidden;rotatable=0;points=[[0,0.5],[1,0.5]];portConstraint=eastwest;whiteSpace=wrap;html=1;" parent="6U9F9vJyRZBFyjSzrLCs-205" vertex="1">
          <mxGeometry y="138" width="310" height="26" as="geometry" />
        </mxCell>
        <mxCell id="6U9F9vJyRZBFyjSzrLCs-211" value="&amp;lt;Interface&amp;gt;&lt;br&gt;IDataContext" style="swimlane;fontStyle=0;childLayout=stackLayout;horizontal=1;startSize=26;fillColor=none;horizontalStack=0;resizeParent=1;resizeParentMax=0;resizeLast=0;collapsible=1;marginBottom=0;whiteSpace=wrap;html=1;" parent="WIyWlLk6GJQsqaUBKTNV-1" vertex="1">
          <mxGeometry x="1560" y="-710" width="310" height="86" as="geometry" />
        </mxCell>
        <mxCell id="8kD_bNBt5iVXrSrV0JrJ-3" value="" style="line;strokeWidth=1;fillColor=none;align=left;verticalAlign=middle;spacingTop=-1;spacingLeft=3;spacingRight=3;rotatable=0;labelPosition=right;points=[];portConstraint=eastwest;strokeColor=inherit;" parent="6U9F9vJyRZBFyjSzrLCs-211" vertex="1">
          <mxGeometry y="26" width="310" height="8" as="geometry" />
        </mxCell>
        <mxCell id="8kD_bNBt5iVXrSrV0JrJ-0" value="+ CreateConnection: Task&amp;lt;IDbConnectionWrapper&amp;gt;" style="text;strokeColor=none;fillColor=none;align=left;verticalAlign=top;spacingLeft=4;spacingRight=4;overflow=hidden;rotatable=0;points=[[0,0.5],[1,0.5]];portConstraint=eastwest;whiteSpace=wrap;html=1;" parent="6U9F9vJyRZBFyjSzrLCs-211" vertex="1">
          <mxGeometry y="34" width="310" height="26" as="geometry" />
        </mxCell>
        <mxCell id="8kD_bNBt5iVXrSrV0JrJ-1" value="+ Init: void" style="text;strokeColor=none;fillColor=none;align=left;verticalAlign=top;spacingLeft=4;spacingRight=4;overflow=hidden;rotatable=0;points=[[0,0.5],[1,0.5]];portConstraint=eastwest;whiteSpace=wrap;html=1;" parent="6U9F9vJyRZBFyjSzrLCs-211" vertex="1">
          <mxGeometry y="60" width="310" height="26" as="geometry" />
        </mxCell>
        <mxCell id="8kD_bNBt5iVXrSrV0JrJ-7" value="IConfiguration" style="html=1;whiteSpace=wrap;" parent="WIyWlLk6GJQsqaUBKTNV-1" vertex="1">
          <mxGeometry x="690" y="-1154" width="110" height="50" as="geometry" />
        </mxCell>
        <mxCell id="8kD_bNBt5iVXrSrV0JrJ-11" value="&amp;lt;Interface&amp;gt;&lt;br&gt;IDbConnectionWrapper" style="swimlane;fontStyle=1;align=center;verticalAlign=top;childLayout=stackLayout;horizontal=1;startSize=40;horizontalStack=0;resizeParent=1;resizeParentMax=0;resizeLast=0;collapsible=1;marginBottom=0;whiteSpace=wrap;html=1;" parent="WIyWlLk6GJQsqaUBKTNV-1" vertex="1">
          <mxGeometry x="1330" y="-1260" width="410" height="106" as="geometry" />
        </mxCell>
        <mxCell id="8kD_bNBt5iVXrSrV0JrJ-13" value="" style="line;strokeWidth=1;fillColor=none;align=left;verticalAlign=middle;spacingTop=-1;spacingLeft=3;spacingRight=3;rotatable=0;labelPosition=right;points=[];portConstraint=eastwest;strokeColor=inherit;" parent="8kD_bNBt5iVXrSrV0JrJ-11" vertex="1">
          <mxGeometry y="40" width="410" height="8" as="geometry" />
        </mxCell>
        <mxCell id="8kD_bNBt5iVXrSrV0JrJ-12" value="+ QueryAsync&amp;lt;T&amp;gt;(string sql,object? param = null): Task&amp;lt;IEnumerable&amp;lt;T&amp;gt;&amp;gt;" style="text;strokeColor=none;fillColor=none;align=left;verticalAlign=top;spacingLeft=4;spacingRight=4;overflow=hidden;rotatable=0;points=[[0,0.5],[1,0.5]];portConstraint=eastwest;whiteSpace=wrap;html=1;" parent="8kD_bNBt5iVXrSrV0JrJ-11" vertex="1">
          <mxGeometry y="48" width="410" height="26" as="geometry" />
        </mxCell>
        <mxCell id="8kD_bNBt5iVXrSrV0JrJ-14" value="+ ExecuteAsync(string sql,object? param = null): Task&amp;lt;int&amp;gt;" style="text;strokeColor=none;fillColor=none;align=left;verticalAlign=top;spacingLeft=4;spacingRight=4;overflow=hidden;rotatable=0;points=[[0,0.5],[1,0.5]];portConstraint=eastwest;whiteSpace=wrap;html=1;" parent="8kD_bNBt5iVXrSrV0JrJ-11" vertex="1">
          <mxGeometry y="74" width="410" height="32" as="geometry" />
        </mxCell>
        <mxCell id="8kD_bNBt5iVXrSrV0JrJ-17" value="IDbConnection" style="html=1;whiteSpace=wrap;" parent="WIyWlLk6GJQsqaUBKTNV-1" vertex="1">
          <mxGeometry x="1030" y="-1219" width="110" height="50" as="geometry" />
        </mxCell>
        <mxCell id="8kD_bNBt5iVXrSrV0JrJ-21" value="NpgsqlConnectionWrapper" style="swimlane;fontStyle=1;align=center;verticalAlign=top;childLayout=stackLayout;horizontal=1;startSize=26;horizontalStack=0;resizeParent=1;resizeParentMax=0;resizeLast=0;collapsible=1;marginBottom=0;whiteSpace=wrap;html=1;" parent="WIyWlLk6GJQsqaUBKTNV-1" vertex="1">
          <mxGeometry x="960" y="-1980" width="460" height="378" as="geometry" />
        </mxCell>
        <mxCell id="8kD_bNBt5iVXrSrV0JrJ-22" value="- connection: IDbConnection" style="text;strokeColor=none;fillColor=none;align=left;verticalAlign=top;spacingLeft=4;spacingRight=4;overflow=hidden;rotatable=0;points=[[0,0.5],[1,0.5]];portConstraint=eastwest;whiteSpace=wrap;html=1;" parent="8kD_bNBt5iVXrSrV0JrJ-21" vertex="1">
          <mxGeometry y="26" width="460" height="26" as="geometry" />
        </mxCell>
        <mxCell id="8kD_bNBt5iVXrSrV0JrJ-25" value="+ ConnectionTimeout: int" style="text;strokeColor=none;fillColor=none;align=left;verticalAlign=top;spacingLeft=4;spacingRight=4;overflow=hidden;rotatable=0;points=[[0,0.5],[1,0.5]];portConstraint=eastwest;whiteSpace=wrap;html=1;" parent="8kD_bNBt5iVXrSrV0JrJ-21" vertex="1">
          <mxGeometry y="52" width="460" height="26" as="geometry" />
        </mxCell>
        <mxCell id="8kD_bNBt5iVXrSrV0JrJ-27" value="+ Database: string" style="text;strokeColor=none;fillColor=none;align=left;verticalAlign=top;spacingLeft=4;spacingRight=4;overflow=hidden;rotatable=0;points=[[0,0.5],[1,0.5]];portConstraint=eastwest;whiteSpace=wrap;html=1;" parent="8kD_bNBt5iVXrSrV0JrJ-21" vertex="1">
          <mxGeometry y="78" width="460" height="26" as="geometry" />
        </mxCell>
        <mxCell id="8kD_bNBt5iVXrSrV0JrJ-26" value="+ State: ConnectionState" style="text;strokeColor=none;fillColor=none;align=left;verticalAlign=top;spacingLeft=4;spacingRight=4;overflow=hidden;rotatable=0;points=[[0,0.5],[1,0.5]];portConstraint=eastwest;whiteSpace=wrap;html=1;" parent="8kD_bNBt5iVXrSrV0JrJ-21" vertex="1">
          <mxGeometry y="104" width="460" height="26" as="geometry" />
        </mxCell>
        <mxCell id="8kD_bNBt5iVXrSrV0JrJ-23" value="" style="line;strokeWidth=1;fillColor=none;align=left;verticalAlign=middle;spacingTop=-1;spacingLeft=3;spacingRight=3;rotatable=0;labelPosition=right;points=[];portConstraint=eastwest;strokeColor=inherit;" parent="8kD_bNBt5iVXrSrV0JrJ-21" vertex="1">
          <mxGeometry y="130" width="460" height="8" as="geometry" />
        </mxCell>
        <mxCell id="8kD_bNBt5iVXrSrV0JrJ-24" value="+NpgsqlConnectionWrapper(IDbConnnection connection)" style="text;strokeColor=none;fillColor=none;align=left;verticalAlign=top;spacingLeft=4;spacingRight=4;overflow=hidden;rotatable=0;points=[[0,0.5],[1,0.5]];portConstraint=eastwest;whiteSpace=wrap;html=1;" parent="8kD_bNBt5iVXrSrV0JrJ-21" vertex="1">
          <mxGeometry y="138" width="460" height="26" as="geometry" />
        </mxCell>
        <mxCell id="8kD_bNBt5iVXrSrV0JrJ-30" value="+ CreateCommand(): IDbCommand" style="text;strokeColor=none;fillColor=none;align=left;verticalAlign=top;spacingLeft=4;spacingRight=4;overflow=hidden;rotatable=0;points=[[0,0.5],[1,0.5]];portConstraint=eastwest;whiteSpace=wrap;html=1;" parent="8kD_bNBt5iVXrSrV0JrJ-21" vertex="1">
          <mxGeometry y="164" width="460" height="26" as="geometry" />
        </mxCell>
        <mxCell id="8kD_bNBt5iVXrSrV0JrJ-36" value="+ BeginTransaction(): IDbTransaction" style="text;strokeColor=none;fillColor=none;align=left;verticalAlign=top;spacingLeft=4;spacingRight=4;overflow=hidden;rotatable=0;points=[[0,0.5],[1,0.5]];portConstraint=eastwest;whiteSpace=wrap;html=1;" parent="8kD_bNBt5iVXrSrV0JrJ-21" vertex="1">
          <mxGeometry y="190" width="460" height="26" as="geometry" />
        </mxCell>
        <mxCell id="8kD_bNBt5iVXrSrV0JrJ-32" value="+ ChangeDatabase(string databaseName): void" style="text;strokeColor=none;fillColor=none;align=left;verticalAlign=top;spacingLeft=4;spacingRight=4;overflow=hidden;rotatable=0;points=[[0,0.5],[1,0.5]];portConstraint=eastwest;whiteSpace=wrap;html=1;" parent="8kD_bNBt5iVXrSrV0JrJ-21" vertex="1">
          <mxGeometry y="216" width="460" height="26" as="geometry" />
        </mxCell>
        <mxCell id="8kD_bNBt5iVXrSrV0JrJ-33" value="+ Close(): void" style="text;strokeColor=none;fillColor=none;align=left;verticalAlign=top;spacingLeft=4;spacingRight=4;overflow=hidden;rotatable=0;points=[[0,0.5],[1,0.5]];portConstraint=eastwest;whiteSpace=wrap;html=1;" parent="8kD_bNBt5iVXrSrV0JrJ-21" vertex="1">
          <mxGeometry y="242" width="460" height="26" as="geometry" />
        </mxCell>
        <mxCell id="8kD_bNBt5iVXrSrV0JrJ-35" value="+ Open(): void" style="text;strokeColor=none;fillColor=none;align=left;verticalAlign=top;spacingLeft=4;spacingRight=4;overflow=hidden;rotatable=0;points=[[0,0.5],[1,0.5]];portConstraint=eastwest;whiteSpace=wrap;html=1;" parent="8kD_bNBt5iVXrSrV0JrJ-21" vertex="1">
          <mxGeometry y="268" width="460" height="26" as="geometry" />
        </mxCell>
        <mxCell id="8kD_bNBt5iVXrSrV0JrJ-34" value="+ Dispose(): void" style="text;strokeColor=none;fillColor=none;align=left;verticalAlign=top;spacingLeft=4;spacingRight=4;overflow=hidden;rotatable=0;points=[[0,0.5],[1,0.5]];portConstraint=eastwest;whiteSpace=wrap;html=1;" parent="8kD_bNBt5iVXrSrV0JrJ-21" vertex="1">
          <mxGeometry y="294" width="460" height="26" as="geometry" />
        </mxCell>
        <mxCell id="8kD_bNBt5iVXrSrV0JrJ-37" value="+ QueryAsync&amp;lt;T&amp;gt;(string sql,object? param = null): Task&amp;lt;IEnumerable&amp;lt;T&amp;gt;&amp;gt;" style="text;strokeColor=none;fillColor=none;align=left;verticalAlign=top;spacingLeft=4;spacingRight=4;overflow=hidden;rotatable=0;points=[[0,0.5],[1,0.5]];portConstraint=eastwest;whiteSpace=wrap;html=1;" parent="8kD_bNBt5iVXrSrV0JrJ-21" vertex="1">
          <mxGeometry y="320" width="460" height="26" as="geometry" />
        </mxCell>
        <mxCell id="8kD_bNBt5iVXrSrV0JrJ-38" value="+ ExecuteAsync(string sql,object? param = null): Task&amp;lt;int&amp;gt;" style="text;strokeColor=none;fillColor=none;align=left;verticalAlign=top;spacingLeft=4;spacingRight=4;overflow=hidden;rotatable=0;points=[[0,0.5],[1,0.5]];portConstraint=eastwest;whiteSpace=wrap;html=1;" parent="8kD_bNBt5iVXrSrV0JrJ-21" vertex="1">
          <mxGeometry y="346" width="460" height="32" as="geometry" />
        </mxCell>
        <mxCell id="8kD_bNBt5iVXrSrV0JrJ-39" value="MockConnectionWrapper" style="html=1;whiteSpace=wrap;" parent="WIyWlLk6GJQsqaUBKTNV-1" vertex="1">
          <mxGeometry x="1690" y="-1860" width="270" height="50" as="geometry" />
        </mxCell>
        <mxCell id="yEtD45bgeHQn0VMYSDIb-2" value="TagController" style="swimlane;fontStyle=0;childLayout=stackLayout;horizontal=1;startSize=26;fillColor=none;horizontalStack=0;resizeParent=1;resizeParentMax=0;resizeLast=0;collapsible=1;marginBottom=0;whiteSpace=wrap;html=1;" parent="WIyWlLk6GJQsqaUBKTNV-1" vertex="1">
          <mxGeometry x="2370" y="-423" width="390" height="216" as="geometry" />
        </mxCell>
        <mxCell id="yEtD45bgeHQn0VMYSDIb-3" value="+ _config: IConfiguration" style="text;strokeColor=none;fillColor=none;align=left;verticalAlign=top;spacingLeft=4;spacingRight=4;overflow=hidden;rotatable=0;points=[[0,0.5],[1,0.5]];portConstraint=eastwest;whiteSpace=wrap;html=1;" parent="yEtD45bgeHQn0VMYSDIb-2" vertex="1">
          <mxGeometry y="26" width="390" height="26" as="geometry" />
        </mxCell>
        <mxCell id="yEtD45bgeHQn0VMYSDIb-4" value="+ tagService: ITagService" style="text;strokeColor=none;fillColor=none;align=left;verticalAlign=top;spacingLeft=4;spacingRight=4;overflow=hidden;rotatable=0;points=[[0,0.5],[1,0.5]];portConstraint=eastwest;whiteSpace=wrap;html=1;" parent="yEtD45bgeHQn0VMYSDIb-2" vertex="1">
          <mxGeometry y="52" width="390" height="26" as="geometry" />
        </mxCell>
        <mxCell id="yEtD45bgeHQn0VMYSDIb-5" value="" style="line;strokeWidth=1;fillColor=none;align=left;verticalAlign=middle;spacingTop=-1;spacingLeft=3;spacingRight=3;rotatable=0;labelPosition=right;points=[];portConstraint=eastwest;strokeColor=inherit;" parent="yEtD45bgeHQn0VMYSDIb-2" vertex="1">
          <mxGeometry y="78" width="390" height="8" as="geometry" />
        </mxCell>
        <mxCell id="yEtD45bgeHQn0VMYSDIb-6" value="+ TagController(ITagService,IConfiguration)" style="text;strokeColor=none;fillColor=none;align=left;verticalAlign=top;spacingLeft=4;spacingRight=4;overflow=hidden;rotatable=0;points=[[0,0.5],[1,0.5]];portConstraint=eastwest;whiteSpace=wrap;html=1;" parent="yEtD45bgeHQn0VMYSDIb-2" vertex="1">
          <mxGeometry y="86" width="390" height="26" as="geometry" />
        </mxCell>
        <mxCell id="yEtD45bgeHQn0VMYSDIb-7" value="+ DeleteById(int): Task&amp;lt;IActionResult&amp;gt;" style="text;strokeColor=none;fillColor=none;align=left;verticalAlign=top;spacingLeft=4;spacingRight=4;overflow=hidden;rotatable=0;points=[[0,0.5],[1,0.5]];portConstraint=eastwest;whiteSpace=wrap;html=1;" parent="yEtD45bgeHQn0VMYSDIb-2" vertex="1">
          <mxGeometry y="112" width="390" height="26" as="geometry" />
        </mxCell>
        <mxCell id="yEtD45bgeHQn0VMYSDIb-8" value="+ GetTagsBelongingToUsername(string): Task&amp;lt;IEnumerable&amp;lt;Tags&amp;gt;&amp;gt;" style="text;strokeColor=none;fillColor=none;align=left;verticalAlign=top;spacingLeft=4;spacingRight=4;overflow=hidden;rotatable=0;points=[[0,0.5],[1,0.5]];portConstraint=eastwest;whiteSpace=wrap;html=1;" parent="yEtD45bgeHQn0VMYSDIb-2" vertex="1">
          <mxGeometry y="138" width="390" height="26" as="geometry" />
        </mxCell>
        <mxCell id="yEtD45bgeHQn0VMYSDIb-9" value="+ CreateTag(Tags): Task&amp;lt;IActionResult&amp;gt;" style="text;strokeColor=none;fillColor=none;align=left;verticalAlign=top;spacingLeft=4;spacingRight=4;overflow=hidden;rotatable=0;points=[[0,0.5],[1,0.5]];portConstraint=eastwest;whiteSpace=wrap;html=1;" parent="yEtD45bgeHQn0VMYSDIb-2" vertex="1">
          <mxGeometry y="164" width="390" height="26" as="geometry" />
        </mxCell>
        <mxCell id="yEtD45bgeHQn0VMYSDIb-10" value="+ GetTagsByNoteId(int): Task&amp;lt;IEnumerable&amp;lt;Tags&amp;gt;&amp;gt;" style="text;strokeColor=none;fillColor=none;align=left;verticalAlign=top;spacingLeft=4;spacingRight=4;overflow=hidden;rotatable=0;points=[[0,0.5],[1,0.5]];portConstraint=eastwest;whiteSpace=wrap;html=1;" parent="yEtD45bgeHQn0VMYSDIb-2" vertex="1">
          <mxGeometry y="190" width="390" height="26" as="geometry" />
        </mxCell>
        <mxCell id="yEtD45bgeHQn0VMYSDIb-12" value="TagService" style="swimlane;fontStyle=0;childLayout=stackLayout;horizontal=1;startSize=26;fillColor=none;horizontalStack=0;resizeParent=1;resizeParentMax=0;resizeLast=0;collapsible=1;marginBottom=0;whiteSpace=wrap;html=1;" parent="WIyWlLk6GJQsqaUBKTNV-1" vertex="1">
          <mxGeometry x="2880" y="-1100" width="330" height="222" as="geometry" />
        </mxCell>
        <mxCell id="yEtD45bgeHQn0VMYSDIb-13" value="+ tagRepository: ITagRepository" style="text;strokeColor=none;fillColor=none;align=left;verticalAlign=top;spacingLeft=4;spacingRight=4;overflow=hidden;rotatable=0;points=[[0,0.5],[1,0.5]];portConstraint=eastwest;whiteSpace=wrap;html=1;" parent="yEtD45bgeHQn0VMYSDIb-12" vertex="1">
          <mxGeometry y="26" width="330" height="26" as="geometry" />
        </mxCell>
        <mxCell id="yEtD45bgeHQn0VMYSDIb-14" value="" style="line;strokeWidth=1;fillColor=none;align=left;verticalAlign=middle;spacingTop=-1;spacingLeft=3;spacingRight=3;rotatable=0;labelPosition=right;points=[];portConstraint=eastwest;strokeColor=inherit;" parent="yEtD45bgeHQn0VMYSDIb-12" vertex="1">
          <mxGeometry y="52" width="330" height="8" as="geometry" />
        </mxCell>
        <mxCell id="yEtD45bgeHQn0VMYSDIb-15" value="+ TagService(ITagRepository)" style="text;strokeColor=none;fillColor=none;align=left;verticalAlign=top;spacingLeft=4;spacingRight=4;overflow=hidden;rotatable=0;points=[[0,0.5],[1,0.5]];portConstraint=eastwest;whiteSpace=wrap;html=1;" parent="yEtD45bgeHQn0VMYSDIb-12" vertex="1">
          <mxGeometry y="60" width="330" height="26" as="geometry" />
        </mxCell>
        <mxCell id="yEtD45bgeHQn0VMYSDIb-17" value="+ DeleteTagById(int tagId): Task" style="text;strokeColor=none;fillColor=none;align=left;verticalAlign=top;spacingLeft=4;spacingRight=4;overflow=hidden;rotatable=0;points=[[0,0.5],[1,0.5]];portConstraint=eastwest;whiteSpace=wrap;html=1;" parent="yEtD45bgeHQn0VMYSDIb-12" vertex="1">
          <mxGeometry y="86" width="330" height="34" as="geometry" />
        </mxCell>
        <mxCell id="yEtD45bgeHQn0VMYSDIb-18" value="+ GetTagsBelongingToUser(string username): Task&amp;lt;IEnumerable&amp;lt;Tags&amp;gt;&amp;gt;" style="text;strokeColor=none;fillColor=none;align=left;verticalAlign=top;spacingLeft=4;spacingRight=4;overflow=hidden;rotatable=0;points=[[0,0.5],[1,0.5]];portConstraint=eastwest;whiteSpace=wrap;html=1;" parent="yEtD45bgeHQn0VMYSDIb-12" vertex="1">
          <mxGeometry y="120" width="330" height="34" as="geometry" />
        </mxCell>
        <mxCell id="yEtD45bgeHQn0VMYSDIb-16" value="+ CreateTag(Tags tag): Task" style="text;strokeColor=none;fillColor=none;align=left;verticalAlign=top;spacingLeft=4;spacingRight=4;overflow=hidden;rotatable=0;points=[[0,0.5],[1,0.5]];portConstraint=eastwest;whiteSpace=wrap;html=1;" parent="yEtD45bgeHQn0VMYSDIb-12" vertex="1">
          <mxGeometry y="154" width="330" height="34" as="geometry" />
        </mxCell>
        <mxCell id="yEtD45bgeHQn0VMYSDIb-19" value="+ GetTagsByNoteId(int noteId): Task&amp;lt;IEnumerable&amp;lt;Tags&amp;gt;&amp;gt;" style="text;strokeColor=none;fillColor=none;align=left;verticalAlign=top;spacingLeft=4;spacingRight=4;overflow=hidden;rotatable=0;points=[[0,0.5],[1,0.5]];portConstraint=eastwest;whiteSpace=wrap;html=1;" parent="yEtD45bgeHQn0VMYSDIb-12" vertex="1">
          <mxGeometry y="188" width="330" height="34" as="geometry" />
        </mxCell>
        <mxCell id="yEtD45bgeHQn0VMYSDIb-20" value="&amp;lt;interface&amp;gt;&lt;br&gt;ITagService" style="swimlane;fontStyle=0;childLayout=stackLayout;horizontal=1;startSize=26;fillColor=none;horizontalStack=0;resizeParent=1;resizeParentMax=0;resizeLast=0;collapsible=1;marginBottom=0;whiteSpace=wrap;html=1;" parent="WIyWlLk6GJQsqaUBKTNV-1" vertex="1">
          <mxGeometry x="2870" y="-760" width="350" height="152" as="geometry" />
        </mxCell>
        <mxCell id="yEtD45bgeHQn0VMYSDIb-21" value="+ DeleteTagById(int tagId): Task" style="text;strokeColor=none;fillColor=none;align=left;verticalAlign=top;spacingLeft=4;spacingRight=4;overflow=hidden;rotatable=0;points=[[0,0.5],[1,0.5]];portConstraint=eastwest;whiteSpace=wrap;html=1;" parent="yEtD45bgeHQn0VMYSDIb-20" vertex="1">
          <mxGeometry y="26" width="350" height="24" as="geometry" />
        </mxCell>
        <mxCell id="yEtD45bgeHQn0VMYSDIb-22" value="+ GetTagsBelongingToUser(string username): Task&amp;lt;IEnumerable&amp;lt;Tags&amp;gt;&amp;gt;" style="text;strokeColor=none;fillColor=none;align=left;verticalAlign=top;spacingLeft=4;spacingRight=4;overflow=hidden;rotatable=0;points=[[0,0.5],[1,0.5]];portConstraint=eastwest;whiteSpace=wrap;html=1;" parent="yEtD45bgeHQn0VMYSDIb-20" vertex="1">
          <mxGeometry y="50" width="350" height="34" as="geometry" />
        </mxCell>
        <mxCell id="yEtD45bgeHQn0VMYSDIb-23" value="+ CreateTag(Tags tag): Task" style="text;strokeColor=none;fillColor=none;align=left;verticalAlign=top;spacingLeft=4;spacingRight=4;overflow=hidden;rotatable=0;points=[[0,0.5],[1,0.5]];portConstraint=eastwest;whiteSpace=wrap;html=1;" parent="yEtD45bgeHQn0VMYSDIb-20" vertex="1">
          <mxGeometry y="84" width="350" height="34" as="geometry" />
        </mxCell>
        <mxCell id="yEtD45bgeHQn0VMYSDIb-24" value="+ GetTagsByNoteId(int noteId): Task&amp;lt;IEnumerable&amp;lt;Tags&amp;gt;&amp;gt;" style="text;strokeColor=none;fillColor=none;align=left;verticalAlign=top;spacingLeft=4;spacingRight=4;overflow=hidden;rotatable=0;points=[[0,0.5],[1,0.5]];portConstraint=eastwest;whiteSpace=wrap;html=1;" parent="yEtD45bgeHQn0VMYSDIb-20" vertex="1">
          <mxGeometry y="118" width="350" height="34" as="geometry" />
        </mxCell>
        <mxCell id="yEtD45bgeHQn0VMYSDIb-31" value="TagRepository" style="swimlane;fontStyle=0;childLayout=stackLayout;horizontal=1;startSize=26;fillColor=none;horizontalStack=0;resizeParent=1;resizeParentMax=0;resizeLast=0;collapsible=1;marginBottom=0;whiteSpace=wrap;html=1;" parent="WIyWlLk6GJQsqaUBKTNV-1" vertex="1">
          <mxGeometry x="3461" y="-1100" width="360" height="212" as="geometry" />
        </mxCell>
        <mxCell id="yEtD45bgeHQn0VMYSDIb-32" value="+ context: DBContext" style="text;strokeColor=none;fillColor=none;align=left;verticalAlign=top;spacingLeft=4;spacingRight=4;overflow=hidden;rotatable=0;points=[[0,0.5],[1,0.5]];portConstraint=eastwest;whiteSpace=wrap;html=1;" parent="yEtD45bgeHQn0VMYSDIb-31" vertex="1">
          <mxGeometry y="26" width="360" height="26" as="geometry" />
        </mxCell>
        <mxCell id="yEtD45bgeHQn0VMYSDIb-33" value="" style="line;strokeWidth=1;fillColor=none;align=left;verticalAlign=middle;spacingTop=-1;spacingLeft=3;spacingRight=3;rotatable=0;labelPosition=right;points=[];portConstraint=eastwest;strokeColor=inherit;" parent="yEtD45bgeHQn0VMYSDIb-31" vertex="1">
          <mxGeometry y="52" width="360" height="8" as="geometry" />
        </mxCell>
        <mxCell id="yEtD45bgeHQn0VMYSDIb-34" value="+ TagRepository(DBContext)" style="text;strokeColor=none;fillColor=none;align=left;verticalAlign=top;spacingLeft=4;spacingRight=4;overflow=hidden;rotatable=0;points=[[0,0.5],[1,0.5]];portConstraint=eastwest;whiteSpace=wrap;html=1;" parent="yEtD45bgeHQn0VMYSDIb-31" vertex="1">
          <mxGeometry y="60" width="360" height="26" as="geometry" />
        </mxCell>
        <mxCell id="yEtD45bgeHQn0VMYSDIb-65" value="+ DeleteTagById(int tagId): Task" style="text;strokeColor=none;fillColor=none;align=left;verticalAlign=top;spacingLeft=4;spacingRight=4;overflow=hidden;rotatable=0;points=[[0,0.5],[1,0.5]];portConstraint=eastwest;whiteSpace=wrap;html=1;" parent="yEtD45bgeHQn0VMYSDIb-31" vertex="1">
          <mxGeometry y="86" width="360" height="24" as="geometry" />
        </mxCell>
        <mxCell id="yEtD45bgeHQn0VMYSDIb-66" value="+ GetTagsBelongingToUser(string username): Task&amp;lt;IEnumerable&amp;lt;Tags&amp;gt;&amp;gt;" style="text;strokeColor=none;fillColor=none;align=left;verticalAlign=top;spacingLeft=4;spacingRight=4;overflow=hidden;rotatable=0;points=[[0,0.5],[1,0.5]];portConstraint=eastwest;whiteSpace=wrap;html=1;" parent="yEtD45bgeHQn0VMYSDIb-31" vertex="1">
          <mxGeometry y="110" width="360" height="34" as="geometry" />
        </mxCell>
        <mxCell id="yEtD45bgeHQn0VMYSDIb-67" value="+ CreateTag(Tags tag): Task" style="text;strokeColor=none;fillColor=none;align=left;verticalAlign=top;spacingLeft=4;spacingRight=4;overflow=hidden;rotatable=0;points=[[0,0.5],[1,0.5]];portConstraint=eastwest;whiteSpace=wrap;html=1;" parent="yEtD45bgeHQn0VMYSDIb-31" vertex="1">
          <mxGeometry y="144" width="360" height="34" as="geometry" />
        </mxCell>
        <mxCell id="yEtD45bgeHQn0VMYSDIb-68" value="+ GetTagsByNoteId(int noteId): Task&amp;lt;IEnumerable&amp;lt;Tags&amp;gt;&amp;gt;" style="text;strokeColor=none;fillColor=none;align=left;verticalAlign=top;spacingLeft=4;spacingRight=4;overflow=hidden;rotatable=0;points=[[0,0.5],[1,0.5]];portConstraint=eastwest;whiteSpace=wrap;html=1;" parent="yEtD45bgeHQn0VMYSDIb-31" vertex="1">
          <mxGeometry y="178" width="360" height="34" as="geometry" />
        </mxCell>
        <mxCell id="yEtD45bgeHQn0VMYSDIb-47" value="&amp;lt;interface&amp;gt;&lt;br&gt;ITagRepository" style="swimlane;fontStyle=1;align=center;verticalAlign=top;childLayout=stackLayout;horizontal=1;startSize=40;horizontalStack=0;resizeParent=1;resizeParentMax=0;resizeLast=0;collapsible=1;marginBottom=0;whiteSpace=wrap;html=1;" parent="WIyWlLk6GJQsqaUBKTNV-1" vertex="1">
          <mxGeometry x="3460" y="-760" width="380" height="166" as="geometry" />
        </mxCell>
        <mxCell id="yEtD45bgeHQn0VMYSDIb-61" value="+ DeleteTagById(int tagId): Task" style="text;strokeColor=none;fillColor=none;align=left;verticalAlign=top;spacingLeft=4;spacingRight=4;overflow=hidden;rotatable=0;points=[[0,0.5],[1,0.5]];portConstraint=eastwest;whiteSpace=wrap;html=1;" parent="yEtD45bgeHQn0VMYSDIb-47" vertex="1">
          <mxGeometry y="40" width="380" height="24" as="geometry" />
        </mxCell>
        <mxCell id="yEtD45bgeHQn0VMYSDIb-62" value="+ GetTagsBelongingToUser(string username): Task&amp;lt;IEnumerable&amp;lt;Tags&amp;gt;&amp;gt;" style="text;strokeColor=none;fillColor=none;align=left;verticalAlign=top;spacingLeft=4;spacingRight=4;overflow=hidden;rotatable=0;points=[[0,0.5],[1,0.5]];portConstraint=eastwest;whiteSpace=wrap;html=1;" parent="yEtD45bgeHQn0VMYSDIb-47" vertex="1">
          <mxGeometry y="64" width="380" height="34" as="geometry" />
        </mxCell>
        <mxCell id="yEtD45bgeHQn0VMYSDIb-63" value="+ CreateTag(Tags tag): Task" style="text;strokeColor=none;fillColor=none;align=left;verticalAlign=top;spacingLeft=4;spacingRight=4;overflow=hidden;rotatable=0;points=[[0,0.5],[1,0.5]];portConstraint=eastwest;whiteSpace=wrap;html=1;" parent="yEtD45bgeHQn0VMYSDIb-47" vertex="1">
          <mxGeometry y="98" width="380" height="34" as="geometry" />
        </mxCell>
        <mxCell id="yEtD45bgeHQn0VMYSDIb-64" value="+ GetTagsByNoteId(int noteId): Task&amp;lt;IEnumerable&amp;lt;Tags&amp;gt;&amp;gt;" style="text;strokeColor=none;fillColor=none;align=left;verticalAlign=top;spacingLeft=4;spacingRight=4;overflow=hidden;rotatable=0;points=[[0,0.5],[1,0.5]];portConstraint=eastwest;whiteSpace=wrap;html=1;" parent="yEtD45bgeHQn0VMYSDIb-47" vertex="1">
          <mxGeometry y="132" width="380" height="34" as="geometry" />
        </mxCell>
        <mxCell id="yEtD45bgeHQn0VMYSDIb-74" value="Tags" style="swimlane;fontStyle=0;childLayout=stackLayout;horizontal=1;startSize=26;fillColor=none;horizontalStack=0;resizeParent=1;resizeParentMax=0;resizeLast=0;collapsible=1;marginBottom=0;whiteSpace=wrap;html=1;" parent="WIyWlLk6GJQsqaUBKTNV-1" vertex="1">
          <mxGeometry x="2160" y="-700" width="150" height="168" as="geometry" />
        </mxCell>
        <mxCell id="yEtD45bgeHQn0VMYSDIb-75" value="+ TagId: int?" style="text;strokeColor=none;fillColor=none;align=left;verticalAlign=top;spacingLeft=4;spacingRight=4;overflow=hidden;rotatable=0;points=[[0,0.5],[1,0.5]];portConstraint=eastwest;whiteSpace=wrap;html=1;" parent="yEtD45bgeHQn0VMYSDIb-74" vertex="1">
          <mxGeometry y="26" width="150" height="26" as="geometry" />
        </mxCell>
        <mxCell id="yEtD45bgeHQn0VMYSDIb-76" value="+ Tag: string" style="text;strokeColor=none;fillColor=none;align=left;verticalAlign=top;spacingLeft=4;spacingRight=4;overflow=hidden;rotatable=0;points=[[0,0.5],[1,0.5]];portConstraint=eastwest;whiteSpace=wrap;html=1;" parent="yEtD45bgeHQn0VMYSDIb-74" vertex="1">
          <mxGeometry y="52" width="150" height="26" as="geometry" />
        </mxCell>
        <mxCell id="yEtD45bgeHQn0VMYSDIb-77" value="+ Note: int" style="text;strokeColor=none;fillColor=none;align=left;verticalAlign=top;spacingLeft=4;spacingRight=4;overflow=hidden;rotatable=0;points=[[0,0.5],[1,0.5]];portConstraint=eastwest;whiteSpace=wrap;html=1;" parent="yEtD45bgeHQn0VMYSDIb-74" vertex="1">
          <mxGeometry y="78" width="150" height="26" as="geometry" />
        </mxCell>
        <mxCell id="yEtD45bgeHQn0VMYSDIb-78" value="" style="line;strokeWidth=1;fillColor=none;align=left;verticalAlign=middle;spacingTop=-1;spacingLeft=3;spacingRight=3;rotatable=0;labelPosition=right;points=[];portConstraint=eastwest;strokeColor=inherit;" parent="yEtD45bgeHQn0VMYSDIb-74" vertex="1">
          <mxGeometry y="104" width="150" height="8" as="geometry" />
        </mxCell>
        <mxCell id="yEtD45bgeHQn0VMYSDIb-79" value="+ Equals(object?): bool" style="text;strokeColor=none;fillColor=none;align=left;verticalAlign=top;spacingLeft=4;spacingRight=4;overflow=hidden;rotatable=0;points=[[0,0.5],[1,0.5]];portConstraint=eastwest;whiteSpace=wrap;html=1;" parent="yEtD45bgeHQn0VMYSDIb-74" vertex="1">
          <mxGeometry y="112" width="150" height="30" as="geometry" />
        </mxCell>
        <mxCell id="yEtD45bgeHQn0VMYSDIb-80" value="+ GetHashCode(): int" style="text;strokeColor=none;fillColor=none;align=left;verticalAlign=top;spacingLeft=4;spacingRight=4;overflow=hidden;rotatable=0;points=[[0,0.5],[1,0.5]];portConstraint=eastwest;whiteSpace=wrap;html=1;" parent="yEtD45bgeHQn0VMYSDIb-74" vertex="1">
          <mxGeometry y="142" width="150" height="26" as="geometry" />
        </mxCell>
        <mxCell id="9L9Go_cO9j4hxyI1K6ot-1" value="Use" style="endArrow=open;endSize=12;dashed=1;html=1;rounded=0;entryX=0.454;entryY=1.162;entryDx=0;entryDy=0;entryPerimeter=0;" parent="WIyWlLk6GJQsqaUBKTNV-1" source="6U9F9vJyRZBFyjSzrLCs-174" target="6U9F9vJyRZBFyjSzrLCs-38" edge="1">
          <mxGeometry width="160" relative="1" as="geometry">
            <mxPoint x="670" y="480" as="sourcePoint" />
            <mxPoint x="840" y="360" as="targetPoint" />
            <Array as="points">
              <mxPoint x="820" y="460" />
            </Array>
          </mxGeometry>
        </mxCell>
        <mxCell id="9L9Go_cO9j4hxyI1K6ot-2" value="Use" style="endArrow=open;endSize=12;dashed=1;html=1;rounded=0;exitX=1.013;exitY=0.083;exitDx=0;exitDy=0;exitPerimeter=0;" parent="WIyWlLk6GJQsqaUBKTNV-1" source="6U9F9vJyRZBFyjSzrLCs-65" target="6U9F9vJyRZBFyjSzrLCs-20" edge="1">
          <mxGeometry width="160" relative="1" as="geometry">
            <mxPoint x="90" y="250" as="sourcePoint" />
            <mxPoint x="250" y="250" as="targetPoint" />
          </mxGeometry>
        </mxCell>
        <mxCell id="9L9Go_cO9j4hxyI1K6ot-3" value="Use" style="endArrow=open;endSize=12;dashed=1;html=1;rounded=0;exitX=0.911;exitY=-0.048;exitDx=0;exitDy=0;exitPerimeter=0;entryX=0.012;entryY=0.088;entryDx=0;entryDy=0;entryPerimeter=0;" parent="WIyWlLk6GJQsqaUBKTNV-1" source="6U9F9vJyRZBFyjSzrLCs-137" target="6U9F9vJyRZBFyjSzrLCs-20" edge="1">
          <mxGeometry width="160" relative="1" as="geometry">
            <mxPoint x="-300" y="180" as="sourcePoint" />
            <mxPoint x="430" y="140" as="targetPoint" />
            <Array as="points">
              <mxPoint x="140" y="230" />
            </Array>
          </mxGeometry>
        </mxCell>
        <mxCell id="9L9Go_cO9j4hxyI1K6ot-4" value="Use" style="endArrow=open;endSize=12;dashed=1;html=1;rounded=0;exitX=1;exitY=1;exitDx=0;exitDy=0;entryX=1.026;entryY=0.105;entryDx=0;entryDy=0;entryPerimeter=0;" parent="WIyWlLk6GJQsqaUBKTNV-1" source="6U9F9vJyRZBFyjSzrLCs-174" target="6U9F9vJyRZBFyjSzrLCs-37" edge="1">
          <mxGeometry width="160" relative="1" as="geometry">
            <mxPoint x="620" y="510" as="sourcePoint" />
            <mxPoint x="930" y="20" as="targetPoint" />
            <Array as="points">
              <mxPoint x="1050" y="550" />
              <mxPoint x="1100" y="370" />
              <mxPoint x="1060" y="190" />
            </Array>
          </mxGeometry>
        </mxCell>
        <mxCell id="9L9Go_cO9j4hxyI1K6ot-5" value="Use" style="endArrow=open;endSize=12;dashed=1;html=1;rounded=0;exitX=0.735;exitY=1.166;exitDx=0;exitDy=0;exitPerimeter=0;entryX=1.003;entryY=1.231;entryDx=0;entryDy=0;entryPerimeter=0;" parent="WIyWlLk6GJQsqaUBKTNV-1" source="6U9F9vJyRZBFyjSzrLCs-71" target="8kD_bNBt5iVXrSrV0JrJ-9" edge="1">
          <mxGeometry width="160" relative="1" as="geometry">
            <mxPoint y="460" as="sourcePoint" />
            <mxPoint x="890" as="targetPoint" />
            <Array as="points">
              <mxPoint x="310" y="630" />
              <mxPoint x="1130" y="600" />
              <mxPoint x="1160" y="330" />
              <mxPoint x="1090" y="170" />
              <mxPoint x="1010" y="80" />
            </Array>
          </mxGeometry>
        </mxCell>
        <mxCell id="9L9Go_cO9j4hxyI1K6ot-6" value="Use" style="endArrow=open;endSize=12;dashed=1;html=1;rounded=0;exitX=-0.003;exitY=1.236;exitDx=0;exitDy=0;exitPerimeter=0;entryX=1.013;entryY=0.166;entryDx=0;entryDy=0;entryPerimeter=0;" parent="WIyWlLk6GJQsqaUBKTNV-1" source="6U9F9vJyRZBFyjSzrLCs-176" target="6U9F9vJyRZBFyjSzrLCs-45" edge="1">
          <mxGeometry width="160" relative="1" as="geometry">
            <mxPoint x="90" y="365" as="sourcePoint" />
            <mxPoint x="170" y="405" as="targetPoint" />
          </mxGeometry>
        </mxCell>
        <mxCell id="9L9Go_cO9j4hxyI1K6ot-7" value="" style="endArrow=block;dashed=1;endFill=0;endSize=12;html=1;rounded=0;entryX=0.466;entryY=-0.048;entryDx=0;entryDy=0;entryPerimeter=0;exitX=0.414;exitY=1.019;exitDx=0;exitDy=0;exitPerimeter=0;" parent="WIyWlLk6GJQsqaUBKTNV-1" source="6U9F9vJyRZBFyjSzrLCs-71" target="6U9F9vJyRZBFyjSzrLCs-45" edge="1">
          <mxGeometry width="160" relative="1" as="geometry">
            <mxPoint x="-230" y="450" as="sourcePoint" />
            <mxPoint x="-70" y="450" as="targetPoint" />
          </mxGeometry>
        </mxCell>
        <mxCell id="9L9Go_cO9j4hxyI1K6ot-9" value="" style="endArrow=block;dashed=1;endFill=0;endSize=12;html=1;rounded=0;entryX=0.5;entryY=0;entryDx=0;entryDy=0;exitX=0.506;exitY=1.138;exitDx=0;exitDy=0;exitPerimeter=0;" parent="WIyWlLk6GJQsqaUBKTNV-1" source="6U9F9vJyRZBFyjSzrLCs-144" target="6U9F9vJyRZBFyjSzrLCs-92" edge="1">
          <mxGeometry width="160" relative="1" as="geometry">
            <mxPoint x="-560" y="370" as="sourcePoint" />
            <mxPoint x="-400" y="370" as="targetPoint" />
          </mxGeometry>
        </mxCell>
        <mxCell id="9L9Go_cO9j4hxyI1K6ot-10" value="Use" style="endArrow=open;endSize=12;dashed=1;html=1;rounded=0;exitX=-0.012;exitY=-0.17;exitDx=0;exitDy=0;exitPerimeter=0;entryX=0.979;entryY=0.014;entryDx=0;entryDy=0;entryPerimeter=0;" parent="WIyWlLk6GJQsqaUBKTNV-1" source="6U9F9vJyRZBFyjSzrLCs-71" target="6U9F9vJyRZBFyjSzrLCs-92" edge="1">
          <mxGeometry width="160" relative="1" as="geometry">
            <mxPoint x="-380" y="410" as="sourcePoint" />
            <mxPoint x="-400" y="480" as="targetPoint" />
          </mxGeometry>
        </mxCell>
        <mxCell id="9L9Go_cO9j4hxyI1K6ot-11" value="Use" style="endArrow=open;endSize=12;dashed=1;html=1;rounded=0;entryX=0.976;entryY=0.993;entryDx=0;entryDy=0;entryPerimeter=0;" parent="WIyWlLk6GJQsqaUBKTNV-1" source="6U9F9vJyRZBFyjSzrLCs-65" target="6U9F9vJyRZBFyjSzrLCs-101" edge="1">
          <mxGeometry width="160" relative="1" as="geometry">
            <mxPoint x="-300" y="130" as="sourcePoint" />
            <mxPoint x="-530" y="-50" as="targetPoint" />
          </mxGeometry>
        </mxCell>
        <mxCell id="9L9Go_cO9j4hxyI1K6ot-12" value="Use" style="endArrow=open;endSize=12;dashed=1;html=1;rounded=0;exitX=0.031;exitY=1.282;exitDx=0;exitDy=0;exitPerimeter=0;entryX=0.053;entryY=1.141;entryDx=0;entryDy=0;entryPerimeter=0;" parent="WIyWlLk6GJQsqaUBKTNV-1" source="6U9F9vJyRZBFyjSzrLCs-144" target="8kD_bNBt5iVXrSrV0JrJ-2" edge="1">
          <mxGeometry width="160" relative="1" as="geometry">
            <mxPoint x="-780" y="570" as="sourcePoint" />
            <mxPoint x="1690" y="340" as="targetPoint" />
            <Array as="points">
              <mxPoint x="-690" y="810" />
              <mxPoint x="1140" y="630" />
              <mxPoint x="1500" y="510" />
            </Array>
          </mxGeometry>
        </mxCell>
        <mxCell id="9L9Go_cO9j4hxyI1K6ot-13" value="Use" style="endArrow=open;endSize=12;dashed=1;html=1;rounded=0;entryX=0.012;entryY=0.059;entryDx=0;entryDy=0;entryPerimeter=0;exitX=0.998;exitY=1;exitDx=0;exitDy=0;exitPerimeter=0;" parent="WIyWlLk6GJQsqaUBKTNV-1" source="6U9F9vJyRZBFyjSzrLCs-187" target="6U9F9vJyRZBFyjSzrLCs-14" edge="1">
          <mxGeometry width="160" relative="1" as="geometry">
            <mxPoint x="510" y="-170" as="sourcePoint" />
            <mxPoint x="670" y="-170" as="targetPoint" />
          </mxGeometry>
        </mxCell>
        <mxCell id="9L9Go_cO9j4hxyI1K6ot-14" value="Use" style="endArrow=open;endSize=12;dashed=1;html=1;rounded=0;entryX=1;entryY=0.25;entryDx=0;entryDy=0;exitX=0.045;exitY=-0.006;exitDx=0;exitDy=0;exitPerimeter=0;" parent="WIyWlLk6GJQsqaUBKTNV-1" source="6U9F9vJyRZBFyjSzrLCs-182" target="6U9F9vJyRZBFyjSzrLCs-41" edge="1">
          <mxGeometry width="160" relative="1" as="geometry">
            <mxPoint x="180" y="-400" as="sourcePoint" />
            <mxPoint x="340" y="-400" as="targetPoint" />
          </mxGeometry>
        </mxCell>
        <mxCell id="9L9Go_cO9j4hxyI1K6ot-15" value="" style="endArrow=block;dashed=1;endFill=0;endSize=12;html=1;rounded=0;entryX=0.522;entryY=1.186;entryDx=0;entryDy=0;entryPerimeter=0;exitX=0.5;exitY=0;exitDx=0;exitDy=0;" parent="WIyWlLk6GJQsqaUBKTNV-1" source="6U9F9vJyRZBFyjSzrLCs-57" target="6U9F9vJyRZBFyjSzrLCs-42" edge="1">
          <mxGeometry width="160" relative="1" as="geometry">
            <mxPoint x="-80" y="-340" as="sourcePoint" />
            <mxPoint x="80" y="-340" as="targetPoint" />
          </mxGeometry>
        </mxCell>
        <mxCell id="9L9Go_cO9j4hxyI1K6ot-16" value="Use" style="endArrow=open;endSize=12;dashed=1;html=1;rounded=0;entryX=0;entryY=0.5;entryDx=0;entryDy=0;exitX=1.003;exitY=1.039;exitDx=0;exitDy=0;exitPerimeter=0;" parent="WIyWlLk6GJQsqaUBKTNV-1" source="6U9F9vJyRZBFyjSzrLCs-64" target="6U9F9vJyRZBFyjSzrLCs-18" edge="1">
          <mxGeometry width="160" relative="1" as="geometry">
            <mxPoint x="100" y="-170" as="sourcePoint" />
            <mxPoint x="260" y="-170" as="targetPoint" />
            <Array as="points">
              <mxPoint x="390" y="-130" />
            </Array>
          </mxGeometry>
        </mxCell>
        <mxCell id="9L9Go_cO9j4hxyI1K6ot-17" value="Use" style="endArrow=open;endSize=12;dashed=1;html=1;rounded=0;entryX=1.006;entryY=0.339;entryDx=0;entryDy=0;entryPerimeter=0;" parent="WIyWlLk6GJQsqaUBKTNV-1" source="6U9F9vJyRZBFyjSzrLCs-57" target="6U9F9vJyRZBFyjSzrLCs-99" edge="1">
          <mxGeometry width="160" relative="1" as="geometry">
            <mxPoint x="-240" y="-360" as="sourcePoint" />
            <mxPoint x="-80" y="-360" as="targetPoint" />
          </mxGeometry>
        </mxCell>
        <mxCell id="9L9Go_cO9j4hxyI1K6ot-18" value="" style="endArrow=block;dashed=1;endFill=0;endSize=12;html=1;rounded=0;entryX=0.71;entryY=1.128;entryDx=0;entryDy=0;entryPerimeter=0;exitX=0.75;exitY=0;exitDx=0;exitDy=0;" parent="WIyWlLk6GJQsqaUBKTNV-1" source="6U9F9vJyRZBFyjSzrLCs-146" target="6U9F9vJyRZBFyjSzrLCs-101" edge="1">
          <mxGeometry width="160" relative="1" as="geometry">
            <mxPoint x="-550" y="-350" as="sourcePoint" />
            <mxPoint x="-390" y="-350" as="targetPoint" />
          </mxGeometry>
        </mxCell>
        <mxCell id="9L9Go_cO9j4hxyI1K6ot-19" value="Use" style="endArrow=open;endSize=12;dashed=1;html=1;rounded=0;exitX=1.003;exitY=0.977;exitDx=0;exitDy=0;exitPerimeter=0;entryX=0;entryY=0.5;entryDx=0;entryDy=0;" parent="WIyWlLk6GJQsqaUBKTNV-1" source="6U9F9vJyRZBFyjSzrLCs-152" target="6U9F9vJyRZBFyjSzrLCs-17" edge="1">
          <mxGeometry width="160" relative="1" as="geometry">
            <mxPoint x="-210" y="-100" as="sourcePoint" />
            <mxPoint x="390" y="-50" as="targetPoint" />
            <Array as="points">
              <mxPoint x="190" y="-90" />
            </Array>
          </mxGeometry>
        </mxCell>
        <mxCell id="9L9Go_cO9j4hxyI1K6ot-20" value="Use" style="endArrow=open;endSize=12;dashed=1;html=1;rounded=0;exitX=0;exitY=0.5;exitDx=0;exitDy=0;entryX=0.159;entryY=-0.031;entryDx=0;entryDy=0;entryPerimeter=0;" parent="WIyWlLk6GJQsqaUBKTNV-1" source="6U9F9vJyRZBFyjSzrLCs-151" target="6U9F9vJyRZBFyjSzrLCs-205" edge="1">
          <mxGeometry width="160" relative="1" as="geometry">
            <mxPoint x="-850" y="-220" as="sourcePoint" />
            <mxPoint x="1660" y="-60" as="targetPoint" />
            <Array as="points">
              <mxPoint x="-930" y="-360" />
              <mxPoint x="-830" y="-590" />
              <mxPoint x="260" y="-600" />
              <mxPoint x="750" y="-360" />
              <mxPoint x="970" y="-220" />
              <mxPoint x="1310" y="-20" />
            </Array>
          </mxGeometry>
        </mxCell>
        <mxCell id="9L9Go_cO9j4hxyI1K6ot-22" value="Use" style="endArrow=open;endSize=12;dashed=1;html=1;rounded=0;exitX=0.001;exitY=-0.132;exitDx=0;exitDy=0;exitPerimeter=0;entryX=1.01;entryY=-0.047;entryDx=0;entryDy=0;entryPerimeter=0;" parent="WIyWlLk6GJQsqaUBKTNV-1" source="6U9F9vJyRZBFyjSzrLCs-159" target="6U9F9vJyRZBFyjSzrLCs-12" edge="1">
          <mxGeometry width="160" relative="1" as="geometry">
            <mxPoint x="1934.4300000000012" y="843.4399999999998" as="sourcePoint" />
            <mxPoint x="1710.000000000001" y="794.5599999999997" as="targetPoint" />
          </mxGeometry>
        </mxCell>
        <mxCell id="9L9Go_cO9j4hxyI1K6ot-23" value="Use" style="endArrow=open;endSize=12;dashed=1;html=1;rounded=0;exitX=1.002;exitY=1.077;exitDx=0;exitDy=0;exitPerimeter=0;entryX=0.427;entryY=-0.004;entryDx=0;entryDy=0;entryPerimeter=0;" parent="WIyWlLk6GJQsqaUBKTNV-1" source="6U9F9vJyRZBFyjSzrLCs-162" target="6U9F9vJyRZBFyjSzrLCs-49" edge="1">
          <mxGeometry width="160" relative="1" as="geometry">
            <mxPoint x="2320" y="1010" as="sourcePoint" />
            <mxPoint x="2480" y="1010" as="targetPoint" />
          </mxGeometry>
        </mxCell>
        <mxCell id="9L9Go_cO9j4hxyI1K6ot-26" value="" style="endArrow=block;dashed=1;endFill=0;endSize=12;html=1;rounded=0;exitX=0.999;exitY=0.201;exitDx=0;exitDy=0;exitPerimeter=0;entryX=-0.004;entryY=0.801;entryDx=0;entryDy=0;entryPerimeter=0;" parent="WIyWlLk6GJQsqaUBKTNV-1" source="6U9F9vJyRZBFyjSzrLCs-87" target="6U9F9vJyRZBFyjSzrLCs-54" edge="1">
          <mxGeometry width="160" relative="1" as="geometry">
            <mxPoint x="2420" y="1300" as="sourcePoint" />
            <mxPoint x="2560" y="1300" as="targetPoint" />
          </mxGeometry>
        </mxCell>
        <mxCell id="9L9Go_cO9j4hxyI1K6ot-27" value="Use" style="endArrow=open;endSize=12;dashed=1;html=1;rounded=0;entryX=1;entryY=0.5;entryDx=0;entryDy=0;exitX=0.069;exitY=0.005;exitDx=0;exitDy=0;exitPerimeter=0;" parent="WIyWlLk6GJQsqaUBKTNV-1" source="6U9F9vJyRZBFyjSzrLCs-82" target="6U9F9vJyRZBFyjSzrLCs-7" edge="1">
          <mxGeometry width="160" relative="1" as="geometry">
            <mxPoint x="1980" y="1170" as="sourcePoint" />
            <mxPoint x="2140" y="1170" as="targetPoint" />
            <Array as="points">
              <mxPoint x="1870" y="1110" />
            </Array>
          </mxGeometry>
        </mxCell>
        <mxCell id="9L9Go_cO9j4hxyI1K6ot-28" value="Use" style="endArrow=open;endSize=12;dashed=1;html=1;rounded=0;exitX=0.605;exitY=1.009;exitDx=0;exitDy=0;exitPerimeter=0;entryX=0.555;entryY=1.213;entryDx=0;entryDy=0;entryPerimeter=0;" parent="WIyWlLk6GJQsqaUBKTNV-1" source="ZgPF7rxRNCcD46Vk-L9j-99" target="ZgPF7rxRNCcD46Vk-L9j-103" edge="1">
          <mxGeometry width="160" relative="1" as="geometry">
            <mxPoint x="2300" y="1560" as="sourcePoint" />
            <mxPoint x="970" y="1580" as="targetPoint" />
            <Array as="points">
              <mxPoint x="2370" y="1600" />
              <mxPoint x="1110" y="1700" />
            </Array>
          </mxGeometry>
        </mxCell>
        <mxCell id="9L9Go_cO9j4hxyI1K6ot-29" value="" style="endArrow=block;dashed=1;endFill=0;endSize=12;html=1;rounded=0;exitX=0;exitY=0.5;exitDx=0;exitDy=0;entryX=1;entryY=0.5;entryDx=0;entryDy=0;" parent="WIyWlLk6GJQsqaUBKTNV-1" source="6U9F9vJyRZBFyjSzrLCs-120" target="6U9F9vJyRZBFyjSzrLCs-113" edge="1">
          <mxGeometry width="160" relative="1" as="geometry">
            <mxPoint x="1361" y="1299" as="sourcePoint" />
            <mxPoint x="1241" y="1309" as="targetPoint" />
          </mxGeometry>
        </mxCell>
        <mxCell id="9L9Go_cO9j4hxyI1K6ot-30" value="Use" style="endArrow=open;endSize=12;dashed=1;html=1;rounded=0;entryX=0.435;entryY=0.932;entryDx=0;entryDy=0;entryPerimeter=0;exitX=0.75;exitY=0;exitDx=0;exitDy=0;" parent="WIyWlLk6GJQsqaUBKTNV-1" source="6U9F9vJyRZBFyjSzrLCs-116" target="6U9F9vJyRZBFyjSzrLCs-6" edge="1">
          <mxGeometry width="160" relative="1" as="geometry">
            <mxPoint x="1610" y="1120" as="sourcePoint" />
            <mxPoint x="1770" y="1120" as="targetPoint" />
          </mxGeometry>
        </mxCell>
        <mxCell id="9L9Go_cO9j4hxyI1K6ot-31" value="Use" style="endArrow=open;endSize=12;dashed=1;html=1;rounded=0;exitX=0.135;exitY=0.002;exitDx=0;exitDy=0;exitPerimeter=0;entryX=0.351;entryY=1.368;entryDx=0;entryDy=0;entryPerimeter=0;" parent="WIyWlLk6GJQsqaUBKTNV-1" source="6U9F9vJyRZBFyjSzrLCs-116" target="8kD_bNBt5iVXrSrV0JrJ-2" edge="1">
          <mxGeometry width="160" relative="1" as="geometry">
            <mxPoint x="1350" y="1050" as="sourcePoint" />
            <mxPoint x="1780" y="340" as="targetPoint" />
            <Array as="points">
              <mxPoint x="980" y="700" />
              <mxPoint x="1470" y="580" />
              <mxPoint x="1650" y="500" />
            </Array>
          </mxGeometry>
        </mxCell>
        <mxCell id="9L9Go_cO9j4hxyI1K6ot-33" value="Use" style="endArrow=open;endSize=12;dashed=1;html=1;rounded=0;entryX=0.58;entryY=1.038;entryDx=0;entryDy=0;entryPerimeter=0;exitX=0.541;exitY=-0.005;exitDx=0;exitDy=0;exitPerimeter=0;" parent="WIyWlLk6GJQsqaUBKTNV-1" source="6U9F9vJyRZBFyjSzrLCs-163" target="6U9F9vJyRZBFyjSzrLCs-32" edge="1">
          <mxGeometry width="160" relative="1" as="geometry">
            <mxPoint x="2920" y="240" as="sourcePoint" />
            <mxPoint x="3080" y="240" as="targetPoint" />
          </mxGeometry>
        </mxCell>
        <mxCell id="9L9Go_cO9j4hxyI1K6ot-34" value="Use" style="endArrow=open;endSize=12;dashed=1;html=1;rounded=0;entryX=0;entryY=0.5;entryDx=0;entryDy=0;exitX=1;exitY=0.5;exitDx=0;exitDy=0;" parent="WIyWlLk6GJQsqaUBKTNV-1" source="6U9F9vJyRZBFyjSzrLCs-171" target="6U9F9vJyRZBFyjSzrLCs-52" edge="1">
          <mxGeometry width="160" relative="1" as="geometry">
            <mxPoint x="3120" y="460" as="sourcePoint" />
            <mxPoint x="3280" y="460" as="targetPoint" />
          </mxGeometry>
        </mxCell>
        <mxCell id="9L9Go_cO9j4hxyI1K6ot-35" value="" style="endArrow=block;dashed=1;endFill=0;endSize=12;html=1;rounded=0;exitX=0.656;exitY=-0.016;exitDx=0;exitDy=0;exitPerimeter=0;entryX=0.688;entryY=1.077;entryDx=0;entryDy=0;entryPerimeter=0;" parent="WIyWlLk6GJQsqaUBKTNV-1" source="6U9F9vJyRZBFyjSzrLCs-73" target="yEtD45bgeHQn0VMYSDIb-28" edge="1">
          <mxGeometry width="160" relative="1" as="geometry">
            <mxPoint x="3610" y="640" as="sourcePoint" />
            <mxPoint x="3770" y="640" as="targetPoint" />
          </mxGeometry>
        </mxCell>
        <mxCell id="9L9Go_cO9j4hxyI1K6ot-37" value="Use" style="endArrow=open;endSize=12;dashed=1;html=1;rounded=0;exitX=1;exitY=0.5;exitDx=0;exitDy=0;entryX=1;entryY=0.5;entryDx=0;entryDy=0;" parent="WIyWlLk6GJQsqaUBKTNV-1" source="6U9F9vJyRZBFyjSzrLCs-74" target="6U9F9vJyRZBFyjSzrLCs-106" edge="1">
          <mxGeometry width="160" relative="1" as="geometry">
            <mxPoint x="3960" y="800" as="sourcePoint" />
            <mxPoint x="4020" y="30" as="targetPoint" />
            <Array as="points">
              <mxPoint x="4040" y="800" />
              <mxPoint x="4070" y="420" />
            </Array>
          </mxGeometry>
        </mxCell>
        <mxCell id="9L9Go_cO9j4hxyI1K6ot-38" value="" style="endArrow=block;dashed=1;endFill=0;endSize=12;html=1;rounded=0;entryX=0.543;entryY=-0.014;entryDx=0;entryDy=0;entryPerimeter=0;exitX=0.582;exitY=1.165;exitDx=0;exitDy=0;exitPerimeter=0;" parent="WIyWlLk6GJQsqaUBKTNV-1" source="yEtD45bgeHQn0VMYSDIb-72" target="6U9F9vJyRZBFyjSzrLCs-102" edge="1">
          <mxGeometry width="160" relative="1" as="geometry">
            <mxPoint x="3640" y="-140" as="sourcePoint" />
            <mxPoint x="3800" y="-140" as="targetPoint" />
          </mxGeometry>
        </mxCell>
        <mxCell id="9L9Go_cO9j4hxyI1K6ot-39" value="Use" style="endArrow=open;endSize=12;dashed=1;html=1;rounded=0;entryX=0.673;entryY=-0.019;entryDx=0;entryDy=0;entryPerimeter=0;exitX=0.009;exitY=1.103;exitDx=0;exitDy=0;exitPerimeter=0;" parent="WIyWlLk6GJQsqaUBKTNV-1" source="yEtD45bgeHQn0VMYSDIb-72" target="6U9F9vJyRZBFyjSzrLCs-0" edge="1">
          <mxGeometry width="160" relative="1" as="geometry">
            <mxPoint x="2970" y="-350" as="sourcePoint" />
            <mxPoint x="3130" y="-350" as="targetPoint" />
          </mxGeometry>
        </mxCell>
        <mxCell id="9L9Go_cO9j4hxyI1K6ot-40" value="Use" style="endArrow=open;endSize=12;dashed=1;html=1;rounded=0;exitX=-0.009;exitY=0.112;exitDx=0;exitDy=0;exitPerimeter=0;entryX=1;entryY=0.25;entryDx=0;entryDy=0;" parent="WIyWlLk6GJQsqaUBKTNV-1" source="6U9F9vJyRZBFyjSzrLCs-125" target="6U9F9vJyRZBFyjSzrLCs-205" edge="1">
          <mxGeometry width="160" relative="1" as="geometry">
            <mxPoint x="2760" y="-300" as="sourcePoint" />
            <mxPoint x="1960" y="-70" as="targetPoint" />
            <Array as="points">
              <mxPoint x="2720" y="-100" />
            </Array>
          </mxGeometry>
        </mxCell>
        <mxCell id="9L9Go_cO9j4hxyI1K6ot-41" value="Use" style="endArrow=open;endSize=12;dashed=1;html=1;rounded=0;exitX=0;exitY=0.5;exitDx=0;exitDy=0;entryX=-0.014;entryY=0.044;entryDx=0;entryDy=0;entryPerimeter=0;" parent="WIyWlLk6GJQsqaUBKTNV-1" source="9L9Go_cO9j4hxyI1K6ot-36" target="6U9F9vJyRZBFyjSzrLCs-32" edge="1">
          <mxGeometry width="160" relative="1" as="geometry">
            <mxPoint x="3250" y="680" as="sourcePoint" />
            <mxPoint x="2760" y="110" as="targetPoint" />
            <Array as="points">
              <mxPoint x="2550" y="600" />
              <mxPoint x="2610" y="340" />
              <mxPoint x="2670" y="230" />
              <mxPoint x="2700" y="140" />
            </Array>
          </mxGeometry>
        </mxCell>
        <mxCell id="9L9Go_cO9j4hxyI1K6ot-42" value="Use" style="endArrow=open;endSize=12;dashed=1;html=1;rounded=0;exitX=1;exitY=0;exitDx=0;exitDy=0;entryX=0.275;entryY=1.003;entryDx=0;entryDy=0;entryPerimeter=0;" parent="WIyWlLk6GJQsqaUBKTNV-1" source="yEtD45bgeHQn0VMYSDIb-2" target="yEtD45bgeHQn0VMYSDIb-24" edge="1">
          <mxGeometry width="160" relative="1" as="geometry">
            <mxPoint x="2830" y="-460" as="sourcePoint" />
            <mxPoint x="2990" y="-460" as="targetPoint" />
          </mxGeometry>
        </mxCell>
        <mxCell id="9L9Go_cO9j4hxyI1K6ot-43" value="Use" style="endArrow=open;endSize=12;dashed=1;html=1;rounded=0;entryX=1;entryY=-0.153;entryDx=0;entryDy=0;entryPerimeter=0;exitX=0.096;exitY=-0.006;exitDx=0;exitDy=0;exitPerimeter=0;" parent="WIyWlLk6GJQsqaUBKTNV-1" source="yEtD45bgeHQn0VMYSDIb-2" target="yEtD45bgeHQn0VMYSDIb-79" edge="1">
          <mxGeometry width="160" relative="1" as="geometry">
            <mxPoint x="2360" y="-480" as="sourcePoint" />
            <mxPoint x="2520" y="-480" as="targetPoint" />
          </mxGeometry>
        </mxCell>
        <mxCell id="9L9Go_cO9j4hxyI1K6ot-44" value="" style="endArrow=block;dashed=1;endFill=0;endSize=12;html=1;rounded=0;entryX=0.376;entryY=-0.013;entryDx=0;entryDy=0;entryPerimeter=0;exitX=0.387;exitY=0.986;exitDx=0;exitDy=0;exitPerimeter=0;" parent="WIyWlLk6GJQsqaUBKTNV-1" source="yEtD45bgeHQn0VMYSDIb-19" target="yEtD45bgeHQn0VMYSDIb-20" edge="1">
          <mxGeometry width="160" relative="1" as="geometry">
            <mxPoint x="3010" y="-850" as="sourcePoint" />
            <mxPoint x="3170" y="-850" as="targetPoint" />
          </mxGeometry>
        </mxCell>
        <mxCell id="9L9Go_cO9j4hxyI1K6ot-45" value="Use" style="endArrow=open;endSize=12;dashed=1;html=1;rounded=0;entryX=0;entryY=0;entryDx=0;entryDy=0;exitX=1;exitY=0.5;exitDx=0;exitDy=0;" parent="WIyWlLk6GJQsqaUBKTNV-1" source="yEtD45bgeHQn0VMYSDIb-18" target="yEtD45bgeHQn0VMYSDIb-47" edge="1">
          <mxGeometry width="160" relative="1" as="geometry">
            <mxPoint x="3260" y="-900" as="sourcePoint" />
            <mxPoint x="3420" y="-900" as="targetPoint" />
          </mxGeometry>
        </mxCell>
        <mxCell id="9L9Go_cO9j4hxyI1K6ot-46" value="Use" style="endArrow=open;endSize=12;dashed=1;html=1;rounded=0;entryX=1;entryY=0;entryDx=0;entryDy=0;exitX=0.006;exitY=0.151;exitDx=0;exitDy=0;exitPerimeter=0;" parent="WIyWlLk6GJQsqaUBKTNV-1" source="yEtD45bgeHQn0VMYSDIb-18" target="yEtD45bgeHQn0VMYSDIb-74" edge="1">
          <mxGeometry width="160" relative="1" as="geometry">
            <mxPoint x="2520" y="-860" as="sourcePoint" />
            <mxPoint x="2680" y="-860" as="targetPoint" />
          </mxGeometry>
        </mxCell>
        <mxCell id="9L9Go_cO9j4hxyI1K6ot-47" value="Use" style="endArrow=open;endSize=12;dashed=1;html=1;rounded=0;exitX=1;exitY=0.5;exitDx=0;exitDy=0;entryX=1.025;entryY=0.892;entryDx=0;entryDy=0;entryPerimeter=0;" parent="WIyWlLk6GJQsqaUBKTNV-1" source="6U9F9vJyRZBFyjSzrLCs-78" target="yEtD45bgeHQn0VMYSDIb-64" edge="1">
          <mxGeometry width="160" relative="1" as="geometry">
            <mxPoint x="3950" y="880" as="sourcePoint" />
            <mxPoint x="3900" y="-300" as="targetPoint" />
            <Array as="points">
              <mxPoint x="4130" y="870" />
              <mxPoint x="4280" y="310" />
            </Array>
          </mxGeometry>
        </mxCell>
        <mxCell id="9L9Go_cO9j4hxyI1K6ot-48" value="" style="endArrow=block;dashed=1;endFill=0;endSize=12;html=1;rounded=0;entryX=0.474;entryY=-0.015;entryDx=0;entryDy=0;entryPerimeter=0;exitX=0.524;exitY=1.027;exitDx=0;exitDy=0;exitPerimeter=0;" parent="WIyWlLk6GJQsqaUBKTNV-1" source="yEtD45bgeHQn0VMYSDIb-68" target="yEtD45bgeHQn0VMYSDIb-47" edge="1">
          <mxGeometry width="160" relative="1" as="geometry">
            <mxPoint x="3650" y="-870" as="sourcePoint" />
            <mxPoint x="3810" y="-870" as="targetPoint" />
          </mxGeometry>
        </mxCell>
        <mxCell id="9L9Go_cO9j4hxyI1K6ot-49" value="Use" style="endArrow=open;endSize=12;dashed=1;html=1;rounded=0;exitX=0.25;exitY=0;exitDx=0;exitDy=0;entryX=0.25;entryY=0;entryDx=0;entryDy=0;" parent="WIyWlLk6GJQsqaUBKTNV-1" source="yEtD45bgeHQn0VMYSDIb-31" target="yEtD45bgeHQn0VMYSDIb-74" edge="1">
          <mxGeometry width="160" relative="1" as="geometry">
            <mxPoint x="3340" y="-1210" as="sourcePoint" />
            <mxPoint x="2460" y="-1030" as="targetPoint" />
            <Array as="points">
              <mxPoint x="3220" y="-1210" />
              <mxPoint x="2760" y="-1210" />
            </Array>
          </mxGeometry>
        </mxCell>
        <mxCell id="9L9Go_cO9j4hxyI1K6ot-50" value="Use" style="endArrow=open;endSize=12;dashed=1;html=1;rounded=0;exitX=0.875;exitY=0;exitDx=0;exitDy=0;exitPerimeter=0;entryX=0.858;entryY=-0.045;entryDx=0;entryDy=0;entryPerimeter=0;" parent="WIyWlLk6GJQsqaUBKTNV-1" source="yEtD45bgeHQn0VMYSDIb-31" target="6U9F9vJyRZBFyjSzrLCs-205" edge="1">
          <mxGeometry width="160" relative="1" as="geometry">
            <mxPoint x="3610" y="-1290" as="sourcePoint" />
            <mxPoint x="1800" y="-540" as="targetPoint" />
            <Array as="points">
              <mxPoint x="2760" y="-1370" />
              <mxPoint x="2370" y="-1250" />
              <mxPoint x="2190" y="-900" />
            </Array>
          </mxGeometry>
        </mxCell>
        <mxCell id="9L9Go_cO9j4hxyI1K6ot-51" value="" style="endArrow=block;dashed=1;endFill=0;endSize=12;html=1;rounded=0;entryX=0.529;entryY=1.231;entryDx=0;entryDy=0;entryPerimeter=0;" parent="WIyWlLk6GJQsqaUBKTNV-1" source="6U9F9vJyRZBFyjSzrLCs-205" target="8kD_bNBt5iVXrSrV0JrJ-1" edge="1">
          <mxGeometry width="160" relative="1" as="geometry">
            <mxPoint x="1760" y="-80" as="sourcePoint" />
            <mxPoint x="1920" y="-80" as="targetPoint" />
          </mxGeometry>
        </mxCell>
        <mxCell id="9L9Go_cO9j4hxyI1K6ot-53" value="Use" style="endArrow=open;endSize=12;dashed=1;html=1;rounded=0;exitX=0.361;exitY=-0.018;exitDx=0;exitDy=0;exitPerimeter=0;entryX=1;entryY=1;entryDx=0;entryDy=0;" parent="WIyWlLk6GJQsqaUBKTNV-1" source="6U9F9vJyRZBFyjSzrLCs-205" target="8kD_bNBt5iVXrSrV0JrJ-7" edge="1">
          <mxGeometry width="160" relative="1" as="geometry">
            <mxPoint x="1490" y="-100" as="sourcePoint" />
            <mxPoint x="1650" y="-100" as="targetPoint" />
          </mxGeometry>
        </mxCell>
        <mxCell id="9L9Go_cO9j4hxyI1K6ot-55" value="" style="endArrow=block;dashed=1;endFill=0;endSize=12;html=1;rounded=0;entryX=1;entryY=0.5;entryDx=0;entryDy=0;exitX=0;exitY=-0.125;exitDx=0;exitDy=0;exitPerimeter=0;" parent="WIyWlLk6GJQsqaUBKTNV-1" source="8kD_bNBt5iVXrSrV0JrJ-14" target="8kD_bNBt5iVXrSrV0JrJ-17" edge="1">
          <mxGeometry width="160" relative="1" as="geometry">
            <mxPoint x="1250" y="-1210" as="sourcePoint" />
            <mxPoint x="1390" y="-1110" as="targetPoint" />
          </mxGeometry>
        </mxCell>
        <mxCell id="9L9Go_cO9j4hxyI1K6ot-56" value="" style="endArrow=block;dashed=1;endFill=0;endSize=12;html=1;rounded=0;entryX=0.378;entryY=-0.005;entryDx=0;entryDy=0;entryPerimeter=0;exitX=0.967;exitY=1.045;exitDx=0;exitDy=0;exitPerimeter=0;" parent="WIyWlLk6GJQsqaUBKTNV-1" source="8kD_bNBt5iVXrSrV0JrJ-38" target="8kD_bNBt5iVXrSrV0JrJ-11" edge="1">
          <mxGeometry width="160" relative="1" as="geometry">
            <mxPoint x="1330" y="-1400" as="sourcePoint" />
            <mxPoint x="1490" y="-1400" as="targetPoint" />
          </mxGeometry>
        </mxCell>
        <mxCell id="9L9Go_cO9j4hxyI1K6ot-57" value="" style="endArrow=block;dashed=1;endFill=0;endSize=12;html=1;rounded=0;entryX=0.75;entryY=0;entryDx=0;entryDy=0;exitX=0.5;exitY=1;exitDx=0;exitDy=0;" parent="WIyWlLk6GJQsqaUBKTNV-1" source="8kD_bNBt5iVXrSrV0JrJ-39" target="8kD_bNBt5iVXrSrV0JrJ-11" edge="1">
          <mxGeometry width="160" relative="1" as="geometry">
            <mxPoint x="1770" y="-1690" as="sourcePoint" />
            <mxPoint x="1930" y="-1690" as="targetPoint" />
          </mxGeometry>
        </mxCell>
        <mxCell id="9L9Go_cO9j4hxyI1K6ot-61" value="Use" style="endArrow=open;endSize=12;dashed=1;html=1;rounded=0;entryX=0.5;entryY=0;entryDx=0;entryDy=0;exitX=0.339;exitY=1.25;exitDx=0;exitDy=0;exitPerimeter=0;" parent="WIyWlLk6GJQsqaUBKTNV-1" source="8kD_bNBt5iVXrSrV0JrJ-38" target="8kD_bNBt5iVXrSrV0JrJ-17" edge="1">
          <mxGeometry width="160" relative="1" as="geometry">
            <mxPoint x="1100" y="-1520" as="sourcePoint" />
            <mxPoint x="1260" y="-1520" as="targetPoint" />
          </mxGeometry>
        </mxCell>
        <mxCell id="9L9Go_cO9j4hxyI1K6ot-62" value="Use" style="endArrow=open;endSize=12;dashed=1;html=1;rounded=0;entryX=0.5;entryY=1;entryDx=0;entryDy=0;exitX=0.558;exitY=-0.043;exitDx=0;exitDy=0;exitPerimeter=0;" parent="WIyWlLk6GJQsqaUBKTNV-1" source="6U9F9vJyRZBFyjSzrLCs-182" target="8kD_bNBt5iVXrSrV0JrJ-7" edge="1">
          <mxGeometry width="160" relative="1" as="geometry">
            <mxPoint x="750" y="-580" as="sourcePoint" />
            <mxPoint x="910" y="-580" as="targetPoint" />
          </mxGeometry>
        </mxCell>
        <mxCell id="9L9Go_cO9j4hxyI1K6ot-63" value="Use" style="endArrow=open;endSize=12;dashed=1;html=1;rounded=0;exitX=0.672;exitY=-0.053;exitDx=0;exitDy=0;exitPerimeter=0;entryX=0.75;entryY=1;entryDx=0;entryDy=0;" parent="WIyWlLk6GJQsqaUBKTNV-1" source="6U9F9vJyRZBFyjSzrLCs-174" target="8kD_bNBt5iVXrSrV0JrJ-7" edge="1">
          <mxGeometry width="160" relative="1" as="geometry">
            <mxPoint x="870" y="-420" as="sourcePoint" />
            <mxPoint x="930" y="-590" as="targetPoint" />
            <Array as="points">
              <mxPoint x="660" y="-220" />
              <mxPoint x="880" y="-380" />
            </Array>
          </mxGeometry>
        </mxCell>
        <mxCell id="9L9Go_cO9j4hxyI1K6ot-64" value="Use" style="endArrow=open;endSize=12;dashed=1;html=1;rounded=0;exitX=0.75;exitY=0;exitDx=0;exitDy=0;entryX=1;entryY=0.75;entryDx=0;entryDy=0;" parent="WIyWlLk6GJQsqaUBKTNV-1" source="6U9F9vJyRZBFyjSzrLCs-154" target="8kD_bNBt5iVXrSrV0JrJ-7" edge="1">
          <mxGeometry width="160" relative="1" as="geometry">
            <mxPoint x="2200" y="500" as="sourcePoint" />
            <mxPoint x="1850" y="-1090" as="targetPoint" />
            <Array as="points">
              <mxPoint x="2145" y="-60" />
              <mxPoint x="2010" y="-810" />
            </Array>
          </mxGeometry>
        </mxCell>
        <mxCell id="9L9Go_cO9j4hxyI1K6ot-65" value="Use" style="endArrow=open;endSize=12;dashed=1;html=1;rounded=0;exitX=0;exitY=0.5;exitDx=0;exitDy=0;entryX=0;entryY=0.75;entryDx=0;entryDy=0;" parent="WIyWlLk6GJQsqaUBKTNV-1" source="yEtD45bgeHQn0VMYSDIb-6" target="8kD_bNBt5iVXrSrV0JrJ-7" edge="1">
          <mxGeometry width="160" relative="1" as="geometry">
            <mxPoint x="2140" y="-340" as="sourcePoint" />
            <mxPoint x="480" y="-940" as="targetPoint" />
            <Array as="points">
              <mxPoint x="550" y="-810" />
            </Array>
          </mxGeometry>
        </mxCell>
        <mxCell id="9L9Go_cO9j4hxyI1K6ot-66" value="Use" style="endArrow=open;endSize=12;dashed=1;html=1;rounded=0;exitX=-0.01;exitY=-0.115;exitDx=0;exitDy=0;exitPerimeter=0;" parent="WIyWlLk6GJQsqaUBKTNV-1" source="6U9F9vJyRZBFyjSzrLCs-173" target="8kD_bNBt5iVXrSrV0JrJ-7" edge="1">
          <mxGeometry width="160" relative="1" as="geometry">
            <mxPoint x="2590" y="370" as="sourcePoint" />
            <mxPoint x="880" y="-1160" as="targetPoint" />
            <Array as="points">
              <mxPoint x="950" y="-1160" />
            </Array>
          </mxGeometry>
        </mxCell>
        <mxCell id="9L9Go_cO9j4hxyI1K6ot-69" value="" style="endArrow=none;html=1;edgeStyle=orthogonalEdgeStyle;rounded=0;exitX=0.75;exitY=1;exitDx=0;exitDy=0;entryX=0.421;entryY=-0.011;entryDx=0;entryDy=0;entryPerimeter=0;" parent="WIyWlLk6GJQsqaUBKTNV-1" source="6U9F9vJyRZBFyjSzrLCs-190" target="6U9F9vJyRZBFyjSzrLCs-154" edge="1">
          <mxGeometry relative="1" as="geometry">
            <mxPoint x="2070" y="620" as="sourcePoint" />
            <mxPoint x="2230" y="620" as="targetPoint" />
          </mxGeometry>
        </mxCell>
        <mxCell id="9L9Go_cO9j4hxyI1K6ot-70" value="parent" style="edgeLabel;resizable=0;html=1;align=left;verticalAlign=bottom;" parent="9L9Go_cO9j4hxyI1K6ot-69" connectable="0" vertex="1">
          <mxGeometry x="-1" relative="1" as="geometry" />
        </mxCell>
        <mxCell id="9L9Go_cO9j4hxyI1K6ot-71" value="child" style="edgeLabel;resizable=0;html=1;align=right;verticalAlign=bottom;" parent="9L9Go_cO9j4hxyI1K6ot-69" connectable="0" vertex="1">
          <mxGeometry x="1" relative="1" as="geometry" />
        </mxCell>
        <mxCell id="9L9Go_cO9j4hxyI1K6ot-72" value="" style="endArrow=none;html=1;edgeStyle=orthogonalEdgeStyle;rounded=0;exitX=1;exitY=0;exitDx=0;exitDy=0;entryX=0;entryY=0.808;entryDx=0;entryDy=0;entryPerimeter=0;" parent="WIyWlLk6GJQsqaUBKTNV-1" source="6U9F9vJyRZBFyjSzrLCs-190" target="6U9F9vJyRZBFyjSzrLCs-167" edge="1">
          <mxGeometry relative="1" as="geometry">
            <mxPoint x="2250" y="370" as="sourcePoint" />
            <mxPoint x="2410" y="370" as="targetPoint" />
          </mxGeometry>
        </mxCell>
        <mxCell id="9L9Go_cO9j4hxyI1K6ot-73" value="parent" style="edgeLabel;resizable=0;html=1;align=left;verticalAlign=bottom;" parent="9L9Go_cO9j4hxyI1K6ot-72" connectable="0" vertex="1">
          <mxGeometry x="-1" relative="1" as="geometry" />
        </mxCell>
        <mxCell id="9L9Go_cO9j4hxyI1K6ot-74" value="child" style="edgeLabel;resizable=0;html=1;align=right;verticalAlign=bottom;" parent="9L9Go_cO9j4hxyI1K6ot-72" connectable="0" vertex="1">
          <mxGeometry x="1" relative="1" as="geometry" />
        </mxCell>
        <mxCell id="9L9Go_cO9j4hxyI1K6ot-75" value="" style="endArrow=none;html=1;edgeStyle=orthogonalEdgeStyle;rounded=0;exitX=0;exitY=0.75;exitDx=0;exitDy=0;entryX=1.018;entryY=-0.034;entryDx=0;entryDy=0;entryPerimeter=0;" parent="WIyWlLk6GJQsqaUBKTNV-1" source="6U9F9vJyRZBFyjSzrLCs-190" target="6U9F9vJyRZBFyjSzrLCs-178" edge="1">
          <mxGeometry relative="1" as="geometry">
            <mxPoint x="1270" y="450" as="sourcePoint" />
            <mxPoint x="1430" y="450" as="targetPoint" />
          </mxGeometry>
        </mxCell>
        <mxCell id="9L9Go_cO9j4hxyI1K6ot-76" value="parent" style="edgeLabel;resizable=0;html=1;align=left;verticalAlign=bottom;" parent="9L9Go_cO9j4hxyI1K6ot-75" connectable="0" vertex="1">
          <mxGeometry x="-1" relative="1" as="geometry" />
        </mxCell>
        <mxCell id="9L9Go_cO9j4hxyI1K6ot-77" value="child" style="edgeLabel;resizable=0;html=1;align=right;verticalAlign=bottom;" parent="9L9Go_cO9j4hxyI1K6ot-75" connectable="0" vertex="1">
          <mxGeometry x="1" relative="1" as="geometry" />
        </mxCell>
        <mxCell id="9L9Go_cO9j4hxyI1K6ot-78" value="" style="endArrow=none;html=1;edgeStyle=orthogonalEdgeStyle;rounded=0;exitX=0.657;exitY=0.003;exitDx=0;exitDy=0;exitPerimeter=0;" parent="WIyWlLk6GJQsqaUBKTNV-1" source="6U9F9vJyRZBFyjSzrLCs-190" target="6U9F9vJyRZBFyjSzrLCs-182" edge="1">
          <mxGeometry relative="1" as="geometry">
            <mxPoint x="920" y="-250" as="sourcePoint" />
            <mxPoint x="1000" y="-380" as="targetPoint" />
            <Array as="points">
              <mxPoint x="2002" y="21" />
              <mxPoint x="1001" y="21" />
              <mxPoint x="1001" y="-380" />
              <mxPoint x="425" y="-380" />
            </Array>
          </mxGeometry>
        </mxCell>
        <mxCell id="9L9Go_cO9j4hxyI1K6ot-79" value="parent" style="edgeLabel;resizable=0;html=1;align=left;verticalAlign=bottom;" parent="9L9Go_cO9j4hxyI1K6ot-78" connectable="0" vertex="1">
          <mxGeometry x="-1" relative="1" as="geometry" />
        </mxCell>
        <mxCell id="9L9Go_cO9j4hxyI1K6ot-80" value="child" style="edgeLabel;resizable=0;html=1;align=right;verticalAlign=bottom;" parent="9L9Go_cO9j4hxyI1K6ot-78" connectable="0" vertex="1">
          <mxGeometry x="1" relative="1" as="geometry" />
        </mxCell>
        <mxCell id="9L9Go_cO9j4hxyI1K6ot-81" value="" style="endArrow=none;html=1;edgeStyle=orthogonalEdgeStyle;rounded=0;entryX=0;entryY=0.5;entryDx=0;entryDy=0;exitX=0.357;exitY=-0.096;exitDx=0;exitDy=0;exitPerimeter=0;" parent="WIyWlLk6GJQsqaUBKTNV-1" source="6U9F9vJyRZBFyjSzrLCs-190" target="yEtD45bgeHQn0VMYSDIb-10" edge="1">
          <mxGeometry relative="1" as="geometry">
            <mxPoint x="2190" y="120" as="sourcePoint" />
            <mxPoint x="2250" y="217.64" as="targetPoint" />
            <Array as="points">
              <mxPoint x="2310" y="415" />
              <mxPoint x="2310" y="-60" />
              <mxPoint x="2341" y="-60" />
              <mxPoint x="2341" y="222" />
              <mxPoint x="2250" y="222" />
              <mxPoint x="2250" y="-220" />
            </Array>
          </mxGeometry>
        </mxCell>
        <mxCell id="9L9Go_cO9j4hxyI1K6ot-82" value="parent" style="edgeLabel;resizable=0;html=1;align=left;verticalAlign=bottom;" parent="9L9Go_cO9j4hxyI1K6ot-81" connectable="0" vertex="1">
          <mxGeometry x="-1" relative="1" as="geometry" />
        </mxCell>
        <mxCell id="9L9Go_cO9j4hxyI1K6ot-83" value="child" style="edgeLabel;resizable=0;html=1;align=right;verticalAlign=bottom;" parent="9L9Go_cO9j4hxyI1K6ot-81" connectable="0" vertex="1">
          <mxGeometry x="1" relative="1" as="geometry" />
        </mxCell>
        <mxCell id="ZgPF7rxRNCcD46Vk-L9j-0" value="ProjectController" style="swimlane;fontStyle=0;childLayout=stackLayout;horizontal=1;startSize=26;fillColor=none;horizontalStack=0;resizeParent=1;resizeParentMax=0;resizeLast=0;collapsible=1;marginBottom=0;whiteSpace=wrap;html=1;" vertex="1" parent="WIyWlLk6GJQsqaUBKTNV-1">
          <mxGeometry x="2450" y="740" width="370" height="216" as="geometry" />
        </mxCell>
        <mxCell id="ZgPF7rxRNCcD46Vk-L9j-1" value="+ _config: IConfiguration" style="text;strokeColor=none;fillColor=none;align=left;verticalAlign=top;spacingLeft=4;spacingRight=4;overflow=hidden;rotatable=0;points=[[0,0.5],[1,0.5]];portConstraint=eastwest;whiteSpace=wrap;html=1;" vertex="1" parent="ZgPF7rxRNCcD46Vk-L9j-0">
          <mxGeometry y="26" width="370" height="26" as="geometry" />
        </mxCell>
        <mxCell id="ZgPF7rxRNCcD46Vk-L9j-2" value="+ projectService: IProjectService" style="text;strokeColor=none;fillColor=none;align=left;verticalAlign=top;spacingLeft=4;spacingRight=4;overflow=hidden;rotatable=0;points=[[0,0.5],[1,0.5]];portConstraint=eastwest;whiteSpace=wrap;html=1;" vertex="1" parent="ZgPF7rxRNCcD46Vk-L9j-0">
          <mxGeometry y="52" width="370" height="26" as="geometry" />
        </mxCell>
        <mxCell id="ZgPF7rxRNCcD46Vk-L9j-3" value="" style="line;strokeWidth=1;fillColor=none;align=left;verticalAlign=middle;spacingTop=-1;spacingLeft=3;spacingRight=3;rotatable=0;labelPosition=right;points=[];portConstraint=eastwest;strokeColor=inherit;" vertex="1" parent="ZgPF7rxRNCcD46Vk-L9j-0">
          <mxGeometry y="78" width="370" height="8" as="geometry" />
        </mxCell>
        <mxCell id="ZgPF7rxRNCcD46Vk-L9j-4" value="+ ProjectController(IConfiguration,IProjectService)" style="text;strokeColor=none;fillColor=none;align=left;verticalAlign=top;spacingLeft=4;spacingRight=4;overflow=hidden;rotatable=0;points=[[0,0.5],[1,0.5]];portConstraint=eastwest;whiteSpace=wrap;html=1;" vertex="1" parent="ZgPF7rxRNCcD46Vk-L9j-0">
          <mxGeometry y="86" width="370" height="26" as="geometry" />
        </mxCell>
        <mxCell id="ZgPF7rxRNCcD46Vk-L9j-5" value="+ CreateProject(Project): Task&amp;lt;IActionResult&amp;gt;" style="text;strokeColor=none;fillColor=none;align=left;verticalAlign=top;spacingLeft=4;spacingRight=4;overflow=hidden;rotatable=0;points=[[0,0.5],[1,0.5]];portConstraint=eastwest;whiteSpace=wrap;html=1;" vertex="1" parent="ZgPF7rxRNCcD46Vk-L9j-0">
          <mxGeometry y="112" width="370" height="26" as="geometry" />
        </mxCell>
        <mxCell id="ZgPF7rxRNCcD46Vk-L9j-6" value="+ GetAllByUser(string): &amp;nbsp;Task&amp;lt;IEnumerable&amp;lt;Project&amp;gt;&amp;gt;" style="text;strokeColor=none;fillColor=none;align=left;verticalAlign=top;spacingLeft=4;spacingRight=4;overflow=hidden;rotatable=0;points=[[0,0.5],[1,0.5]];portConstraint=eastwest;whiteSpace=wrap;html=1;" vertex="1" parent="ZgPF7rxRNCcD46Vk-L9j-0">
          <mxGeometry y="138" width="370" height="26" as="geometry" />
        </mxCell>
        <mxCell id="ZgPF7rxRNCcD46Vk-L9j-7" value="+ GetById(id): Task&amp;lt;Project&amp;gt;" style="text;strokeColor=none;fillColor=none;align=left;verticalAlign=top;spacingLeft=4;spacingRight=4;overflow=hidden;rotatable=0;points=[[0,0.5],[1,0.5]];portConstraint=eastwest;whiteSpace=wrap;html=1;" vertex="1" parent="ZgPF7rxRNCcD46Vk-L9j-0">
          <mxGeometry y="164" width="370" height="26" as="geometry" />
        </mxCell>
        <mxCell id="ZgPF7rxRNCcD46Vk-L9j-8" value="+ Delete(id): Task&amp;lt;IActionResult&amp;gt;" style="text;strokeColor=none;fillColor=none;align=left;verticalAlign=top;spacingLeft=4;spacingRight=4;overflow=hidden;rotatable=0;points=[[0,0.5],[1,0.5]];portConstraint=eastwest;whiteSpace=wrap;html=1;" vertex="1" parent="ZgPF7rxRNCcD46Vk-L9j-0">
          <mxGeometry y="190" width="370" height="26" as="geometry" />
        </mxCell>
        <mxCell id="ZgPF7rxRNCcD46Vk-L9j-9" value="Project" style="swimlane;fontStyle=1;align=center;verticalAlign=top;childLayout=stackLayout;horizontal=1;startSize=26;horizontalStack=0;resizeParent=1;resizeParentMax=0;resizeLast=0;collapsible=1;marginBottom=0;whiteSpace=wrap;html=1;" vertex="1" parent="WIyWlLk6GJQsqaUBKTNV-1">
          <mxGeometry x="3030" y="755" width="190" height="190" as="geometry" />
        </mxCell>
        <mxCell id="ZgPF7rxRNCcD46Vk-L9j-10" value="+ projectId: int" style="text;strokeColor=none;fillColor=none;align=left;verticalAlign=top;spacingLeft=4;spacingRight=4;overflow=hidden;rotatable=0;points=[[0,0.5],[1,0.5]];portConstraint=eastwest;whiteSpace=wrap;html=1;" vertex="1" parent="ZgPF7rxRNCcD46Vk-L9j-9">
          <mxGeometry y="26" width="190" height="26" as="geometry" />
        </mxCell>
        <mxCell id="ZgPF7rxRNCcD46Vk-L9j-13" value="+ Title: string&lt;span style=&quot;white-space: pre;&quot;&gt;&#x9;&lt;/span&gt;" style="text;strokeColor=none;fillColor=none;align=left;verticalAlign=top;spacingLeft=4;spacingRight=4;overflow=hidden;rotatable=0;points=[[0,0.5],[1,0.5]];portConstraint=eastwest;whiteSpace=wrap;html=1;" vertex="1" parent="ZgPF7rxRNCcD46Vk-L9j-9">
          <mxGeometry y="52" width="190" height="26" as="geometry" />
        </mxCell>
        <mxCell id="ZgPF7rxRNCcD46Vk-L9j-14" value="+ Description: string?" style="text;strokeColor=none;fillColor=none;align=left;verticalAlign=top;spacingLeft=4;spacingRight=4;overflow=hidden;rotatable=0;points=[[0,0.5],[1,0.5]];portConstraint=eastwest;whiteSpace=wrap;html=1;" vertex="1" parent="ZgPF7rxRNCcD46Vk-L9j-9">
          <mxGeometry y="78" width="190" height="26" as="geometry" />
        </mxCell>
        <mxCell id="ZgPF7rxRNCcD46Vk-L9j-15" value="+ Owner: string" style="text;strokeColor=none;fillColor=none;align=left;verticalAlign=top;spacingLeft=4;spacingRight=4;overflow=hidden;rotatable=0;points=[[0,0.5],[1,0.5]];portConstraint=eastwest;whiteSpace=wrap;html=1;" vertex="1" parent="ZgPF7rxRNCcD46Vk-L9j-9">
          <mxGeometry y="104" width="190" height="26" as="geometry" />
        </mxCell>
        <mxCell id="ZgPF7rxRNCcD46Vk-L9j-11" value="" style="line;strokeWidth=1;fillColor=none;align=left;verticalAlign=middle;spacingTop=-1;spacingLeft=3;spacingRight=3;rotatable=0;labelPosition=right;points=[];portConstraint=eastwest;strokeColor=inherit;" vertex="1" parent="ZgPF7rxRNCcD46Vk-L9j-9">
          <mxGeometry y="130" width="190" height="8" as="geometry" />
        </mxCell>
        <mxCell id="ZgPF7rxRNCcD46Vk-L9j-12" value="+ Equals(object?): bool" style="text;strokeColor=none;fillColor=none;align=left;verticalAlign=top;spacingLeft=4;spacingRight=4;overflow=hidden;rotatable=0;points=[[0,0.5],[1,0.5]];portConstraint=eastwest;whiteSpace=wrap;html=1;" vertex="1" parent="ZgPF7rxRNCcD46Vk-L9j-9">
          <mxGeometry y="138" width="190" height="26" as="geometry" />
        </mxCell>
        <mxCell id="ZgPF7rxRNCcD46Vk-L9j-16" value="+ GetHashCode(): int" style="text;strokeColor=none;fillColor=none;align=left;verticalAlign=top;spacingLeft=4;spacingRight=4;overflow=hidden;rotatable=0;points=[[0,0.5],[1,0.5]];portConstraint=eastwest;whiteSpace=wrap;html=1;" vertex="1" parent="ZgPF7rxRNCcD46Vk-L9j-9">
          <mxGeometry y="164" width="190" height="26" as="geometry" />
        </mxCell>
        <mxCell id="ZgPF7rxRNCcD46Vk-L9j-17" value="&amp;lt;interface&amp;gt;&lt;br&gt;IProjectService" style="swimlane;fontStyle=0;childLayout=stackLayout;horizontal=1;startSize=26;fillColor=none;horizontalStack=0;resizeParent=1;resizeParentMax=0;resizeLast=0;collapsible=1;marginBottom=0;whiteSpace=wrap;html=1;" vertex="1" parent="WIyWlLk6GJQsqaUBKTNV-1">
          <mxGeometry x="2960" y="1072" width="380" height="128" as="geometry" />
        </mxCell>
        <mxCell id="ZgPF7rxRNCcD46Vk-L9j-18" value="+ GetAllProjectsForUser(string): Task&amp;lt;IEnumerable&amp;lt;Project&amp;gt;&amp;gt;" style="text;strokeColor=none;fillColor=none;align=left;verticalAlign=top;spacingLeft=4;spacingRight=4;overflow=hidden;rotatable=0;points=[[0,0.5],[1,0.5]];portConstraint=eastwest;whiteSpace=wrap;html=1;" vertex="1" parent="ZgPF7rxRNCcD46Vk-L9j-17">
          <mxGeometry y="26" width="380" height="24" as="geometry" />
        </mxCell>
        <mxCell id="ZgPF7rxRNCcD46Vk-L9j-19" value="+ &amp;nbsp;GetProjectById(int): Task&amp;lt;Project&amp;gt;" style="text;strokeColor=none;fillColor=none;align=left;verticalAlign=top;spacingLeft=4;spacingRight=4;overflow=hidden;rotatable=0;points=[[0,0.5],[1,0.5]];portConstraint=eastwest;whiteSpace=wrap;html=1;" vertex="1" parent="ZgPF7rxRNCcD46Vk-L9j-17">
          <mxGeometry y="50" width="380" height="26" as="geometry" />
        </mxCell>
        <mxCell id="ZgPF7rxRNCcD46Vk-L9j-20" value="+ &amp;nbsp;Create(Project): Task" style="text;strokeColor=none;fillColor=none;align=left;verticalAlign=top;spacingLeft=4;spacingRight=4;overflow=hidden;rotatable=0;points=[[0,0.5],[1,0.5]];portConstraint=eastwest;whiteSpace=wrap;html=1;" vertex="1" parent="ZgPF7rxRNCcD46Vk-L9j-17">
          <mxGeometry y="76" width="380" height="26" as="geometry" />
        </mxCell>
        <mxCell id="ZgPF7rxRNCcD46Vk-L9j-21" value="+ Delete(int): Task" style="text;strokeColor=none;fillColor=none;align=left;verticalAlign=top;spacingLeft=4;spacingRight=4;overflow=hidden;rotatable=0;points=[[0,0.5],[1,0.5]];portConstraint=eastwest;whiteSpace=wrap;html=1;" vertex="1" parent="ZgPF7rxRNCcD46Vk-L9j-17">
          <mxGeometry y="102" width="380" height="26" as="geometry" />
        </mxCell>
        <mxCell id="ZgPF7rxRNCcD46Vk-L9j-22" value="ProjectService" style="swimlane;fontStyle=0;childLayout=stackLayout;horizontal=1;startSize=26;fillColor=none;horizontalStack=0;resizeParent=1;resizeParentMax=0;resizeLast=0;collapsible=1;marginBottom=0;whiteSpace=wrap;html=1;" vertex="1" parent="WIyWlLk6GJQsqaUBKTNV-1">
          <mxGeometry x="2920" y="1280" width="400" height="188" as="geometry" />
        </mxCell>
        <mxCell id="ZgPF7rxRNCcD46Vk-L9j-23" value="- projectrepository: IProjectRepository" style="text;strokeColor=none;fillColor=none;align=left;verticalAlign=top;spacingLeft=4;spacingRight=4;overflow=hidden;rotatable=0;points=[[0,0.5],[1,0.5]];portConstraint=eastwest;whiteSpace=wrap;html=1;" vertex="1" parent="ZgPF7rxRNCcD46Vk-L9j-22">
          <mxGeometry y="26" width="400" height="26" as="geometry" />
        </mxCell>
        <mxCell id="ZgPF7rxRNCcD46Vk-L9j-24" value="" style="line;strokeWidth=1;fillColor=none;align=left;verticalAlign=middle;spacingTop=-1;spacingLeft=3;spacingRight=3;rotatable=0;labelPosition=right;points=[];portConstraint=eastwest;strokeColor=inherit;" vertex="1" parent="ZgPF7rxRNCcD46Vk-L9j-22">
          <mxGeometry y="52" width="400" height="8" as="geometry" />
        </mxCell>
        <mxCell id="ZgPF7rxRNCcD46Vk-L9j-25" value="+ ProjectService(IProjectRepository)" style="text;strokeColor=none;fillColor=none;align=left;verticalAlign=top;spacingLeft=4;spacingRight=4;overflow=hidden;rotatable=0;points=[[0,0.5],[1,0.5]];portConstraint=eastwest;whiteSpace=wrap;html=1;" vertex="1" parent="ZgPF7rxRNCcD46Vk-L9j-22">
          <mxGeometry y="60" width="400" height="26" as="geometry" />
        </mxCell>
        <mxCell id="ZgPF7rxRNCcD46Vk-L9j-30" value="+ GetAllProjectsForUser(string): Task&amp;lt;IEnumerable&amp;lt;Project&amp;gt;&amp;gt;" style="text;strokeColor=none;fillColor=none;align=left;verticalAlign=top;spacingLeft=4;spacingRight=4;overflow=hidden;rotatable=0;points=[[0,0.5],[1,0.5]];portConstraint=eastwest;whiteSpace=wrap;html=1;" vertex="1" parent="ZgPF7rxRNCcD46Vk-L9j-22">
          <mxGeometry y="86" width="400" height="24" as="geometry" />
        </mxCell>
        <mxCell id="ZgPF7rxRNCcD46Vk-L9j-31" value="+ &amp;nbsp;GetProjectById(int): Task&amp;lt;Project&amp;gt;" style="text;strokeColor=none;fillColor=none;align=left;verticalAlign=top;spacingLeft=4;spacingRight=4;overflow=hidden;rotatable=0;points=[[0,0.5],[1,0.5]];portConstraint=eastwest;whiteSpace=wrap;html=1;" vertex="1" parent="ZgPF7rxRNCcD46Vk-L9j-22">
          <mxGeometry y="110" width="400" height="26" as="geometry" />
        </mxCell>
        <mxCell id="ZgPF7rxRNCcD46Vk-L9j-32" value="+ &amp;nbsp;Create(Project): Task" style="text;strokeColor=none;fillColor=none;align=left;verticalAlign=top;spacingLeft=4;spacingRight=4;overflow=hidden;rotatable=0;points=[[0,0.5],[1,0.5]];portConstraint=eastwest;whiteSpace=wrap;html=1;" vertex="1" parent="ZgPF7rxRNCcD46Vk-L9j-22">
          <mxGeometry y="136" width="400" height="26" as="geometry" />
        </mxCell>
        <mxCell id="ZgPF7rxRNCcD46Vk-L9j-33" value="+ Delete(int): Task" style="text;strokeColor=none;fillColor=none;align=left;verticalAlign=top;spacingLeft=4;spacingRight=4;overflow=hidden;rotatable=0;points=[[0,0.5],[1,0.5]];portConstraint=eastwest;whiteSpace=wrap;html=1;" vertex="1" parent="ZgPF7rxRNCcD46Vk-L9j-22">
          <mxGeometry y="162" width="400" height="26" as="geometry" />
        </mxCell>
        <mxCell id="ZgPF7rxRNCcD46Vk-L9j-34" value="&amp;lt;interface&amp;gt;&lt;br&gt;IProjectRepository" style="swimlane;fontStyle=1;align=center;verticalAlign=top;childLayout=stackLayout;horizontal=1;startSize=40;horizontalStack=0;resizeParent=1;resizeParentMax=0;resizeLast=0;collapsible=1;marginBottom=0;whiteSpace=wrap;html=1;" vertex="1" parent="WIyWlLk6GJQsqaUBKTNV-1">
          <mxGeometry x="3400" y="1070" width="380" height="142" as="geometry" />
        </mxCell>
        <mxCell id="ZgPF7rxRNCcD46Vk-L9j-47" value="+ GetAllProjectsForUser(string): Task&amp;lt;IEnumerable&amp;lt;Project&amp;gt;&amp;gt;" style="text;strokeColor=none;fillColor=none;align=left;verticalAlign=top;spacingLeft=4;spacingRight=4;overflow=hidden;rotatable=0;points=[[0,0.5],[1,0.5]];portConstraint=eastwest;whiteSpace=wrap;html=1;" vertex="1" parent="ZgPF7rxRNCcD46Vk-L9j-34">
          <mxGeometry y="40" width="380" height="24" as="geometry" />
        </mxCell>
        <mxCell id="ZgPF7rxRNCcD46Vk-L9j-48" value="+ &amp;nbsp;GetProjectById(int): Task&amp;lt;Project&amp;gt;" style="text;strokeColor=none;fillColor=none;align=left;verticalAlign=top;spacingLeft=4;spacingRight=4;overflow=hidden;rotatable=0;points=[[0,0.5],[1,0.5]];portConstraint=eastwest;whiteSpace=wrap;html=1;" vertex="1" parent="ZgPF7rxRNCcD46Vk-L9j-34">
          <mxGeometry y="64" width="380" height="26" as="geometry" />
        </mxCell>
        <mxCell id="ZgPF7rxRNCcD46Vk-L9j-49" value="+ &amp;nbsp;Create(Project): Task" style="text;strokeColor=none;fillColor=none;align=left;verticalAlign=top;spacingLeft=4;spacingRight=4;overflow=hidden;rotatable=0;points=[[0,0.5],[1,0.5]];portConstraint=eastwest;whiteSpace=wrap;html=1;" vertex="1" parent="ZgPF7rxRNCcD46Vk-L9j-34">
          <mxGeometry y="90" width="380" height="26" as="geometry" />
        </mxCell>
        <mxCell id="ZgPF7rxRNCcD46Vk-L9j-50" value="+ Delete(int): Task" style="text;strokeColor=none;fillColor=none;align=left;verticalAlign=top;spacingLeft=4;spacingRight=4;overflow=hidden;rotatable=0;points=[[0,0.5],[1,0.5]];portConstraint=eastwest;whiteSpace=wrap;html=1;" vertex="1" parent="ZgPF7rxRNCcD46Vk-L9j-34">
          <mxGeometry y="116" width="380" height="26" as="geometry" />
        </mxCell>
        <mxCell id="ZgPF7rxRNCcD46Vk-L9j-39" value="SourceRepository" style="swimlane;fontStyle=0;childLayout=stackLayout;horizontal=1;startSize=26;fillColor=none;horizontalStack=0;resizeParent=1;resizeParentMax=0;resizeLast=0;collapsible=1;marginBottom=0;whiteSpace=wrap;html=1;" vertex="1" parent="WIyWlLk6GJQsqaUBKTNV-1">
          <mxGeometry x="3440" y="1290" width="360" height="188" as="geometry" />
        </mxCell>
        <mxCell id="ZgPF7rxRNCcD46Vk-L9j-40" value="+ context: DBContext" style="text;strokeColor=none;fillColor=none;align=left;verticalAlign=top;spacingLeft=4;spacingRight=4;overflow=hidden;rotatable=0;points=[[0,0.5],[1,0.5]];portConstraint=eastwest;whiteSpace=wrap;html=1;" vertex="1" parent="ZgPF7rxRNCcD46Vk-L9j-39">
          <mxGeometry y="26" width="360" height="26" as="geometry" />
        </mxCell>
        <mxCell id="ZgPF7rxRNCcD46Vk-L9j-41" value="" style="line;strokeWidth=1;fillColor=none;align=left;verticalAlign=middle;spacingTop=-1;spacingLeft=3;spacingRight=3;rotatable=0;labelPosition=right;points=[];portConstraint=eastwest;strokeColor=inherit;" vertex="1" parent="ZgPF7rxRNCcD46Vk-L9j-39">
          <mxGeometry y="52" width="360" height="8" as="geometry" />
        </mxCell>
        <mxCell id="ZgPF7rxRNCcD46Vk-L9j-42" value="+ ProjectRepository(DBContext)" style="text;strokeColor=none;fillColor=none;align=left;verticalAlign=top;spacingLeft=4;spacingRight=4;overflow=hidden;rotatable=0;points=[[0,0.5],[1,0.5]];portConstraint=eastwest;whiteSpace=wrap;html=1;" vertex="1" parent="ZgPF7rxRNCcD46Vk-L9j-39">
          <mxGeometry y="60" width="360" height="26" as="geometry" />
        </mxCell>
        <mxCell id="ZgPF7rxRNCcD46Vk-L9j-52" value="+ GetAllProjectsForUser(string): Task&amp;lt;IEnumerable&amp;lt;Project&amp;gt;&amp;gt;" style="text;strokeColor=none;fillColor=none;align=left;verticalAlign=top;spacingLeft=4;spacingRight=4;overflow=hidden;rotatable=0;points=[[0,0.5],[1,0.5]];portConstraint=eastwest;whiteSpace=wrap;html=1;" vertex="1" parent="ZgPF7rxRNCcD46Vk-L9j-39">
          <mxGeometry y="86" width="360" height="24" as="geometry" />
        </mxCell>
        <mxCell id="ZgPF7rxRNCcD46Vk-L9j-53" value="+ &amp;nbsp;GetProjectById(int): Task&amp;lt;Project&amp;gt;" style="text;strokeColor=none;fillColor=none;align=left;verticalAlign=top;spacingLeft=4;spacingRight=4;overflow=hidden;rotatable=0;points=[[0,0.5],[1,0.5]];portConstraint=eastwest;whiteSpace=wrap;html=1;" vertex="1" parent="ZgPF7rxRNCcD46Vk-L9j-39">
          <mxGeometry y="110" width="360" height="26" as="geometry" />
        </mxCell>
        <mxCell id="ZgPF7rxRNCcD46Vk-L9j-55" value="+ Delete(int): Task" style="text;strokeColor=none;fillColor=none;align=left;verticalAlign=top;spacingLeft=4;spacingRight=4;overflow=hidden;rotatable=0;points=[[0,0.5],[1,0.5]];portConstraint=eastwest;whiteSpace=wrap;html=1;" vertex="1" parent="ZgPF7rxRNCcD46Vk-L9j-39">
          <mxGeometry y="136" width="360" height="26" as="geometry" />
        </mxCell>
        <mxCell id="ZgPF7rxRNCcD46Vk-L9j-54" value="+ &amp;nbsp;Create(Project): Task" style="text;strokeColor=none;fillColor=none;align=left;verticalAlign=top;spacingLeft=4;spacingRight=4;overflow=hidden;rotatable=0;points=[[0,0.5],[1,0.5]];portConstraint=eastwest;whiteSpace=wrap;html=1;" vertex="1" parent="ZgPF7rxRNCcD46Vk-L9j-39">
          <mxGeometry y="162" width="360" height="26" as="geometry" />
        </mxCell>
        <mxCell id="ZgPF7rxRNCcD46Vk-L9j-56" value="" style="endArrow=none;html=1;edgeStyle=orthogonalEdgeStyle;rounded=0;exitX=1;exitY=0.5;exitDx=0;exitDy=0;entryX=0.216;entryY=0;entryDx=0;entryDy=0;entryPerimeter=0;" edge="1" parent="WIyWlLk6GJQsqaUBKTNV-1" source="6U9F9vJyRZBFyjSzrLCs-190" target="ZgPF7rxRNCcD46Vk-L9j-0">
          <mxGeometry relative="1" as="geometry">
            <mxPoint x="2330" y="560" as="sourcePoint" />
            <mxPoint x="2490" y="560" as="targetPoint" />
          </mxGeometry>
        </mxCell>
        <mxCell id="ZgPF7rxRNCcD46Vk-L9j-57" value="parent" style="edgeLabel;resizable=0;html=1;align=left;verticalAlign=bottom;" connectable="0" vertex="1" parent="ZgPF7rxRNCcD46Vk-L9j-56">
          <mxGeometry x="-1" relative="1" as="geometry" />
        </mxCell>
        <mxCell id="ZgPF7rxRNCcD46Vk-L9j-58" value="child" style="edgeLabel;resizable=0;html=1;align=right;verticalAlign=bottom;" connectable="0" vertex="1" parent="ZgPF7rxRNCcD46Vk-L9j-56">
          <mxGeometry x="1" relative="1" as="geometry" />
        </mxCell>
        <mxCell id="ZgPF7rxRNCcD46Vk-L9j-59" value="Use" style="endArrow=open;endSize=12;dashed=1;html=1;rounded=0;exitX=1;exitY=0.5;exitDx=0;exitDy=0;entryX=-0.008;entryY=0.192;entryDx=0;entryDy=0;entryPerimeter=0;" edge="1" parent="WIyWlLk6GJQsqaUBKTNV-1" source="ZgPF7rxRNCcD46Vk-L9j-4" target="ZgPF7rxRNCcD46Vk-L9j-14">
          <mxGeometry width="160" relative="1" as="geometry">
            <mxPoint x="2850" y="840" as="sourcePoint" />
            <mxPoint x="3010" y="840" as="targetPoint" />
          </mxGeometry>
        </mxCell>
        <mxCell id="ZgPF7rxRNCcD46Vk-L9j-60" value="Use" style="endArrow=open;endSize=12;dashed=1;html=1;rounded=0;entryX=0;entryY=0;entryDx=0;entryDy=0;exitX=0.749;exitY=1.077;exitDx=0;exitDy=0;exitPerimeter=0;" edge="1" parent="WIyWlLk6GJQsqaUBKTNV-1" source="ZgPF7rxRNCcD46Vk-L9j-8" target="ZgPF7rxRNCcD46Vk-L9j-22">
          <mxGeometry width="160" relative="1" as="geometry">
            <mxPoint x="2760" y="1010" as="sourcePoint" />
            <mxPoint x="2920" y="1010" as="targetPoint" />
            <Array as="points">
              <mxPoint x="2780" y="1120" />
            </Array>
          </mxGeometry>
        </mxCell>
        <mxCell id="ZgPF7rxRNCcD46Vk-L9j-61" value="Use" style="endArrow=open;endSize=12;dashed=1;html=1;rounded=0;entryX=1;entryY=0.5;entryDx=0;entryDy=0;exitX=1;exitY=-0.145;exitDx=0;exitDy=0;exitPerimeter=0;" edge="1" parent="WIyWlLk6GJQsqaUBKTNV-1" source="ZgPF7rxRNCcD46Vk-L9j-8" target="ZgPF7rxRNCcD46Vk-L9j-52">
          <mxGeometry width="160" relative="1" as="geometry">
            <mxPoint x="2880" y="990" as="sourcePoint" />
            <mxPoint x="3950" y="1440" as="targetPoint" />
            <Array as="points">
              <mxPoint x="3920" y="1050" />
              <mxPoint x="4050" y="1380" />
            </Array>
          </mxGeometry>
        </mxCell>
        <mxCell id="ZgPF7rxRNCcD46Vk-L9j-62" value="Use" style="endArrow=open;endSize=12;dashed=1;html=1;rounded=0;exitX=1;exitY=0.866;exitDx=0;exitDy=0;exitPerimeter=0;" edge="1" parent="WIyWlLk6GJQsqaUBKTNV-1" source="ZgPF7rxRNCcD46Vk-L9j-8" target="ZgPF7rxRNCcD46Vk-L9j-17">
          <mxGeometry width="160" relative="1" as="geometry">
            <mxPoint x="2810" y="1010" as="sourcePoint" />
            <mxPoint x="2970" y="1010" as="targetPoint" />
          </mxGeometry>
        </mxCell>
        <mxCell id="ZgPF7rxRNCcD46Vk-L9j-63" value="" style="endArrow=block;dashed=1;endFill=0;endSize=12;html=1;rounded=0;entryX=0.38;entryY=1.125;entryDx=0;entryDy=0;entryPerimeter=0;exitX=0.464;exitY=0.011;exitDx=0;exitDy=0;exitPerimeter=0;" edge="1" parent="WIyWlLk6GJQsqaUBKTNV-1" source="ZgPF7rxRNCcD46Vk-L9j-22" target="ZgPF7rxRNCcD46Vk-L9j-21">
          <mxGeometry width="160" relative="1" as="geometry">
            <mxPoint x="3080" y="1260" as="sourcePoint" />
            <mxPoint x="3240" y="1260" as="targetPoint" />
          </mxGeometry>
        </mxCell>
        <mxCell id="ZgPF7rxRNCcD46Vk-L9j-64" value="Use" style="endArrow=open;endSize=12;dashed=1;html=1;rounded=0;entryX=-0.005;entryY=0.904;entryDx=0;entryDy=0;entryPerimeter=0;exitX=0.929;exitY=-0.016;exitDx=0;exitDy=0;exitPerimeter=0;" edge="1" parent="WIyWlLk6GJQsqaUBKTNV-1" source="ZgPF7rxRNCcD46Vk-L9j-22" target="ZgPF7rxRNCcD46Vk-L9j-50">
          <mxGeometry width="160" relative="1" as="geometry">
            <mxPoint x="3310" y="1250" as="sourcePoint" />
            <mxPoint x="3470" y="1250" as="targetPoint" />
          </mxGeometry>
        </mxCell>
        <mxCell id="ZgPF7rxRNCcD46Vk-L9j-65" value="" style="endArrow=block;dashed=1;endFill=0;endSize=12;html=1;rounded=0;entryX=0.418;entryY=1.082;entryDx=0;entryDy=0;entryPerimeter=0;exitX=0.306;exitY=0.013;exitDx=0;exitDy=0;exitPerimeter=0;" edge="1" parent="WIyWlLk6GJQsqaUBKTNV-1" source="ZgPF7rxRNCcD46Vk-L9j-39" target="ZgPF7rxRNCcD46Vk-L9j-50">
          <mxGeometry width="160" relative="1" as="geometry">
            <mxPoint x="3560" y="1260" as="sourcePoint" />
            <mxPoint x="3720" y="1260" as="targetPoint" />
          </mxGeometry>
        </mxCell>
        <mxCell id="ZgPF7rxRNCcD46Vk-L9j-67" value="Use" style="endArrow=open;endSize=12;dashed=1;html=1;rounded=0;exitX=0.611;exitY=1.462;exitDx=0;exitDy=0;exitPerimeter=0;" edge="1" parent="WIyWlLk6GJQsqaUBKTNV-1" source="ZgPF7rxRNCcD46Vk-L9j-54" target="8kD_bNBt5iVXrSrV0JrJ-2">
          <mxGeometry width="160" relative="1" as="geometry">
            <mxPoint x="3660" y="1920" as="sourcePoint" />
            <mxPoint x="2040" y="1200" as="targetPoint" />
            <Array as="points">
              <mxPoint x="3690" y="2090" />
              <mxPoint x="1760" y="1950" />
            </Array>
          </mxGeometry>
        </mxCell>
        <mxCell id="ZgPF7rxRNCcD46Vk-L9j-68" value="ProjectAndSources" style="swimlane;fontStyle=1;align=center;verticalAlign=top;childLayout=stackLayout;horizontal=1;startSize=26;horizontalStack=0;resizeParent=1;resizeParentMax=0;resizeLast=0;collapsible=1;marginBottom=0;whiteSpace=wrap;html=1;" vertex="1" parent="WIyWlLk6GJQsqaUBKTNV-1">
          <mxGeometry x="1980" y="1711" width="160" height="86" as="geometry" />
        </mxCell>
        <mxCell id="ZgPF7rxRNCcD46Vk-L9j-69" value="+ ProjectId: int" style="text;strokeColor=none;fillColor=none;align=left;verticalAlign=top;spacingLeft=4;spacingRight=4;overflow=hidden;rotatable=0;points=[[0,0.5],[1,0.5]];portConstraint=eastwest;whiteSpace=wrap;html=1;" vertex="1" parent="ZgPF7rxRNCcD46Vk-L9j-68">
          <mxGeometry y="26" width="160" height="26" as="geometry" />
        </mxCell>
        <mxCell id="ZgPF7rxRNCcD46Vk-L9j-72" value="+ Sources: List&amp;lt;int&amp;gt;" style="text;strokeColor=none;fillColor=none;align=left;verticalAlign=top;spacingLeft=4;spacingRight=4;overflow=hidden;rotatable=0;points=[[0,0.5],[1,0.5]];portConstraint=eastwest;whiteSpace=wrap;html=1;" vertex="1" parent="ZgPF7rxRNCcD46Vk-L9j-68">
          <mxGeometry y="52" width="160" height="26" as="geometry" />
        </mxCell>
        <mxCell id="ZgPF7rxRNCcD46Vk-L9j-70" value="" style="line;strokeWidth=1;fillColor=none;align=left;verticalAlign=middle;spacingTop=-1;spacingLeft=3;spacingRight=3;rotatable=0;labelPosition=right;points=[];portConstraint=eastwest;strokeColor=inherit;" vertex="1" parent="ZgPF7rxRNCcD46Vk-L9j-68">
          <mxGeometry y="78" width="160" height="8" as="geometry" />
        </mxCell>
        <mxCell id="ZgPF7rxRNCcD46Vk-L9j-88" value="Use" style="endArrow=open;endSize=12;dashed=1;html=1;rounded=0;exitX=0.145;exitY=1.014;exitDx=0;exitDy=0;exitPerimeter=0;" edge="1" parent="WIyWlLk6GJQsqaUBKTNV-1" source="ZgPF7rxRNCcD46Vk-L9j-87" target="ZgPF7rxRNCcD46Vk-L9j-68">
          <mxGeometry width="160" relative="1" as="geometry">
            <mxPoint x="1980" y="1060" as="sourcePoint" />
            <mxPoint x="2140" y="1060" as="targetPoint" />
          </mxGeometry>
        </mxCell>
        <mxCell id="ZgPF7rxRNCcD46Vk-L9j-95" value="Use" style="endArrow=open;endSize=12;dashed=1;html=1;rounded=0;entryX=1.045;entryY=0.174;entryDx=0;entryDy=0;entryPerimeter=0;exitX=0.408;exitY=1.027;exitDx=0;exitDy=0;exitPerimeter=0;" edge="1" parent="WIyWlLk6GJQsqaUBKTNV-1" source="ZgPF7rxRNCcD46Vk-L9j-93" target="ZgPF7rxRNCcD46Vk-L9j-69">
          <mxGeometry width="160" relative="1" as="geometry">
            <mxPoint x="2560" y="1500" as="sourcePoint" />
            <mxPoint x="2720" y="1500" as="targetPoint" />
            <Array as="points">
              <mxPoint x="2470" y="1630" />
            </Array>
          </mxGeometry>
        </mxCell>
      </root>
    </mxGraphModel>
  </diagram>
</mxfile>
